<svg width="145" height="145" viewBox="0 0 145 145" fill="none" xmlns="http://www.w3.org/2000/svg">
<g opacity="0.1" clip-path="url(#clip0_234_3916)">
<path d="M84.9733 112.232L60.4217 52.3169C59.6953 50.5442 60.5435 48.5183 62.3162 47.7919C64.0888 47.0655 66.1147 47.9137 66.8412 49.6864L91.3928 109.601C92.1192 111.374 91.271 113.4 89.4983 114.126C87.7256 114.853 85.6997 114.004 84.9733 112.232Z" fill="#F46D44"/>
<path d="M97.9569 21.9412C97.8406 21.6574 97.6163 21.4316 97.3335 21.3131C97.0506 21.1947 96.7323 21.1934 96.4486 21.3097L75.0504 30.0781C71.3616 31.5897 68.4258 34.5054 66.8863 38.1827C65.3467 41.8599 65.3295 45.9975 66.8411 49.6864L66.9597 50.0234C67.4573 51.7087 66.6079 53.5307 64.9467 54.2114C63.174 54.9378 61.1481 54.0896 60.4217 52.3169C58.9101 48.6281 55.9944 45.6923 52.3171 44.1527C48.6399 42.6132 44.5023 42.596 40.8134 44.1076L19.4153 52.8761C19.1315 52.9923 18.9057 53.2166 18.7873 53.4995C18.6688 53.7824 18.6675 54.1006 18.7838 54.3844L41.5817 110.02L41.6883 110.22C41.8137 110.409 41.9928 110.559 42.2052 110.648C42.488 110.766 42.8063 110.767 43.0901 110.651L68.7678 100.129C73.0242 98.3847 77.7984 98.4046 82.0414 100.181C82.804 100.5 83.5375 100.872 84.239 101.291C84.4446 100.501 84.7061 99.7208 85.0254 98.9582C86.8018 94.7152 90.1892 91.3509 94.4456 89.6068L120.123 79.0846C120.407 78.9684 120.633 78.7441 120.751 78.4612C120.87 78.1783 120.871 77.8601 120.755 77.5763L97.9569 21.9412ZM127.174 74.9458C127.988 76.9321 127.979 79.16 127.15 81.1401C126.321 83.1202 124.74 84.6901 122.754 85.5041L97.0761 96.0262C94.5223 97.0727 92.4898 99.0913 91.424 101.637C90.3582 104.183 90.3463 107.047 91.3928 109.601C92.1192 111.374 91.271 113.4 89.4983 114.126C87.7256 114.853 85.6997 114.004 84.9733 112.232C83.9268 109.678 81.9083 107.645 79.3625 106.58C77.1353 105.647 74.6638 105.52 72.3701 106.204L71.3984 106.548L45.7206 117.07C43.7343 117.884 41.5064 117.875 39.5263 117.046C37.5462 116.217 35.9762 114.636 35.1623 112.65L12.3644 57.0149C11.5504 55.0286 11.5597 52.8007 12.3887 50.8206C13.2176 48.8405 14.7985 47.2706 16.7848 46.4566L38.1829 37.6882C43.5743 35.4789 49.6216 35.504 54.996 37.7541C56.4679 38.3704 57.8555 39.1402 59.141 40.0435C59.423 38.4978 59.8714 36.9757 60.4876 35.5038C62.7377 30.1293 67.0285 25.8679 72.4199 23.6587L93.818 14.8902C95.8043 14.0763 98.0323 14.0855 100.012 14.9145C101.992 15.7435 103.562 17.3243 104.376 19.3106L127.174 74.9458Z" fill="#F46D44"/>
</g>
<defs>
<clipPath id="clip0_234_3916">
<rect width="111" height="111" fill="white" transform="translate(0 42.0885) rotate(-22.2826)"/>
</clipPath>
</defs>
</svg>
