<svg width="133" height="133" viewBox="0 0 133 133" fill="none" xmlns="http://www.w3.org/2000/svg">
<g opacity="0.1" clip-path="url(#clip0_234_3910)">
<path d="M86.1705 59.2073C87.3792 59.6118 88.2449 60.6796 88.3898 61.9458L94.5514 115.91L94.574 116.246C94.5946 117.909 93.3514 119.35 91.6639 119.543C89.9758 119.736 88.441 118.611 88.0866 116.985L88.0303 116.656L86.6236 104.34L58.6432 94.9766L50.1073 103.965C48.8593 105.278 46.7814 105.331 45.4675 104.083C44.154 102.835 44.1011 100.758 45.3488 99.4437L82.75 60.0585C83.6278 59.1344 84.9618 58.8028 86.1705 59.2073ZM63.3848 23.901C63.9599 22.1825 65.8192 21.2556 67.5377 21.8307C69.2562 22.4058 70.1831 24.2652 69.608 25.9837L67.5173 32.2313C71.1669 33.5137 74.7643 34.8878 78.2993 36.3486L78.2953 36.3473C81.0623 37.4876 83.7937 38.6812 86.4866 39.9265L89.1684 41.1889L89.4668 41.3473C90.8852 42.2145 91.4431 44.0341 90.7088 45.5655C89.974 47.0977 88.2049 47.8006 86.6401 47.236L86.3322 47.1059L83.7328 45.8801C81.955 45.058 80.1602 44.2589 78.349 43.4837C72.6917 52.2457 65.4993 59.6969 57.2622 65.5946C58.0434 67.622 58.9077 69.6201 59.864 71.5789C60.6591 73.2073 59.9835 75.1716 58.355 75.9667C56.7266 76.7616 54.7622 76.0861 53.9672 74.4578C53.1358 72.7547 52.3661 71.0252 51.6563 69.2737C42.5905 74.707 32.5083 78.3854 21.9699 80.0186C20.1794 80.2957 18.5055 79.0702 18.228 77.2796C17.951 75.4891 19.1765 73.8152 20.967 73.5377C31.1005 71.9671 40.7724 68.3368 49.398 62.9628C47.4591 56.7696 46.2495 50.3562 45.8188 43.8517L49.094 43.6367L52.3706 43.4177C52.7219 48.7232 53.631 53.9642 55.0758 59.0555C61.6537 54.0734 67.4511 47.9869 72.1586 40.9525C68.9311 39.6906 65.6531 38.5006 62.3311 37.3889C54.1394 34.6448 45.7843 32.4115 37.3159 30.7024C35.5399 30.344 34.3903 28.614 34.748 26.838C35.1065 25.0619 36.8363 23.9122 38.6124 24.2702C46.2747 25.8165 53.848 27.7755 61.2954 30.1446L63.3848 23.901ZM63.6308 89.7255L85.8012 97.1449L82.6669 69.6766L63.6308 89.7255ZM48.879 40.3615C50.6867 40.2424 52.2508 41.61 52.3706 43.4177L45.8188 43.8517C45.6991 42.0435 47.0708 40.4812 48.879 40.3615Z" fill="#079247"/>
</g>
<defs>
<clipPath id="clip0_234_3910">
<rect width="105" height="105" fill="white" transform="translate(33.3223) rotate(18.503)"/>
</clipPath>
</defs>
</svg>
