<svg width="76" height="76" viewBox="0 0 76 76" fill="none" xmlns="http://www.w3.org/2000/svg">
<path d="M34.8195 67.0797C34.9314 67.0662 35.1061 67.0662 35.2763 67.1244C35.4554 67.1871 35.648 67.3081 35.8092 67.4469C36.1362 67.7291 36.3825 68.0291 36.4273 67.9978C36.4631 67.9709 36.3109 67.6216 36.0108 67.2498C35.8585 67.0662 35.6525 66.8871 35.4241 66.7796C35.1822 66.6676 34.9359 66.6542 34.7702 66.6721C34.4343 66.7079 34.179 66.896 34.085 67.0707C33.9864 67.2498 34.0223 67.3708 34.076 67.3842C34.2059 67.42 34.3403 67.1379 34.815 67.0886" fill="#9358FF"/>
<path d="M7.88539 33.2298C7.83164 33.1358 7.75103 33.0238 7.67041 32.9656C7.80477 33.0641 7.86747 33.1805 7.88539 33.2298Z" fill="#9358FF"/>
<path d="M71.4373 37.3858C71.406 37.229 71.3612 37.0723 71.2985 36.9245C71.2044 36.6781 71.0342 36.3691 70.7834 36.1183C70.5371 35.8586 70.2057 35.6884 69.9459 35.6122C69.8116 35.5719 69.6906 35.5585 69.5697 35.545H69.4981C69.4398 35.545 69.3816 35.545 69.3279 35.545C69.1174 35.563 68.8083 35.6391 68.5754 35.7914C68.5038 35.8317 68.4456 35.8809 68.3963 35.9257C68.3963 35.9123 68.3963 35.8989 68.3873 35.8944C68.4411 35.863 68.4859 35.8362 68.5127 35.8138C68.5665 35.7555 68.5799 35.6615 68.5799 35.6167C68.5799 35.6167 68.5799 35.6033 68.5799 35.5988V35.5854C68.5799 35.5719 68.5665 35.5674 68.562 35.554C68.562 35.554 68.562 35.545 68.562 35.5406L68.2888 35.1464C68.1724 34.8598 67.9664 34.4926 67.7111 34.1208C67.4558 33.7491 67.1871 33.4356 66.9542 33.2206L66.7034 32.8579L66.6855 32.8355C66.6855 32.8355 66.5959 32.5623 66.2465 32.5623H66.2197C66.2197 32.5623 66.2018 32.5623 66.1928 32.5623C66.1749 32.5623 66.157 32.5623 66.1391 32.5623C66.1301 32.5623 66.1301 32.5623 66.1256 32.5623C65.8793 32.5623 65.633 32.5488 65.3866 32.5623C64.9074 32.4996 64.258 32.4996 63.5459 32.5981C62.8428 32.6922 62.2247 32.8803 61.7948 33.0728C61.7231 33.0907 61.6559 33.1176 61.5798 33.1355C61.9963 32.2712 62.4128 31.4337 62.8204 30.6678C63.116 30.0856 63.4205 29.5437 63.6982 29.0376C63.837 28.7733 63.9714 28.5584 64.1192 28.2896C64.3655 27.8642 64.5984 27.4611 64.8223 27.0759C64.2088 27.1476 63.7161 27.2058 63.2906 27.2551C63.0443 27.2864 62.8383 27.3133 62.6323 27.3402L59.1389 27.7164L58.8971 27.7388C58.7986 27.7522 58.6776 27.7612 58.5522 27.7746C58.503 27.7746 58.3417 27.7925 58.1088 27.8239C58.0551 27.8239 58.0058 27.8373 57.961 27.8418C57.8939 27.8507 57.8356 27.8597 57.7774 27.8687C57.7774 27.8687 57.764 27.8687 57.7595 27.8687C57.2489 27.9403 56.5906 28.0657 56.0845 28.2583C56.913 26.964 57.7326 25.8264 58.4447 24.9172L59.3987 23.8334C59.7212 23.4751 60.0615 23.1347 60.393 22.7899L60.5273 22.6466C60.6841 22.4988 60.9304 22.2614 61.0827 22.1181C61.123 22.0778 61.1588 22.0419 61.1902 22.0061C61.1902 22.0061 61.1902 21.9972 61.2081 21.9882C61.226 21.9703 61.2349 21.9479 61.2529 21.93C61.3514 21.7956 61.5485 21.5269 61.5485 21.4776C61.5485 21.4597 61.5261 21.4508 61.4902 21.4418C61.4902 21.4418 61.4902 21.4329 61.4813 21.4284C61.3693 21.3702 60.908 21.4149 60.6885 21.4418L60.6079 21.4552C60.5855 21.4552 60.5721 21.4552 60.5721 21.4552L60.5184 21.4687C60.4512 21.4866 60.375 21.5 60.2989 21.5224C60.272 21.5224 60.2452 21.5314 60.2138 21.5359C59.7301 21.6792 59.2375 21.818 58.7627 21.9748C58.288 22.1494 57.8043 22.2972 57.343 22.4988C56.4249 22.8347 55.3679 23.3004 54.2572 23.9185C53.1555 24.541 51.9821 25.3024 50.8579 26.2205C49.7338 27.1476 48.7529 28.1329 47.9244 29.0913C47.1138 30.0677 46.424 30.9903 45.9269 31.8367C45.6582 32.2264 45.4253 32.6384 45.1835 33.0415C44.9371 33.4446 44.7132 33.8656 44.5117 34.3L44.431 34.4836C44.4087 34.5329 44.3818 34.5911 44.3594 34.6583L44.337 34.618L44.3191 34.5911L44.2967 34.5463C44.2609 34.4926 44.2206 34.4299 44.1758 34.3716C44.1668 34.3492 44.1534 34.3224 44.1355 34.3045C43.5756 33.5476 42.9934 32.8041 42.3261 32.1368C41.1168 30.7708 39.2045 29.1361 36.7502 27.9493C34.3138 26.7445 31.8416 26.2429 30.0188 26.1533C29.1499 26.0548 28.2183 26.0279 27.3181 26.328C27.2599 26.3459 27.1972 26.3773 27.139 26.3952C26.9374 26.4758 26.6329 26.6415 26.4672 26.7938C26.4179 26.8296 26.3866 26.8699 26.3552 26.9058C26.3552 26.9058 26.3463 26.9147 26.3373 26.9281C26.3239 26.9461 26.3104 26.964 26.297 26.9864C26.2432 26.9864 26.1985 26.9998 26.1671 27.0088H26.1492L26.1402 27.0177L26.1313 27.0267L26.0955 27.0625C26.0955 27.0625 26.082 27.0625 26.0775 27.0759C25.9297 27.2372 25.7775 27.3939 25.6207 27.5417C25.2714 27.7925 24.828 28.1239 24.313 28.4509C23.8024 28.7778 23.3097 29.051 22.947 29.275C22.7589 29.3556 22.5663 29.4272 22.3737 29.4989L22.3334 29.5168C22.2886 29.5347 22.2214 29.5571 22.1766 29.5705C22.1632 29.5705 22.1542 29.584 22.1498 29.5885L22.1408 29.6064C22.1229 29.6243 22.105 29.6646 22.0915 29.6959C21.9841 29.7497 21.8766 29.8258 21.7959 29.9064C21.6929 29.996 21.5899 30.1125 21.5004 30.2603C21.3794 30.4484 21.2227 30.6992 21.1018 30.8873C21.0883 30.9052 21.0838 30.9141 21.0704 30.932L19.1356 34.0268C17.8234 35.9974 16.1081 38.6667 14.2539 41.627C12.3997 44.5919 10.7516 47.306 9.56028 49.3482L7.97036 51.8921L7.6255 52.4474C7.53145 52.5997 7.4374 52.752 7.36574 52.8684C7.34782 52.8998 7.32991 52.9266 7.30752 52.9625C7.08358 53.2805 6.98058 54.0194 7.15076 53.9478C7.15076 53.9478 7.1642 53.9388 7.16868 53.9388C7.15524 54.0284 7.15076 54.1224 7.16868 54.2254C7.21347 54.5121 7.3747 54.8256 7.53145 55.0316L7.5628 55.0853C8.41822 56.1154 9.53341 56.7648 10.6352 57.3515C12.7625 58.516 15.6512 59.976 18.8983 61.4584C22.1408 62.9409 25.146 64.1725 27.4077 65.0145L30.2516 66.1565L30.8742 66.3939C31.0399 66.4611 31.219 66.5283 31.3489 66.5775C31.3847 66.5954 31.4161 66.5999 31.4474 66.6134C31.4474 66.6134 31.4743 66.6268 31.4833 66.6268L31.7654 66.8239C31.7654 66.8239 31.7878 66.7835 31.8281 66.7074C31.8819 66.6178 31.9625 66.479 32.0789 66.3222C32.2043 66.1476 32.3656 65.9595 32.5626 65.7759C32.6477 65.6952 32.7373 65.6191 32.8403 65.5474C32.8403 65.5474 32.8582 65.5385 32.8717 65.534C32.8717 65.534 32.8717 65.534 32.8851 65.534L32.903 65.5206C32.903 65.5206 32.9254 65.5027 32.9388 65.4892L33.0329 65.422C33.0642 65.4086 33.0911 65.3862 33.1225 65.3683C33.5479 65.1354 34.0675 65.01 34.6765 65.1354C36.3829 65.4892 37.2607 66.9985 37.4354 67.3255C37.413 67.3613 37.4175 67.3837 37.4667 67.3882C37.6996 67.4061 38.7073 67.1821 39.1776 67.0702C39.2358 67.0567 39.2985 67.0433 39.3612 67.0299C39.406 67.0164 39.4284 67.012 39.4284 67.012C39.4687 66.9985 39.509 66.994 39.5493 66.9806C39.6971 66.9403 39.8673 66.891 40.033 66.8418C40.0912 66.8283 40.1584 66.8149 40.2166 66.797L46.7062 64.9294C48.8112 64.3472 51.2789 63.6664 53.9974 62.914C54.6782 62.7259 55.3724 62.5288 56.08 62.3273C56.7876 62.1258 57.5221 61.9242 58.2611 61.6331C58.9956 61.342 59.7346 60.9613 60.375 60.397C61.0155 59.8417 61.5126 59.143 61.9291 58.4264C62.3456 57.7098 62.686 56.9843 63.0443 56.2811C63.3937 55.578 63.7385 54.8838 64.0789 54.1986C64.7552 52.8326 65.409 51.5069 66.036 50.2439C67.2766 47.7045 68.3918 45.407 69.3503 43.4454L70.7655 40.6193C70.9984 40.1401 71.2223 39.643 71.3656 39.1011C71.509 38.5636 71.5537 37.9725 71.4328 37.4037M65.7763 34.0402C65.8838 33.8342 66.0584 33.5117 66.1659 33.3102C66.1838 33.2744 66.1973 33.243 66.2152 33.2117L66.4615 33.5655C66.578 33.8521 66.784 34.2194 67.0393 34.5911C67.2946 34.9628 67.5633 35.2808 67.7962 35.4913L68.0156 35.8138L68.0649 35.8809C68.0649 35.8809 68.0918 35.9213 68.1007 35.9392C68.1007 35.9392 68.1097 35.9392 68.1141 35.9481C68.1141 35.9616 68.1321 35.966 68.15 35.966C68.1768 35.966 68.2261 35.9526 68.2799 35.9392C68.1724 36.0063 68.0156 36.1586 67.9484 36.3019C67.8902 36.396 67.8409 36.508 67.8141 36.6378C67.7827 36.8125 67.7245 37.0364 67.6842 37.2021L67.6708 37.2424C67.4468 38.1695 67.1423 39.0742 66.7974 39.9699C66.0674 41.6763 64.9119 43.9246 63.743 46.4461C62.5651 48.9586 61.5261 51.2606 60.7871 52.9893L59.7704 55.1525L59.551 55.6228C59.4927 55.7527 59.43 55.8781 59.3808 55.9811C59.3718 56.0079 59.3629 56.0348 59.3494 56.0572C59.2733 56.1916 59.2509 56.411 59.2554 56.5902C59.2285 56.6529 59.1837 56.7156 59.1434 56.7783L59.0897 56.841C59.0583 56.8858 59.0225 56.9305 58.9867 56.9753L58.7941 56.8634C58.5074 56.617 58.0909 56.3304 57.6207 56.0527C57.1728 55.7885 56.7473 55.578 56.4025 55.4526C56.3846 55.4436 56.3622 55.4347 56.3443 55.4302L55.8785 55.1615L55.8471 55.1436C55.8471 55.1436 55.8247 55.1257 55.8068 55.1167C55.8068 55.1167 55.8068 55.1033 55.8068 55.0988C55.8247 55.045 55.8427 54.9958 55.865 54.942C55.883 54.9196 55.8874 54.8838 55.9009 54.8569C56.295 53.8268 56.707 52.8012 57.128 51.7756C58.0148 49.8229 59.233 47.2119 60.6169 44.3635C62.0142 41.5106 63.2817 38.9219 64.2312 36.9872L65.6733 34.2418L65.7718 34.0492L65.7763 34.0402ZM61.9963 33.6148C62.4487 33.5565 63.0443 33.467 63.6892 33.3729C64.3386 33.2833 64.9343 33.2027 65.3822 33.1311H65.6061C65.5121 33.3147 65.3822 33.5476 65.2881 33.7267L65.2612 33.7715L63.7116 36.714C62.6591 38.5816 61.2976 41.1389 59.9003 43.9962C58.5164 46.8626 57.3654 49.5274 56.5995 51.5427C56.2457 52.3847 55.9053 53.2312 55.5784 54.0777L55.3679 54.633C55.3231 54.745 55.2783 54.8569 55.238 54.9599C55.2246 54.9599 55.2022 54.9599 55.1843 54.9599C54.1497 54.848 53.1017 54.7718 52.0582 54.7898C51.0415 54.7405 49.8502 54.8166 48.5469 54.9644C47.2436 55.1346 45.8329 55.4436 44.3907 55.896C42.9576 56.3394 41.6319 56.9126 40.4719 57.5307C39.8763 57.8218 39.3567 58.1666 38.8462 58.4667C38.367 58.8071 37.8922 59.0937 37.4936 59.4162C37.1846 59.6356 36.8756 59.8641 36.571 60.1014C36.5845 60.0701 36.5979 60.0298 36.6158 59.9984L36.6337 59.9626C37.0458 59.0355 37.5742 58.1577 38.1878 57.3426C39.415 55.7885 41.399 53.9612 43.9026 52.4161C46.3972 50.8665 48.9321 49.9394 50.8534 49.4288C51.476 49.2765 52.103 49.1691 52.7389 49.0705C52.7658 49.0705 52.7972 49.0705 52.833 49.0705C53.5317 49.0034 54.9648 48.8108 56.0621 48.8914C56.2905 48.3763 56.4473 47.7045 56.5368 47.2477C56.5458 47.2209 56.5548 47.1895 56.5592 47.1626C56.5682 47.1402 56.5727 47.1223 56.5727 47.1223L56.5906 47.0551C56.6085 46.9701 56.6309 46.8805 56.6533 46.7819C56.6667 46.7506 56.6712 46.7192 56.6802 46.6834C56.9668 45.4697 57.2758 44.2605 57.6251 43.0647C58.3686 40.7582 59.4614 37.6993 60.9438 34.4478C61.0424 34.2418 61.1364 34.0402 61.2305 33.8342H61.2663C61.2663 33.8342 61.2976 33.8252 61.32 33.8163H61.338C61.5485 33.7446 61.7724 33.6775 61.9918 33.6148M59.5599 28.2449L62.6815 27.909C62.8831 27.8911 63.0936 27.8731 63.3399 27.8507L63.434 27.8418H63.5011C63.528 27.8418 63.5594 27.8418 63.5907 27.8418C63.5638 27.8821 63.5325 27.9224 63.4967 27.9627C63.3757 28.1642 63.21 28.424 63.0622 28.6703C62.7666 29.1764 62.4442 29.7183 62.1307 30.2961C61.4947 31.4516 60.8408 32.7414 60.2183 34.1119C58.7135 37.3992 57.6789 40.5298 57.0608 42.8945C56.7742 43.8887 56.5055 44.883 56.2636 45.8907L56.1248 46.4908L56.1024 46.4774C56.1024 46.4774 55.9949 47.1089 55.4306 48.3092C55.0589 48.2778 54.6379 48.2823 54.2259 48.3092H54.1542C54.1542 48.3092 54.1228 48.3092 54.1049 48.3181C53.0614 48.3853 52.103 48.5734 52.103 48.5734H52.094C51.6327 48.6585 51.1714 48.7481 50.7191 48.86C48.7171 49.2542 46.0613 50.132 43.4771 51.7353C40.8929 53.3297 38.8865 55.2958 37.7131 56.9888C37.1174 57.7815 36.5934 58.6324 36.1769 59.5371C36.15 59.5953 36.1187 59.658 36.0918 59.7207C36.0828 59.7431 36.0739 59.779 36.0605 59.8058C36.0694 59.7297 36.0784 59.6536 36.0828 59.5774C36.1724 59.2012 36.253 58.8205 36.3426 58.4443C36.5665 57.5889 36.8308 56.626 37.1264 55.5914C37.8743 53.8403 39.0388 51.8294 40.6914 49.9573C42.756 47.5971 45.0715 45.8728 46.8182 44.6501C47.5751 44.153 48.3543 43.6872 49.1426 43.2393L49.6576 42.9482C49.7965 42.8721 49.9443 42.7915 50.0518 42.7333C50.0786 42.7153 50.1055 42.6974 50.1368 42.6795C50.1906 42.6571 50.2443 42.6213 50.2981 42.581C50.3205 42.5989 50.3473 42.6034 50.3697 42.581C50.3966 42.5586 50.4235 42.5004 50.4593 42.4287C50.6608 42.2182 50.8042 41.9585 50.6877 41.9405C50.6698 41.9405 50.6519 41.9405 50.6295 41.9405C50.6429 41.8958 50.6519 41.8554 50.6653 41.8241L50.6832 41.739L50.6922 41.7076L50.7056 41.6494C50.7191 41.5822 50.728 41.5016 50.7415 41.421C50.7504 41.3941 50.7594 41.3628 50.7594 41.3359C50.8445 40.8298 50.9609 40.3282 51.055 39.8221C51.1625 39.3205 51.3058 38.8234 51.4222 38.3263C51.991 36.4139 52.936 33.9014 54.2841 31.2859C54.6872 30.5245 55.0992 29.799 55.5202 29.1137C55.9591 28.9794 57.8804 28.424 59.542 28.2493M44.2071 35.9929C44.3101 35.9302 44.4893 35.7555 44.5699 35.6122C44.6281 35.5271 44.6908 35.4196 44.7311 35.2898C44.7849 35.1196 44.8655 34.9046 44.9371 34.7434L44.9551 34.7075C45.1476 34.2686 45.3716 33.8297 45.6269 33.4087C45.8777 32.9877 46.115 32.5533 46.4017 32.1502C46.9436 31.362 47.6512 30.4931 48.4618 29.5705C49.2993 28.6659 50.2622 27.7253 51.3506 26.8296C52.4434 25.9384 53.5585 25.186 54.611 24.55C55.668 23.9185 56.6712 23.4169 57.5445 23.0317C58.2925 22.7317 59.0583 22.4585 59.8376 22.239L60.2004 22.136C60.178 22.1584 60.1511 22.1808 60.1332 22.1987L60.1018 22.2256L59.0135 23.3587L57.979 24.5321C56.6175 26.0414 54.9827 28.2493 53.5854 30.9141C52.2015 33.5879 51.3147 36.1944 50.8669 38.174L50.5534 39.4235L50.2936 40.682C50.2533 40.8657 50.2175 41.0448 50.1906 41.2329C50.1682 41.3852 50.1413 41.5375 50.1279 41.6539C50.1279 41.6853 50.1189 41.7121 50.1145 41.748C50.101 41.7972 50.0965 41.8465 50.0965 41.9047C50.0965 41.9629 50.0965 42.0301 50.1145 42.0928C50.0159 42.1286 49.9308 42.1645 49.8637 42.1913C49.8368 42.2048 49.8054 42.2137 49.7741 42.2272C49.7562 42.2361 49.7427 42.2451 49.7427 42.2451L49.689 42.272C49.6218 42.3078 49.5457 42.3481 49.4695 42.3929C49.4427 42.4063 49.4113 42.4153 49.3844 42.4332C48.4081 42.9796 47.4497 43.5484 46.5136 44.1575C44.6684 45.2816 42.241 46.9835 40.1002 49.4288C39.3702 50.2574 38.7387 51.1217 38.2012 51.9772C38.461 51.1307 38.7342 50.2619 39.0253 49.3706C40.1674 45.8952 41.3229 42.778 42.2231 40.4715C42.6844 39.3743 43.1591 38.277 43.6562 37.1887L43.7548 36.9648C43.8667 36.7274 44.0504 36.3378 44.1578 36.1049C44.1758 36.0646 44.1892 36.0287 44.2071 35.9929ZM31.2325 65.9102C31.2325 65.9102 31.1877 65.8923 31.1653 65.8878C31.1384 65.8699 31.1071 65.8565 31.0712 65.843C29.9202 65.3907 28.7692 64.9383 27.6227 64.4681C25.4192 63.5007 22.4588 62.1974 19.2207 60.7239C15.9827 59.2505 13.0626 57.8576 10.8949 56.8275C9.88274 56.3035 8.89296 55.6989 8.1495 54.8928C8.10024 54.8345 8.05545 54.7808 8.01514 54.7226C7.86735 54.5434 7.71955 54.221 7.71955 54.0373C7.71955 53.9836 7.71955 53.9433 7.71955 53.8985V53.8895C7.80913 53.9209 7.91213 53.9478 7.95692 53.9478H7.98379C8.01066 53.9478 8.03306 53.9478 8.05097 53.9299C8.19877 54.0776 8.50332 54.3061 8.66007 54.3956C8.73621 54.4583 8.82578 54.5166 8.93327 54.5703C9.13928 54.6644 9.39905 54.7987 9.60506 54.8972L9.64537 54.9241L12.9193 56.5319C15.0063 57.6337 17.8413 59.0624 20.9808 60.5851C24.1159 62.1078 26.9777 63.4828 29.1768 64.3785C30.0411 64.7637 30.9145 65.1354 31.8013 65.4758C31.5773 65.6415 31.3847 65.7893 31.2369 65.9102M34.5064 64.1008C34.5243 64.1859 34.5467 64.2621 34.5735 64.3337H34.5467C34.5243 64.3337 34.5019 64.3337 34.4795 64.3337C34.1033 64.3516 33.7674 64.4278 33.4987 64.5442C33.2479 64.6159 33.006 64.7189 32.7866 64.8712C32.7776 64.8712 32.7686 64.8801 32.7552 64.8891C32.6388 64.9473 32.5178 65.0145 32.4059 65.0772C31.4027 64.6965 30.4039 64.28 29.4186 63.8411C27.2957 62.8289 24.4787 61.3778 21.3347 59.8596C18.1951 58.3324 15.3288 56.9843 13.1835 55.999L10.1201 54.4986L9.90961 54.3956C9.6812 54.2792 9.31843 54.1045 9.09002 53.9926C9.0318 53.9612 8.98253 53.9388 8.92879 53.9209C8.92879 53.9209 8.81682 53.8716 8.68694 53.8089C8.55258 53.7418 8.40479 53.6567 8.32417 53.5895C8.40926 53.4909 8.49436 53.3835 8.57945 53.2894C8.92879 53.0207 9.37665 52.6579 9.90066 52.2952C10.4247 51.9324 10.9173 51.6278 11.298 51.3994C11.4682 51.3278 11.6428 51.2606 11.8175 51.2024L11.9026 51.1755H11.9787C11.9787 51.1755 12.6416 50.9605 13.1566 50.9068C13.2507 50.8978 13.3313 50.8889 13.403 50.8709H13.4164C13.4164 50.8709 13.4433 50.8709 13.4612 50.8709H13.5149C14.7018 50.7948 15.8976 50.8351 17.071 50.9874C19.3506 51.3412 22.3827 52.2952 25.1549 54.2837C26.5478 55.26 27.6854 56.4155 28.6796 57.5486C28.8901 57.7815 29.0917 58.0144 29.2932 58.2428C29.0782 58.1711 28.8543 58.1039 28.6438 58.0278C27.972 57.7322 27.0852 57.3291 26.1223 56.8544C25.1594 56.3752 24.304 55.9049 23.6635 55.5511C23.3724 55.3585 23.0813 55.1615 22.7947 54.9555L22.7365 54.9152C22.6782 54.8659 22.5752 54.7898 22.5125 54.745C22.4946 54.7315 22.4812 54.7271 22.4633 54.7181C22.4633 54.7181 22.4633 54.7181 22.4498 54.7181L22.4274 54.7091C22.3692 54.6912 22.2438 54.6554 22.2169 54.6733C22.1766 54.6957 22.1453 54.9241 22.1901 55.0137C22.2035 55.0674 22.2259 55.1077 22.2707 55.1436C22.3289 55.1884 22.405 55.2421 22.4588 55.2824L22.4722 55.2958C22.7813 55.5198 23.0992 55.7347 23.4172 55.9452C24.0129 56.3931 24.8549 56.935 25.8447 57.4277C26.83 57.9158 27.7749 58.2697 28.4915 58.4667C28.7871 58.5742 29.0872 58.6772 29.3873 58.7713L29.5798 58.8295C29.6336 58.8474 29.6918 58.8608 29.7321 58.8743L29.7635 58.8832C29.7635 58.8832 29.7948 58.8922 29.8172 58.8922C29.8306 58.8922 29.8486 58.8922 29.8665 58.8922C30.4084 59.5102 30.919 60.0925 31.4161 60.5941C32.0968 61.3286 32.8269 62.0362 33.633 62.6587C33.8077 62.7886 33.9913 62.9185 34.1705 63.0439C34.3227 63.1469 34.4795 63.2499 34.6004 63.3216C34.6004 63.3216 34.6004 63.3216 34.6094 63.3216C34.6004 63.3798 34.5915 63.438 34.587 63.4962C34.5153 63.653 34.484 63.8769 34.5243 64.1098M35.0259 61.7137V61.7272C34.9139 61.9063 34.8019 62.1258 34.7392 62.287C34.7124 62.3407 34.6945 62.39 34.6855 62.4437C34.6855 62.4437 34.6855 62.4527 34.6855 62.4751C34.6765 62.4975 34.6721 62.5288 34.6721 62.5512C34.6631 62.5871 34.6586 62.6318 34.6542 62.6766C34.6228 62.6587 34.587 62.6363 34.5556 62.6184C34.5332 62.596 34.5108 62.5736 34.4795 62.5557C33.5031 61.8929 32.6343 61.0733 31.8192 60.1955C31.0533 59.3221 30.2203 58.2383 29.235 57.0694C28.2542 55.9005 27.0673 54.6599 25.6073 53.6432C24.1607 52.6131 22.6335 51.8518 21.1779 51.3322C19.7134 50.8217 18.3295 50.5395 17.1426 50.4186C16.0006 50.2708 14.8496 50.2171 13.6986 50.2798L13.4657 50.2977C13.2104 50.3156 12.7939 50.338 12.5475 50.3828C12.4804 50.3828 12.4221 50.4007 12.3729 50.4096C12.3729 50.4096 12.3594 50.4096 12.3415 50.4231C12.3146 50.4231 12.2878 50.441 12.2609 50.441C12.1221 50.4813 11.8892 50.553 11.7593 50.6067H11.7369C11.504 50.6828 11.2756 50.7724 11.0472 50.862C10.5814 50.9784 9.98127 51.2382 9.40353 51.6413C8.8213 52.0443 8.38239 52.5146 8.11815 52.9042C8.00171 53.0341 7.88974 53.164 7.78225 53.3028C7.78225 53.3028 7.76434 53.3028 7.7509 53.3028C7.76882 53.2849 7.78225 53.2625 7.79569 53.2446C7.81808 53.2178 7.84048 53.1909 7.85839 53.164C7.87183 53.1461 7.88078 53.1327 7.88078 53.1327C7.88078 53.1327 7.90766 53.0968 7.92109 53.0744C7.96588 53.0028 8.01514 52.9222 8.06441 52.8415C8.08232 52.8147 8.10472 52.7878 8.12263 52.7565L10.0574 49.6617C11.3652 47.6911 13.0805 45.0218 14.9347 42.057C16.7888 39.0921 18.437 36.3781 19.6283 34.3403L21.4421 31.4426L21.5675 31.2456C21.7019 31.0306 21.9169 30.6857 22.0468 30.4707C22.0826 30.417 22.1095 30.3633 22.1363 30.314C22.1363 30.314 22.1363 30.3006 22.1498 30.2826C22.1632 30.2603 22.1722 30.2334 22.1811 30.211C22.2035 30.1617 22.2304 30.1035 22.2573 30.0408C22.2707 30.0542 22.2796 30.0632 22.2931 30.0721C22.32 30.0945 22.3513 30.1125 22.3782 30.1125C22.3871 30.1125 22.3916 30.1125 22.4006 30.1125C22.4409 30.0945 22.4901 30.0811 22.5304 30.0677C22.5304 30.0677 22.5394 30.0677 22.5439 30.0677C22.7544 29.9915 22.9694 29.9064 23.1754 29.8169C23.4754 29.7407 23.8472 29.6064 24.2323 29.4138L24.0218 29.7004L23.0545 31.0664C21.7646 32.8131 20.1568 35.2584 18.5758 38.0531C17.0038 40.8522 15.7229 43.4722 14.8406 45.4563L13.6538 47.9374L13.403 48.4794C13.3358 48.6271 13.2641 48.7749 13.2104 48.8914C13.1969 48.9227 13.188 48.9496 13.1745 48.981C13.0044 49.2945 13.0223 49.9931 13.1745 49.908C13.291 49.8498 13.5642 49.4109 13.6896 49.2004L13.7389 49.1198L13.7568 49.0884L13.7836 49.0347C13.8195 48.963 13.8553 48.8869 13.8911 48.8063C13.909 48.7794 13.9225 48.7526 13.9359 48.7212C14.4062 47.7135 14.8809 46.7103 15.3736 45.7071C16.3723 43.7947 17.7159 41.224 19.2789 38.4472C20.8465 35.6704 22.3647 33.2117 23.5426 31.4023C24.1383 30.5469 24.7429 29.7049 25.3654 28.8764L25.4953 28.7062C25.6342 28.527 25.8626 28.2314 26.0059 28.0478C26.0417 28.003 26.0731 27.9582 26.0999 27.9134C26.0999 27.9134 26.0999 27.9045 26.1134 27.8911C26.2209 27.7836 26.3283 27.6761 26.4358 27.5641L26.5209 27.4745C26.5433 27.4477 26.5657 27.4208 26.5836 27.4029C26.5836 27.4029 26.5926 27.3939 26.5926 27.385C26.5926 27.385 26.5926 27.3671 26.5926 27.3581C26.606 27.3581 26.6195 27.3447 26.6329 27.3402C26.7269 27.3088 26.8031 27.2551 26.9016 27.1879C27.0181 27.0939 27.1927 27.0043 27.3316 26.9416L27.3674 26.9326C28.1512 26.6191 29.0738 26.6191 29.974 26.7266C31.7251 26.9416 34.063 27.5014 36.4098 28.6614C38.7656 29.7945 40.6421 31.2948 41.9096 32.5309C42.1783 32.7952 42.4246 33.0773 42.6665 33.3639C42.9173 33.6461 43.1457 33.9372 43.3696 34.2418L43.6607 34.6314C43.7369 34.7434 43.813 34.8553 43.8712 34.9404C43.8891 34.9628 43.9026 34.9852 43.9205 35.0031C43.9653 35.0927 44.0548 35.1733 44.1578 35.245C44.1578 35.2629 44.1489 35.2763 44.1444 35.2942C44.0414 35.3704 43.9339 35.4644 43.8578 35.5674C43.7637 35.6704 43.6697 35.8093 43.5935 35.9705C43.495 36.181 43.3651 36.4676 43.2621 36.6781L43.2397 36.7274C42.7112 37.8919 42.1917 39.0653 41.6991 40.2476C40.6735 42.5138 39.4239 45.6265 38.2774 49.1243C37.4891 51.5607 36.8442 53.8627 36.356 55.8691C36.356 55.8691 36.3471 55.8825 36.3471 55.887C36.253 56.1737 36.1724 56.4424 36.1008 56.7111C35.832 57.6068 35.635 58.5249 35.5275 59.4565V59.4699C35.3797 60.1059 35.2364 60.7508 35.102 61.3957L35.0348 61.7137H35.0259ZM70.8685 38.6398C70.77 39.1593 70.5685 39.6564 70.3311 40.1536L68.8263 43.1677C67.8275 45.1069 66.6586 47.3866 65.3687 49.8946C64.7328 51.1486 64.061 52.4698 63.3713 53.8268C63.0309 54.5076 62.6771 55.2018 62.3233 55.9049C61.965 56.6126 61.6246 57.3336 61.2305 58.0054C60.8363 58.6772 60.3885 59.2997 59.8376 59.7834C59.2957 60.2626 58.6418 60.612 57.9566 60.8852C57.2758 61.1629 56.5637 61.3644 55.8561 61.5704C55.1485 61.7809 54.4587 61.9824 53.7825 62.184C51.0818 62.9901 48.6275 63.7246 46.536 64.3472L41.2019 65.8833L40.0464 66.2148C39.7285 66.3088 39.4105 66.3984 39.1642 66.4656C39.097 66.488 39.0343 66.5059 38.9761 66.5238H38.9671C38.9268 66.5372 38.882 66.5507 38.8372 66.5641C38.6894 66.4253 38.461 66.2103 38.1654 65.9684C38.1654 65.955 38.1565 65.9505 38.1475 65.9416L38.1341 65.9236H38.1251L38.1161 65.9102C38.1161 65.9102 38.0848 65.8878 38.0669 65.8744C38.0669 65.8744 38.0534 65.861 38.049 65.8565C37.9415 65.7803 37.834 65.7042 37.722 65.6325C37.722 65.6325 37.7041 65.6236 37.7041 65.6146C37.525 65.4847 37.3324 65.3414 37.1219 65.2115C37.0995 65.1936 37.0726 65.1802 37.0458 65.1578C36.674 64.8936 36.1859 64.6204 35.5812 64.4547C35.4961 64.4323 35.42 64.4099 35.3394 64.3964C35.3304 64.3964 35.3215 64.3964 35.317 64.3964C35.317 64.3964 35.308 64.3964 35.3036 64.3964C35.317 64.2621 35.3036 64.1188 35.2812 63.9665C35.2543 63.8187 35.214 63.6754 35.1513 63.5589C35.1513 63.541 35.1423 63.5321 35.1334 63.5186C35.1334 63.5052 35.1334 63.4962 35.1423 63.4783V63.4649C35.1423 63.4649 35.1423 63.4559 35.1423 63.4514C35.1737 63.3708 35.205 63.2768 35.2364 63.1872C35.2364 63.1693 35.2498 63.1469 35.2543 63.129C35.2991 62.9946 35.3349 62.8692 35.3618 62.7796C35.3752 62.7483 35.3797 62.7125 35.3931 62.6811C35.3931 62.6587 35.4021 62.6408 35.4021 62.6408L35.42 62.5736C35.4379 62.4841 35.4558 62.3945 35.4737 62.2915C35.4872 62.2556 35.4961 62.2243 35.5051 62.1885C35.523 62.1034 35.5409 62.0228 35.5588 61.9377C35.5588 61.9377 35.5723 61.9197 35.5768 61.9153L35.5992 61.8839C36.1545 61.0912 36.9875 60.4866 37.8206 59.8954C38.2236 59.6088 38.7029 59.3535 39.1821 59.0534C39.6882 58.7802 40.2077 58.4622 40.7899 58.198C41.9275 57.6247 43.2218 57.0963 44.6192 56.6573C47.3959 55.7661 50.0607 55.4481 52.0358 55.3765C52.4568 55.3585 52.8733 55.3765 53.2943 55.3944C53.7108 55.4033 54.1318 55.4436 54.5483 55.4839L55.0678 55.5332H55.0947C55.2246 55.5556 55.359 55.578 55.4664 55.5914C55.4888 55.6049 55.5023 55.6093 55.5202 55.6228C55.5202 55.6228 55.5202 55.6228 55.5202 55.6362L56.0173 55.9228C56.3039 56.1737 56.716 56.4603 57.1862 56.738C57.661 57.0156 58.1088 57.2306 58.4627 57.365L58.5522 57.4142C58.0327 57.8934 57.3743 58.2383 56.6846 58.507C55.7531 58.825 54.5976 59.134 53.357 59.5192C52.1075 59.8999 50.7504 60.3254 49.3307 60.7822C46.4867 61.6913 43.9205 62.5647 42.0171 63.2409L39.2403 64.1367L39.0522 64.1949C38.8417 64.2621 38.5147 64.3696 38.3087 64.4367C38.255 64.4547 38.2102 64.4681 38.1654 64.4905C38.1654 64.4905 38.152 64.4905 38.1385 64.5039C38.1206 64.5174 38.0982 64.5263 38.0803 64.5353C37.928 64.6114 37.6325 64.7682 37.6101 64.8174C37.5832 64.8756 37.9415 65.0279 38.1923 65.01C38.3043 65.019 38.4386 65.001 38.5819 64.9563C38.7656 64.898 39.0029 64.8219 39.1865 64.7637L39.2269 64.7547L42.1962 63.8008C44.1355 63.2454 46.7331 62.4572 49.5725 61.548C50.9923 61.0912 52.3493 60.6478 53.5809 60.2268C54.817 59.8013 55.9322 59.4475 56.8951 59.0534C57.6789 58.7489 58.4671 58.3324 59.0897 57.7009C59.1792 57.674 59.3405 57.5262 59.3673 57.4411C59.3763 57.4232 59.3673 57.4053 59.3673 57.3874C59.4256 57.3157 59.4883 57.253 59.542 57.1769C59.6361 57.0425 59.7256 56.8947 59.7883 56.7827C59.8063 56.7514 59.8152 56.7245 59.8286 56.6932C59.9093 56.5499 59.9406 56.3304 59.9182 56.1378C59.9451 56.0706 59.9764 56.0035 60.0123 55.9318C60.0302 55.9139 60.0391 55.887 60.0526 55.8601L61.2887 53.2357C62.1486 51.5651 63.2593 49.2989 64.4417 46.7775C65.6106 44.265 66.6944 41.9764 67.3169 40.1715C67.6484 39.3205 67.9395 38.4472 68.1679 37.556L68.2127 37.3723C68.2619 37.1708 68.3336 36.8528 68.3739 36.6513C68.3829 36.5975 68.3918 36.5572 68.3918 36.508V36.4856C68.3918 36.4632 68.3918 36.4363 68.3918 36.4184C68.3918 36.3422 68.3918 36.2392 68.3829 36.1407C68.4232 36.1228 68.468 36.1094 68.5172 36.0959C68.7367 36.0377 69.0054 36.0287 69.2338 36.0422H69.2428C69.4398 36.0735 69.6817 36.1273 69.9235 36.2348C70.2505 36.3646 70.5595 36.7229 70.6983 37.0633L70.7297 37.1394C70.9088 37.6007 70.9357 38.1337 70.8416 38.6398" fill="#9358FF"/>
<path d="M39.3208 63.2323C39.3835 63.2547 39.4597 63.2547 39.5313 63.2323C39.6254 63.1965 39.7463 63.1562 39.8359 63.1248C39.8448 63.1248 39.8493 63.1248 39.8583 63.1203L41.3586 62.5695C42.3529 62.2739 43.6696 61.835 45.1028 61.3065C46.5359 60.778 47.8258 60.2585 48.7753 59.842L50.0069 59.3896L50.2756 59.2911C50.3473 59.2642 50.4234 59.2374 50.4772 59.215C50.4906 59.2105 50.5085 59.2015 50.5219 59.197C50.6877 59.1612 50.8623 58.7716 50.7638 58.691C50.6877 58.6327 50.4368 58.6596 50.3204 58.673C50.307 58.673 50.2891 58.673 50.2756 58.6775C50.2667 58.6775 50.2577 58.6775 50.2577 58.6775C50.2577 58.6775 50.2398 58.682 50.2308 58.6865C50.195 58.6999 50.1592 58.7134 50.1189 58.7268C50.1054 58.7268 50.0875 58.7313 50.0741 58.7357L48.5737 59.2866C47.5795 59.5822 46.2627 60.0211 44.8296 60.5496C43.3964 61.0781 42.1066 61.5976 41.1616 62.0141L39.7597 62.5292L39.6657 62.565C39.5627 62.6053 39.397 62.6635 39.2895 62.7038C39.2626 62.7128 39.2402 62.7262 39.2178 62.7396C39.2178 62.7396 39.2134 62.7397 39.2044 62.7486C39.1954 62.7576 39.182 62.762 39.173 62.771C39.1014 62.8247 38.9626 62.9412 38.9581 62.9815C38.9536 63.0352 39.1865 63.2233 39.3208 63.2368" fill="#9358FF"/>
<path d="M39.4774 61.2392C39.5445 61.2616 39.6162 61.2661 39.6923 61.2392C39.7909 61.2079 39.9163 61.1721 40.0103 61.1407C40.0193 61.1407 40.0282 61.1407 40.0327 61.1407L41.6047 60.6436C42.6438 60.3838 44.0187 59.9942 45.5235 59.5194C47.0284 59.0447 48.3809 58.5744 49.3752 58.1893L50.665 57.7817L50.9427 57.6922C51.0188 57.6698 51.0995 57.6429 51.1577 57.625C51.1756 57.6205 51.189 57.6115 51.2025 57.6071C51.3727 57.5757 51.5787 57.1905 51.4802 57.1099C51.404 57.0472 51.1443 57.0651 51.0233 57.0741C51.0099 57.0741 50.992 57.0741 50.9785 57.0786C50.9651 57.0786 50.9606 57.0786 50.9606 57.0786C50.9517 57.0786 50.9427 57.0786 50.9293 57.0831C50.8934 57.0965 50.8531 57.1055 50.8128 57.1189C50.7949 57.1189 50.7815 57.1189 50.768 57.1278L49.196 57.625C48.157 57.8803 46.782 58.2744 45.2772 58.7491C43.7724 59.2238 42.4198 59.6941 41.4256 60.0793L39.9566 60.545L39.8581 60.5764C39.7461 60.6122 39.5759 60.666 39.4639 60.7018C39.4371 60.7108 39.4102 60.7197 39.3878 60.7331C39.3878 60.7331 39.3833 60.7331 39.3744 60.7421C39.3654 60.7511 39.352 60.7555 39.343 60.7645C39.2669 60.8182 39.1191 60.9257 39.1101 60.966C39.1012 61.0198 39.3296 61.2168 39.4684 61.2348" fill="#9358FF"/>
<path d="M27.5822 30.1843C27.6405 30.2291 27.7166 30.2649 27.8107 30.2784C27.9271 30.3008 28.0838 30.3276 28.2003 30.35L28.2272 30.359L29.1766 30.574L30.1127 30.8382C31.2995 31.2547 32.8581 31.9175 34.4525 32.8625C36.0424 33.8165 37.3726 34.8645 38.2997 35.711C38.6759 36.0872 39.0431 36.4723 39.3924 36.8754C39.4686 36.9605 39.5447 37.0456 39.6164 37.1396C39.6746 37.2113 39.7373 37.2874 39.7821 37.3457L39.8179 37.386C39.9299 37.5561 40.3554 37.695 40.3733 37.5785C40.3867 37.489 40.2344 37.2247 40.1628 37.0993L40.1359 37.0501L40.1269 37.0322L40.1045 37.0008C40.0777 36.965 40.0418 36.9247 40.0105 36.8844C40.0015 36.8664 39.9926 36.853 39.9791 36.8396C39.5537 36.3335 39.1013 35.8453 38.6311 35.3795C37.7577 34.4345 36.4231 33.297 34.7839 32.3161C33.1358 31.3443 31.5011 30.7217 30.256 30.3948C29.6603 30.2157 29.0602 30.0589 28.4511 29.929L28.3257 29.9022C28.1869 29.8798 27.9719 29.8395 27.8375 29.8171C27.8017 29.8126 27.7703 29.8081 27.739 29.8081C27.739 29.8081 27.73 29.8081 27.7211 29.8081H27.6763C27.5688 29.8081 27.3538 29.8215 27.327 29.8484C27.2911 29.8842 27.4479 30.1171 27.5912 30.1888" fill="#9358FF"/>
<path d="M24.7828 35.0255C24.85 35.0703 24.9351 35.1106 25.0381 35.1285C25.1724 35.1554 25.3426 35.1912 25.4725 35.2136L25.5038 35.2226C26.216 35.3614 26.9281 35.5048 27.6357 35.666C28.9927 36.0332 30.82 36.5304 32.6742 37.4037C34.5328 38.277 36.0152 39.437 36.9513 40.4536C37.3409 40.8926 37.6768 41.3718 37.9769 41.8734C38.0396 41.9809 38.1068 42.0883 38.165 42.2048C38.2143 42.2988 38.259 42.3929 38.2994 42.4646C38.3083 42.4825 38.3217 42.5004 38.3307 42.5183C38.4024 42.7288 38.792 43.0065 38.8368 42.89C38.8681 42.8005 38.7786 42.469 38.7293 42.3123L38.7069 42.2541L38.698 42.2317L38.68 42.1958C38.6576 42.1511 38.6308 42.0973 38.6039 42.048C38.5994 42.0301 38.5905 42.0077 38.577 41.9898C38.2277 41.3315 37.7933 40.7134 37.3096 40.1536C36.4138 39.0205 34.8866 37.7396 32.9518 36.8349C31.0215 35.9257 29.1316 35.4868 27.7432 35.2181C27.0759 35.0658 26.4041 34.9315 25.7367 34.7971L25.5979 34.7703C25.4456 34.7434 25.2083 34.6941 25.0605 34.6672C25.0202 34.6583 24.9888 34.6538 24.953 34.6538C24.953 34.6538 24.944 34.6538 24.9351 34.6538H24.8858C24.7649 34.6538 24.532 34.6538 24.5006 34.6807C24.4603 34.712 24.6305 34.9539 24.7873 35.03" fill="#9358FF"/>
<path d="M35.9082 43.8844C35.9082 43.8844 35.9396 43.8933 35.953 43.8978C36.1098 43.9784 36.486 43.862 36.4501 43.7545C36.4233 43.6739 36.2083 43.535 36.1053 43.4723C36.0919 43.4634 36.0784 43.4544 36.065 43.4499C36.056 43.4454 36.0515 43.441 36.0515 43.441C36.0426 43.4365 36.0336 43.432 36.0247 43.4275C35.9888 43.4141 35.9485 43.4007 35.9082 43.3827C35.8948 43.3738 35.8814 43.3693 35.8679 43.3604L34.3317 42.7602C33.3554 42.3213 32.0342 41.7704 30.5652 41.2016C29.0962 40.6284 27.7481 40.1402 26.736 39.8043L25.2983 39.2445L25.1998 39.2087C25.0923 39.1683 24.9221 39.1012 24.8146 39.0609C24.7877 39.0519 24.7609 39.0429 24.7385 39.0385C24.7385 39.0385 24.734 39.0385 24.725 39.0385C24.7116 39.0385 24.6982 39.0385 24.6892 39.034C24.5996 39.0205 24.4205 39.0026 24.3936 39.025C24.3578 39.0519 24.4295 39.3027 24.5325 39.3923C24.5728 39.4415 24.631 39.4863 24.7027 39.5177C24.7967 39.5535 24.9221 39.6028 25.0117 39.6431C25.0206 39.6431 25.0251 39.652 25.0341 39.652L26.5702 40.2522C27.5466 40.6911 28.8678 41.242 30.3368 41.8107C31.8058 42.384 33.1539 42.8722 34.166 43.2081L35.429 43.7007L35.7022 43.8082C35.7784 43.8396 35.8545 43.8664 35.9127 43.8888" fill="#9358FF"/>
<path d="M33.6149 48.2469L33.6015 48.2335L33.5791 48.2111C33.5477 48.1842 33.5164 48.1528 33.485 48.126C33.4761 48.1125 33.4626 48.0991 33.4537 48.0901C33.0193 47.7139 32.5759 47.3556 32.1146 47.0153C31.2547 46.3076 29.9962 45.4791 28.5003 44.7759C26.9999 44.0818 25.5533 43.6608 24.4606 43.4548C23.941 43.3338 23.4126 43.2263 22.8841 43.1368L22.7766 43.1189C22.6557 43.1009 22.4676 43.0785 22.3511 43.0606C22.3198 43.0606 22.2929 43.0562 22.266 43.0562C22.266 43.0562 22.2615 43.0562 22.2526 43.0562H22.2123C22.1182 43.0696 21.9346 43.092 21.9122 43.1189C21.8809 43.1547 22.0197 43.3786 22.1451 43.4458C22.1988 43.4861 22.266 43.5175 22.3422 43.5264C22.4452 43.5398 22.5795 43.5622 22.6781 43.5757H22.7004C23.2513 43.6697 23.8022 43.7817 24.3486 43.9071C25.3921 44.2116 26.776 44.6864 28.2271 45.3582C29.6782 46.0389 30.9277 46.7869 31.8324 47.3915C32.1997 47.6647 32.5624 47.9513 32.9162 48.2469C32.9924 48.3096 33.0685 48.3723 33.1447 48.4395C33.2074 48.4932 33.2656 48.5514 33.3148 48.5917L33.3552 48.6231C33.4716 48.7575 33.8747 48.7888 33.8836 48.6768C33.8836 48.5918 33.7269 48.3813 33.6463 48.2827L33.6149 48.2469Z" fill="#9358FF"/>
<path d="M30.3052 50.0293L30.2738 50.0158L30.2604 50.0113L30.238 50.0069C30.2111 49.9979 30.1798 49.9934 30.1529 49.9845C30.1439 49.98 30.135 49.9755 30.1216 49.971C29.7364 49.8725 29.3557 49.765 28.975 49.6575C28.254 49.3888 27.2821 49.0395 26.2251 48.6274C25.1682 48.2154 24.2187 47.8168 23.5066 47.5212C23.1752 47.3555 22.8437 47.1853 22.5168 47.0107L22.4496 46.9748C22.378 46.9345 22.2615 46.8718 22.1899 46.8315C22.172 46.8225 22.154 46.8136 22.1361 46.8091C22.1361 46.8091 22.1361 46.8091 22.1227 46.8091H22.0958C22.0958 46.8091 22.0824 46.8002 22.0734 46.8002L22.0645 46.9032C22.0197 46.8673 21.9659 46.8315 21.9211 46.8225L21.6479 46.7554L21.8898 47.1316V47.1405H21.8988C21.9167 47.1898 21.9525 47.2301 22.0018 47.2615C22.0645 47.2973 22.1496 47.3465 22.2167 47.3824L22.2302 47.3913C22.584 47.5839 22.9423 47.7675 23.3006 47.9422C23.9768 48.3363 24.9174 48.8021 25.9922 49.2276C27.0716 49.6441 28.0793 49.9442 28.8451 50.1099C29.1631 50.1994 29.4811 50.2935 29.7991 50.3741L30.0051 50.4279C30.0633 50.4413 30.1216 50.4547 30.1663 50.4682H30.2022V50.4771C30.3231 50.5264 30.5963 50.3428 30.5694 50.2487C30.547 50.177 30.3813 50.083 30.3052 50.0427" fill="#9358FF"/>
<path d="M48.305 32.5535C48.3498 32.5535 48.3946 32.5401 48.4304 32.5087C48.4752 32.4684 48.529 32.4147 48.5738 32.3699L48.5827 32.3609C48.8156 32.137 49.0575 31.9131 49.2948 31.6981C49.8009 31.3174 50.4772 30.8113 51.2206 30.256C51.982 29.7186 52.6672 29.2304 53.1823 28.8676C53.4152 28.7333 53.6436 28.5989 53.881 28.4735L54.0332 28.3929C54.0735 28.3705 54.1183 28.3481 54.1497 28.3302L54.1721 28.3167C54.2706 28.2854 54.3199 27.9808 54.2437 27.9271C54.1855 27.8823 54.0288 27.9092 53.9571 27.9271H53.9302L53.9213 27.9361L53.9034 27.945C53.881 27.954 53.8586 27.9674 53.8362 27.9808C53.8272 27.9808 53.8183 27.9853 53.8093 27.9898C53.5182 28.1466 53.2271 28.3078 52.9404 28.4735C52.3582 28.7512 51.6103 29.1901 50.8355 29.7499C50.0651 30.3142 49.4202 30.892 48.9768 31.3622C48.7439 31.5682 48.52 31.7787 48.2961 31.9937L48.2513 32.0385C48.202 32.0878 48.1214 32.1639 48.0766 32.2132C48.0632 32.2266 48.0542 32.24 48.0453 32.2535C48.0453 32.2535 48.0453 32.2535 48.0453 32.2624L48.0363 32.2848C48.0139 32.3386 47.9736 32.446 47.9871 32.4729C48.005 32.5087 48.2155 32.5894 48.305 32.567" fill="#9358FF"/>
<path d="M45.5595 36.7949C45.5999 36.8039 45.6357 36.7994 45.6581 36.7815C45.6894 36.7546 45.7297 36.7188 45.7611 36.6919H45.77C45.9402 36.5396 46.1149 36.3963 46.294 36.262C46.6747 36.038 47.1763 35.7335 47.7406 35.4245C48.305 35.1154 48.829 34.8557 49.2231 34.6541C49.3978 34.5914 49.5724 34.5287 49.7516 34.475L49.868 34.4392C49.8994 34.4302 49.9307 34.4213 49.9576 34.4123L49.9755 34.4033C50.0472 34.4033 50.1054 34.1301 50.0561 34.054C50.0203 33.9958 49.8994 33.9779 49.8456 33.9734H49.8232H49.8143H49.8008C49.7829 33.9734 49.7695 33.9823 49.7516 33.9868C49.7426 33.9868 49.7381 33.9868 49.7292 33.9868C49.5052 34.054 49.2813 34.1301 49.0574 34.2108C48.6095 34.3182 48.0273 34.5332 47.4271 34.8602C46.8315 35.1871 46.3388 35.5678 46.0074 35.8858C45.8327 36.0201 45.6626 36.159 45.4924 36.3023L45.4565 36.3336C45.4207 36.365 45.3625 36.4187 45.3267 36.4501C45.3177 36.459 45.3087 36.468 45.3043 36.4769C45.3043 36.4769 45.3043 36.4769 45.3043 36.4814V36.4993C45.2864 36.5396 45.2595 36.6247 45.2774 36.6516C45.2953 36.6874 45.4834 36.7949 45.5551 36.7949H45.5595Z" fill="#9358FF"/>
<path d="M43.4412 41.981C43.4009 42.0213 43.3337 42.0885 43.2934 42.1288C43.2844 42.1378 43.2755 42.1512 43.271 42.1647C43.271 42.1647 43.271 42.1646 43.271 42.1691L43.262 42.187C43.2441 42.2363 43.2172 42.3304 43.2307 42.3528C43.2531 42.3886 43.4546 42.4737 43.5308 42.4647C43.5755 42.4647 43.6114 42.4602 43.6382 42.4334C43.6741 42.3975 43.7189 42.3528 43.7547 42.3214H43.7636C43.9562 42.1333 44.1578 41.9542 44.3593 41.784C44.7937 41.4973 45.3715 41.1166 46.0343 40.7494C46.7016 40.3866 47.3242 40.0955 47.8034 39.885C48.0094 39.8178 48.2199 39.7551 48.4349 39.6969L48.5737 39.6611C48.6095 39.6521 48.6499 39.6432 48.6812 39.6387L48.7036 39.6297C48.7887 39.6297 48.8827 39.3565 48.8335 39.2804C48.7932 39.2222 48.6588 39.2043 48.5961 39.1953H48.5737H48.5648H48.5513C48.5334 39.1953 48.511 39.2043 48.4886 39.2087C48.4797 39.2087 48.4707 39.2087 48.4662 39.2087C48.1975 39.2759 47.9288 39.3521 47.6645 39.4416C47.1361 39.5581 46.4419 39.8044 45.7342 40.1896C45.0311 40.5792 44.4534 41.036 44.0727 41.4212C43.8711 41.5869 43.6785 41.7616 43.4904 41.9407L43.4501 41.9765L43.4412 41.981Z" fill="#9358FF"/>
<path d="M24.5503 59.282L24.51 59.2552L24.4966 59.2462L24.4697 59.2328C24.4339 59.2149 24.398 59.2014 24.3577 59.1835C24.3443 59.1746 24.3309 59.1656 24.3174 59.1611C23.8248 58.9327 23.3321 58.6953 22.8484 58.4535C21.9258 57.934 20.6987 57.2263 19.3685 56.4112C18.0384 55.5916 16.856 54.8124 15.9737 54.2257C15.5661 53.9211 15.1586 53.6121 14.76 53.2986L14.6794 53.2359C14.5898 53.1642 14.4465 53.0523 14.3614 52.9806C14.339 52.9627 14.3166 52.9492 14.2942 52.9358C14.2942 52.9358 14.2897 52.9358 14.2808 52.9269L14.2449 52.9089C14.1643 52.8731 13.9986 52.797 13.9673 52.8104C13.9225 52.8238 13.918 53.0836 13.9852 53.2001C14.0076 53.2628 14.0479 53.321 14.1106 53.3702C14.1912 53.4329 14.2897 53.518 14.3703 53.5807L14.3883 53.5987C14.8227 53.939 15.2571 54.2704 15.7005 54.6019C16.5291 55.2781 17.689 56.1246 19.0371 56.9531C20.3852 57.7772 21.6661 58.4356 22.6424 58.8655C23.0455 59.0671 23.453 59.2686 23.8606 59.4567L24.1248 59.5821C24.1965 59.6135 24.2726 59.6493 24.3309 59.6762L24.3756 59.6941C24.5279 59.7837 24.9086 59.6896 24.8773 59.5821C24.8549 59.5015 24.6488 59.3537 24.5503 59.282Z" fill="#9358FF"/>
<path d="M64.2087 41.5423C64.1639 41.5557 64.1236 41.5826 64.0968 41.6274C64.0654 41.6856 64.0206 41.7573 63.9893 41.811C63.9893 41.811 63.9803 41.82 63.9803 41.8245L63.4653 42.7336C63.0846 43.2935 62.6054 44.0683 62.1127 44.9371C61.6201 45.806 61.1991 46.6121 60.9124 47.2257L60.487 47.9736L60.3929 48.1349C60.3661 48.1797 60.3437 48.2244 60.3213 48.2603C60.3168 48.2692 60.3123 48.2782 60.3078 48.2871C60.2362 48.3722 60.3526 48.6633 60.4511 48.6678C60.5228 48.6678 60.6482 48.5559 60.702 48.5021C60.7109 48.4932 60.7154 48.4887 60.7243 48.4797C60.7288 48.4752 60.7333 48.4708 60.7333 48.4708C60.7333 48.4708 60.7423 48.4618 60.7467 48.4529C60.7602 48.4305 60.7736 48.4081 60.787 48.3857C60.796 48.3767 60.8005 48.3722 60.805 48.3633L61.32 47.4541C61.7007 46.8943 62.1754 46.1195 62.6726 45.2506C63.1652 44.3818 63.5862 43.5756 63.8728 42.962L64.3565 42.1111L64.3879 42.0529C64.4237 41.9902 64.4819 41.8872 64.5178 41.8245C64.5267 41.8066 64.5312 41.7931 64.5357 41.7752C64.5357 41.7752 64.5357 41.7752 64.5357 41.7662C64.5357 41.7573 64.5357 41.7483 64.5357 41.7439C64.5446 41.6856 64.5581 41.5647 64.5357 41.5423C64.5088 41.511 64.2804 41.493 64.1998 41.5423" fill="#9358FF"/>
<path d="M9.905 39.2267C10.3663 38.9759 10.8142 38.7072 11.2576 38.4251L11.5442 38.2414C11.6203 38.1877 11.7009 38.1384 11.7592 38.0981L11.8039 38.0668C11.8801 38.022 11.9428 37.9145 11.9831 37.8025C12.1175 37.713 12.2429 37.6279 12.3324 37.5607C12.3638 37.5428 12.3951 37.5204 12.4265 37.5025C12.4489 37.4846 12.4623 37.4756 12.4623 37.4756L12.5205 37.4263C12.5922 37.3681 12.6683 37.2965 12.7534 37.2293C12.7848 37.2114 12.8161 37.189 12.8475 37.1621L15.9736 34.5376C18.0427 32.8939 20.7881 30.6502 23.7843 28.1332C24.7293 27.3404 25.6519 26.5567 26.5297 25.8132C26.6775 25.6878 26.8298 25.5579 26.9731 25.4325C28.0838 24.4875 29.1229 23.5918 30.0544 22.7901C30.1888 22.6782 30.3097 22.5662 30.4307 22.4632C30.7934 22.1497 31.1293 21.8496 31.4518 21.5675L34.3719 19.1087L34.5779 18.9385C34.7973 18.7594 35.1467 18.4638 35.3616 18.2802C35.4199 18.2354 35.4647 18.1906 35.5139 18.1458C35.5139 18.1458 35.5229 18.1368 35.5363 18.1189C35.5587 18.101 35.5811 18.0786 35.599 18.0517C35.7513 17.8905 36.0379 17.5725 36.0514 17.5143C36.0648 17.4382 35.6035 17.4919 35.3213 17.6487C35.187 17.7024 35.0347 17.7965 34.8914 17.9263C34.6943 18.0876 34.4435 18.2936 34.2509 18.4503L34.2062 18.4862L31.0801 21.1107C30.8561 21.2853 30.6232 21.4734 30.3814 21.675C30.3187 21.2316 30.2381 20.7927 30.1306 20.3582C29.9246 19.2251 29.4364 17.6576 28.2764 16.2961C27.1165 14.9257 25.5444 14.2359 24.371 14.0881C23.8022 13.9717 23.22 13.9404 22.6378 14.0165H22.6288L22.6199 14.012C22.6199 14.012 22.1899 14.0702 21.7913 14.1419C22.1048 13.6806 22.4049 13.2372 22.6781 12.8252C23.3454 11.8712 23.9993 10.9173 24.6487 9.95884L25.0787 9.33184C25.1906 9.16165 25.3071 8.9825 25.3967 8.85262C25.4235 8.81679 25.4459 8.78096 25.4638 8.74961C25.5265 8.66004 25.5892 8.55255 25.6385 8.43163C25.6564 8.45402 25.6743 8.46746 25.6922 8.47642C25.7505 8.53016 25.8176 8.57047 25.9072 8.58838C26.0147 8.61077 26.1625 8.6466 26.27 8.66452L26.2969 8.67795L27.1747 8.92428L28.0391 9.23778C29.1229 9.73491 30.5023 10.55 31.8146 11.71C33.1178 12.8789 34.1076 14.1464 34.7212 15.163L35.0661 15.8348C35.1735 16.0632 35.2676 16.2961 35.3661 16.5245C35.4064 16.6231 35.4512 16.7261 35.4826 16.8291C35.5094 16.9186 35.5453 17.0037 35.5632 17.0709C35.5721 17.0888 35.5766 17.0978 35.5856 17.1157V17.1247C35.6214 17.3083 36.029 17.5501 36.1051 17.4471C36.1633 17.371 36.132 17.0754 36.1141 16.9321L36.1006 16.8783V16.8559V16.8201C36.0827 16.7798 36.0648 16.7305 36.0469 16.6858C36.0469 16.6678 36.0469 16.6499 36.0334 16.632C35.926 16.3319 35.7871 16.0408 35.6662 15.7408C35.5363 15.4541 35.3796 15.1675 35.2318 14.8809C34.7078 13.7478 33.7314 12.346 32.343 11.1054C30.9502 9.88271 29.4319 9.08999 28.254 8.69587L27.412 8.38684C27.1254 8.29279 26.8343 8.22561 26.5432 8.14052L26.4267 8.10917C26.2924 8.08677 26.0864 8.04199 25.952 8.01512C25.9296 8.00168 25.8938 7.9972 25.858 8.00168C25.858 8.00168 25.849 8.00168 25.84 8.00168H25.7729C25.737 8.00168 25.6922 8.00168 25.6519 8.01512C25.634 8.01512 25.6027 8.01512 25.5892 8.02407C25.5489 8.03303 25.5086 8.04199 25.4728 8.05094C25.4638 8.05094 25.4638 8.05094 25.4638 8.05094C25.3743 8.06886 25.3026 8.10021 25.2623 8.10917C25.2623 8.11812 25.2533 8.11812 25.2533 8.11812C25.1503 8.24353 25.0518 8.36893 24.9757 8.45402C24.9533 8.48089 24.9309 8.51224 24.904 8.54359C24.8861 8.57047 24.8816 8.57942 24.8816 8.57942L24.8323 8.64212C24.7786 8.72722 24.7159 8.81231 24.6577 8.90636C24.6398 8.93771 24.6084 8.96907 24.5905 9.00042C23.7978 10.1693 23.0006 11.3248 22.1944 12.4803C20.5731 14.6838 18.392 17.6352 15.9288 20.8419C13.47 24.0442 11.1904 26.9194 9.47953 29.0602C8.63306 30.0724 7.77764 31.0711 6.91774 32.0699L6.73859 32.2759C6.54601 32.4998 6.24146 32.8492 6.04888 33.0641C5.99514 33.1179 5.95483 33.1806 5.91452 33.2254C5.91452 33.2254 5.90556 33.2433 5.89213 33.2567C5.87421 33.2881 5.8563 33.3149 5.83839 33.3373C5.78016 33.4269 5.69507 33.5478 5.61893 33.6643C5.55175 33.718 5.48009 33.7807 5.44874 33.8434C5.39948 33.9061 5.37261 33.9823 5.36365 34.0763C5.35469 34.1928 5.34573 34.345 5.34126 34.457V34.4839L5.22929 36.3739C5.16211 36.9785 5.09493 37.6951 5.02775 38.4833C4.9964 38.8774 4.96953 39.2894 4.9337 39.7149C4.91578 39.9657 4.90235 40.221 4.87995 40.4763C4.86652 40.6957 4.85756 40.9152 4.84412 41.1391L4.83517 41.3093C4.83517 41.3631 4.8083 41.4437 4.88443 41.3989L5.2069 41.3004C5.42187 41.2332 5.63685 41.166 5.84734 41.0943L6.21459 40.9689C6.42509 40.8883 6.63111 40.8122 6.83712 40.736C7.2402 40.5793 7.62537 40.4091 7.99262 40.2434C8.71816 39.9075 9.35413 39.5492 9.88261 39.2267M21.2091 15.0018C21.5629 14.8809 22.0869 14.7107 22.481 14.6166C22.5214 14.6077 22.5617 14.6032 22.593 14.5942H22.6109C23.1618 14.5181 23.7172 14.5405 24.2635 14.6525C25.3026 14.9167 26.6507 15.593 27.6763 16.8022C28.7153 18.0204 29.2528 19.4267 29.5708 20.4881C29.6827 20.9405 29.7633 21.4107 29.8216 21.8765L29.8484 22.096C29.3513 22.4946 28.8273 22.92 28.2809 23.3679C28.2585 23.238 28.2361 23.1081 28.2048 22.9782C28.1734 22.5752 28.0256 22.0377 27.7255 21.5137C27.4255 20.9897 27.0403 20.5867 26.7044 20.3538C26.5835 20.2328 26.4581 20.1209 26.3282 20.0134L26.2431 19.9462C26.2207 19.9283 26.1894 19.9104 26.1759 19.8925C26.1759 19.8925 26.1625 19.8925 26.158 19.8835C26.158 19.8745 26.1446 19.8701 26.1311 19.8701C26.0505 19.8701 25.8445 20.0179 25.8042 20.1074C25.7729 20.1836 25.8042 20.2866 25.8221 20.3314L25.8311 20.3493V20.3582L25.8624 20.3851L25.8759 20.3986C26.0192 20.515 26.158 20.6359 26.2879 20.7613C26.4984 21.0614 26.7671 21.451 27.0269 21.9034C27.2822 22.3512 27.4837 22.7857 27.636 23.1126C27.6763 23.2828 27.7121 23.4485 27.7345 23.6232L27.7435 23.659C27.7435 23.6903 27.7524 23.7441 27.7569 23.7844C27.421 24.0576 27.0806 24.3398 26.7313 24.6264C26.6148 24.3174 26.4939 24.0173 26.3685 23.7172C26.0147 22.714 25.4146 21.4107 24.5009 20.1164C24.0396 19.4715 23.5111 18.8937 22.9334 18.4638C22.3601 18.0294 21.7331 17.7651 21.1867 17.6487C20.6717 17.5143 20.1208 17.465 19.5699 17.5457C19.5341 17.5546 19.4983 17.5636 19.4624 17.5681C19.4356 17.5681 19.3997 17.5815 19.3639 17.586C20.0223 16.6768 20.6403 15.8035 21.2091 14.9884M7.15959 32.7014L7.20437 32.6566C8.12698 31.5907 9.0451 30.5203 9.94979 29.4364C11.7636 27.3763 14.1149 24.5502 16.5871 21.3301C17.4112 20.2508 18.1995 19.1983 18.9429 18.1816C18.9922 18.1995 19.0414 18.2219 19.0773 18.2219C19.1086 18.2398 19.1445 18.2443 19.1803 18.2443C19.2027 18.2443 19.234 18.2354 19.2699 18.2264C19.3594 18.1995 19.4669 18.1682 19.5565 18.1592L19.5744 18.1503C20.0536 18.0607 20.5597 18.0965 21.0434 18.2264C21.5002 18.3876 22.0018 18.6519 22.481 19.0594C22.9647 19.4625 23.4216 19.9865 23.856 20.5956C24.7204 21.8183 25.3787 23.0365 25.8356 23.9546C25.9878 24.3084 26.1267 24.6667 26.2565 25.0339C25.3116 25.8177 24.3083 26.6507 23.2827 27.5061C20.2865 30.0142 17.5904 32.3296 15.6153 34.0808L13.0401 36.2395L12.4847 36.7008C12.3324 36.8352 12.1757 36.9606 12.0637 37.0636C12.0548 37.0725 12.0458 37.0815 12.0368 37.086C12.0368 36.8396 11.9786 36.6067 11.9025 36.3783C11.8935 36.3559 11.9025 36.338 11.889 36.3112C11.8353 36.1051 11.692 35.8275 11.5039 35.6259C11.5039 35.6259 11.5173 35.617 11.5218 35.608C11.5352 35.5991 11.5442 35.5946 11.5442 35.5946C11.5442 35.5946 11.5621 35.5767 11.5755 35.5632C11.6158 35.5274 11.6606 35.4871 11.7099 35.4423C11.7278 35.4289 11.7412 35.4199 11.7636 35.402L13.4834 33.7718C14.6479 32.7686 16.1751 31.3802 17.8233 29.8216C19.4714 28.263 20.9449 26.8164 22.0108 25.7102L23.6276 24.1875L23.7351 24.0845C23.856 23.9725 24.0486 23.7934 24.1695 23.6814C24.1964 23.65 24.2277 23.6232 24.2456 23.5918C24.2456 23.5918 24.2456 23.5918 24.2591 23.5739C24.268 23.556 24.2815 23.547 24.2859 23.5291C24.3621 23.4216 24.5009 23.2067 24.4964 23.1619C24.4875 23.1036 24.1471 23.0723 23.9724 23.1619C23.8873 23.1887 23.7978 23.238 23.7172 23.3141C23.6097 23.4127 23.4664 23.547 23.3633 23.6411C23.3499 23.65 23.3454 23.6545 23.3365 23.659L21.6122 25.2892C20.4522 26.2924 18.925 27.6808 17.2769 29.2394C15.6287 30.7979 14.1552 32.2445 13.0848 33.3508L11.6696 34.6899L11.365 34.9765C11.2799 35.0571 11.1949 35.1377 11.1277 35.196C11.1098 35.2139 11.0963 35.2273 11.0784 35.2497C11.0426 35.2721 11.0157 35.3124 10.9844 35.3572C10.9261 35.3482 10.8634 35.3438 10.8142 35.3438C10.8052 35.3259 10.8007 35.3169 10.7918 35.299C10.7739 35.2542 10.7515 35.2094 10.7335 35.1646C10.6395 34.9855 10.5096 34.8019 10.3484 34.6361C10.008 34.2868 9.54671 34.0897 9.13019 34.045C8.9197 34.0226 8.72264 34.027 8.53453 34.0629C8.40465 34.0853 8.45392 34.0808 8.436 34.0897C8.42705 34.0987 8.41809 34.1077 8.40465 34.1121C8.40465 34.1121 8.40465 34.1032 8.39122 34.0942C8.39122 34.0942 8.40465 34.0808 8.41361 34.0763L8.43152 34.0584C8.43152 34.0584 8.45392 34.036 8.46287 34.0226C8.50766 33.9778 8.55245 33.9285 8.59723 33.8793C8.61515 33.8613 8.63306 33.8479 8.65098 33.8255L10.4335 31.8773C11.6338 30.6636 13.2102 28.9975 14.9077 27.1344C16.6095 25.2713 18.1188 23.547 19.2206 22.2437L20.8867 20.4209L20.9986 20.2955C21.124 20.1612 21.3211 19.9417 21.442 19.8074C21.4734 19.776 21.4957 19.7402 21.5226 19.7088C21.5226 19.7088 21.5316 19.6999 21.5405 19.6909C21.5495 19.673 21.5584 19.6596 21.5674 19.6372C21.6435 19.5163 21.7869 19.2744 21.7779 19.2251C21.7689 19.1624 21.4107 19.1759 21.227 19.2878C21.1375 19.3237 21.0434 19.3864 20.9583 19.4804C20.8508 19.6014 20.7075 19.7581 20.5955 19.8745C20.5866 19.888 20.5776 19.8925 20.5731 19.9014L18.7906 21.8496C17.5904 23.0633 16.0139 24.7294 14.3165 26.5925C12.6146 28.4556 11.1008 30.1799 10.0035 31.4832L8.54349 33.0865L8.22551 33.4314C8.15833 33.503 8.09115 33.5792 8.03292 33.6419C7.73733 33.3329 7.28947 33.1627 6.864 33.194H6.77442C6.77442 33.194 6.73859 33.203 6.7162 33.2075C6.864 33.0373 7.03866 32.8402 7.16854 32.6924M6.58184 40.0016C6.38478 40.0687 6.18324 40.1404 5.9817 40.212L5.71746 40.3016C5.72642 40.118 5.73538 39.9389 5.73985 39.7597C5.75777 39.3342 5.77568 38.9222 5.7936 38.5236C5.7936 38.4519 5.7936 38.3803 5.7936 38.3086C5.7936 38.3176 5.80703 38.331 5.80703 38.3355C5.82495 38.3758 5.83838 38.3937 5.84734 38.3937C5.86526 38.3937 5.87869 38.3937 5.89661 38.3937C5.97274 38.3848 6.04888 38.3803 6.12502 38.3937C6.26834 38.4788 6.42957 38.5729 6.56841 38.6983C6.70724 38.8237 6.82369 38.9715 6.9267 39.1013C6.94013 39.1596 6.94461 39.2267 6.94461 39.2894V39.3611C6.94461 39.3835 7.22677 39.4686 7.3253 39.4731C7.41039 39.4731 7.47757 39.4283 7.50444 39.4014C7.50444 39.4014 7.5134 39.4014 7.5134 39.3925V39.379V39.3521C7.5134 39.3521 7.52236 39.3432 7.52236 39.3387C7.52236 39.2133 7.50892 39.0879 7.48653 38.967C7.49996 38.7162 7.39248 38.3579 7.09241 38.0937C6.79234 37.8249 6.42061 37.7622 6.17428 37.807C6.05784 37.7936 5.94139 37.7981 5.82047 37.816H5.7936C5.80703 37.3054 5.81151 36.8307 5.81151 36.4097L5.91452 34.6451V34.5197C5.92796 34.4212 5.93244 34.2689 5.93692 34.148C5.9817 34.1121 6.22355 33.9106 6.54153 33.821C6.56393 33.821 6.5908 33.83 6.60871 33.821C6.66246 33.8031 6.72964 33.7942 6.78338 33.7897H6.79682C6.864 33.7807 6.93118 33.7807 6.99836 33.7897C7.01627 33.7897 7.03418 33.7897 7.05658 33.7986C7.1148 33.8076 7.16854 33.8345 7.22229 33.8524C7.42831 33.9464 7.57162 34.0942 7.67463 34.251C7.72838 34.3361 7.7642 34.4212 7.79108 34.5063C7.80451 34.5242 7.81347 34.5466 7.81347 34.5645C7.84034 34.6944 7.86721 34.8332 7.89856 34.9855C8.01501 34.9452 8.14041 34.9093 8.26581 34.869C8.38674 34.8287 8.57484 34.7839 8.59723 34.7929C8.72264 34.7795 8.85252 34.7929 8.98688 34.8108C9.26007 34.8601 9.53775 34.9855 9.74825 35.2049C9.84678 35.3035 9.93187 35.4199 9.99457 35.5363C10.008 35.5632 10.0214 35.5946 10.0349 35.6214C10.0483 35.6394 10.0573 35.6707 10.0841 35.7424C10.1245 35.8364 10.1468 35.9842 10.1603 36.1051C10.2543 36.0783 10.3842 36.0514 10.5634 36.038C10.7828 36.02 10.9396 36.0827 11.0471 36.1634H11.056C11.1366 36.2216 11.2217 36.3335 11.271 36.4276L11.2799 36.4455C11.3874 36.6874 11.4367 36.9561 11.4277 37.2248C11.4277 37.283 11.4188 37.3368 11.4098 37.3995C11.4009 37.4443 11.3919 37.4935 11.3874 37.5293V37.5562C11.3874 37.5562 11.3874 37.601 11.3964 37.6324L11.374 37.6458C11.3382 37.6682 11.2979 37.6995 11.2576 37.7219C11.2396 37.7309 11.2262 37.7398 11.2083 37.7443C10.6888 38.0892 10.1513 38.4116 9.60941 38.7072C9.06301 38.967 8.42257 39.2626 7.7015 39.5626C7.33873 39.706 6.96253 39.8538 6.56841 40.0016" fill="#9358FF"/>
<path d="M21.3344 16.0052C21.3433 16.05 21.3612 16.0813 21.3926 16.0903C21.4284 16.0992 21.4777 16.1127 21.509 16.1216C21.509 16.1216 21.5135 16.1216 21.518 16.1261C21.7106 16.1798 21.9032 16.2381 22.0913 16.3097C22.4361 16.5068 22.884 16.7665 23.3542 17.0845C23.8245 17.407 24.2321 17.725 24.5456 17.9668C24.6575 18.0922 24.765 18.2176 24.8636 18.3475L24.9307 18.4326C24.9486 18.455 24.9666 18.4819 24.98 18.4998C24.98 18.5043 24.989 18.5087 24.9934 18.5132C25.0113 18.5759 25.3293 18.4953 25.4055 18.4147C25.4592 18.352 25.4547 18.2355 25.4458 18.1818C25.4458 18.1728 25.4458 18.1684 25.4458 18.1594C25.4458 18.1549 25.4458 18.1504 25.4458 18.1504L25.4413 18.1415C25.4323 18.1281 25.4234 18.1146 25.4144 18.1012C25.4144 18.0922 25.4144 18.0877 25.4099 18.0833C25.2756 17.9086 25.1368 17.7384 24.989 17.5727C24.7516 17.2099 24.344 16.78 23.8155 16.4217C23.2826 16.0634 22.7317 15.8484 22.3062 15.7633C22.1137 15.6917 21.9166 15.629 21.7195 15.5752L21.6792 15.5618C21.6344 15.5528 21.5628 15.5349 21.518 15.5215C21.5046 15.5215 21.4956 15.5215 21.4867 15.5215C21.4867 15.5215 21.4867 15.5215 21.4777 15.5215L21.4598 15.5304C21.4195 15.5484 21.3389 15.5887 21.3254 15.6245C21.3075 15.6693 21.312 15.9335 21.3433 16.0052H21.3344Z" fill="#9358FF"/>
</svg>
