<svg width="75" height="76" viewBox="0 0 75 76" fill="none" xmlns="http://www.w3.org/2000/svg">
<path d="M59.054 30.6147C59.4869 28.7668 59.9431 26.9189 60.2679 25.0401C60.8864 21.4911 61.0874 17.7257 59.7034 14.3237C58.621 11.664 56.5875 9.24389 53.7731 8.36246C51.5618 7.66659 47.7036 7.82896 46.3737 10.1331C44.1238 9.57636 41.696 9.47585 39.3841 9.50677C35.2708 9.5609 30.8327 9.69234 26.9591 11.2387C25.6601 8.98874 22.4282 9.41399 20.387 10.28C17.7814 11.3779 14.9902 12.9629 14.4489 15.9551C13.8922 19.0401 14.6732 22.504 15.2067 25.5426C15.5314 27.3751 15.918 29.192 16.3742 30.9936C16.7685 32.5554 17.1242 34.3028 17.7891 35.795C17.4566 39.6378 17.0236 43.465 16.7453 47.3232C16.3742 52.5268 15.9953 58.7896 18.8175 63.4519C21.8406 68.4389 27.6317 68.1528 32.7502 67.8667C36.2064 67.6734 39.6548 67.4338 43.1032 67.1554C46.3273 66.8925 49.6907 66.8229 52.8608 66.158C60.0591 64.6658 59.371 56.2303 59.1003 50.6015C58.8684 45.7305 58.4818 40.8671 57.9406 36.0193C58.188 35.192 58.2498 34.2951 58.4199 33.4523C58.6055 32.5013 58.822 31.5657 59.0385 30.6224L59.054 30.6147ZM50.4871 8.81091C50.8118 8.77225 51.1365 8.76452 51.4613 8.76452C51.4303 8.89596 51.5231 9.05833 51.6701 9.04286C51.8865 9.0274 52.103 8.97328 52.2422 8.81864C53.0463 8.91915 53.8427 9.15111 54.5618 9.51451C55.2654 9.87017 55.8916 10.3186 56.4483 10.8444C56.4174 10.8598 56.3942 10.8753 56.3633 10.8908C56.1236 11.0377 56.2937 11.347 56.5411 11.3083C56.6416 11.2928 56.7344 11.2619 56.8272 11.2232C57.121 11.5325 57.3993 11.865 57.6545 12.2207C57.0823 12.2207 56.4174 12.4139 56.1159 12.584C55.3272 13.0325 54.0437 14.1381 53.5334 15.2206C53.3556 14.9345 53.17 14.6562 52.9767 14.3778C53.0463 14.2928 53.1082 14.2077 53.1777 14.115C53.3015 13.9371 53.4793 13.7516 53.5179 13.5273C53.5411 13.4036 53.4097 13.2644 53.286 13.3495C53.1082 13.4732 53.0077 13.6742 52.8994 13.8521C52.853 13.9294 52.8144 14.0067 52.768 14.0763C52.7525 14.0531 52.737 14.0376 52.7216 14.0144C51.6314 12.5995 50.2783 11.6253 48.7861 10.9526C48.817 10.9526 48.8479 10.9372 48.8711 10.9062C49.0258 10.7129 49.25 10.5119 49.3273 10.2722C49.366 10.164 49.2268 10.0635 49.1263 10.1176C48.9175 10.249 48.7706 10.5119 48.616 10.7129C48.5773 10.7671 48.585 10.8289 48.616 10.8753C48.0902 10.6434 47.549 10.4501 46.9923 10.2877C48.1134 9.61502 49.0799 8.95008 50.4793 8.79544L50.4871 8.81091ZM34.7218 10.4423C37.5904 10.249 40.5285 10.1331 43.3893 10.3959C46.1263 10.6434 48.9871 11.3624 51.0438 13.2876C54.0128 16.0556 54.9174 20.0685 55.5746 24.0194C53.2241 20.571 48.4768 18.553 44.6031 18.0891C40.915 17.6407 37.08 17.9499 33.392 18.3056C30.1291 18.6226 26.8895 19.3494 24.1911 21.2978C21.7401 23.0684 19.7917 25.5813 18.9489 28.4962C18.9566 26.9266 18.9798 25.3416 19.1267 23.7952C19.954 21.8081 20.9282 19.968 22.3664 18.352C23.7426 16.8056 25.3818 15.6768 27.1214 14.5866C27.2142 14.5247 27.1524 14.3469 27.0441 14.3933C23.5803 15.7928 20.5571 19.1561 19.2427 22.7128C19.4901 20.8803 19.9463 19.102 20.7968 17.4706C23.4566 12.3676 29.3946 10.8135 34.7141 10.4501L34.7218 10.4423ZM18.3613 12.1975C18.454 12.182 18.5546 12.1743 18.6551 12.182C18.8638 12.2052 19.0571 12.3366 19.2659 12.3289C19.3509 12.3289 19.4515 12.2361 19.4128 12.1356C19.3432 11.9655 19.204 11.865 19.0262 11.8031C20.1782 11.1537 21.6086 10.5042 22.9849 10.3341C23.07 10.365 23.155 10.4037 23.24 10.4346C23.4256 10.4964 23.6266 10.5892 23.8199 10.5738C23.9359 10.566 24.021 10.4191 23.9205 10.3263C23.905 10.3109 23.8895 10.3032 23.8663 10.2877C24.8174 10.3263 25.7065 10.6588 26.4178 11.4552C25.2271 11.981 24.0983 12.6382 23.0545 13.4887C22.4978 13.9449 22.003 14.4397 21.57 14.9655C21.57 14.8263 21.5081 14.6562 21.4695 14.5479C21.3844 14.3082 21.2762 14.0531 21.0829 13.8753C20.9514 13.7516 20.7736 13.8753 20.7968 14.0376C20.8432 14.3005 20.9669 14.5557 21.0365 14.8186C21.0829 14.9732 21.1679 15.2593 21.3767 15.2129C21.0751 15.5995 20.7891 15.9938 20.5416 16.4113C20.3793 15.1124 19.753 13.6588 18.4695 13.3031C17.5649 13.0557 16.5133 13.5428 15.8484 14.2851C16.4515 13.3495 17.3948 12.7541 18.3535 12.1897L18.3613 12.1975ZM17.3329 31.5503C16.9541 30.1431 16.6139 28.7204 16.3201 27.29C16.235 26.8725 16.1577 26.4472 16.0804 26.0297C16.3278 25.7668 16.5907 25.5194 16.8613 25.2797C17.101 25.0555 17.4025 24.8545 17.5804 24.5684C17.6499 24.4602 17.534 24.2901 17.4025 24.3365C17.0932 24.4524 16.8381 24.7153 16.5984 24.9395C16.3819 25.1483 16.1809 25.3648 15.9876 25.589C15.9489 25.3725 15.9025 25.1638 15.8639 24.955C15.9103 24.9473 15.9567 24.9241 15.9876 24.8777C16.1809 24.6071 16.4051 24.3519 16.6525 24.12C16.8845 23.9035 17.1628 23.7256 17.3716 23.4937C17.4566 23.3932 17.3716 23.2308 17.2402 23.2695C16.6448 23.4318 16.1422 23.9962 15.7788 24.5066C15.7324 24.2437 15.686 23.9808 15.6397 23.7102C15.8716 23.4782 16.119 23.254 16.3819 23.053C16.6602 22.8365 17.0391 22.6664 17.2711 22.4035C17.4025 22.2566 17.2711 22.0478 17.0855 22.0865C16.7298 22.1561 16.3974 22.4499 16.119 22.6664C15.9103 22.8287 15.7324 23.0143 15.5546 23.1999C15.5082 22.8829 15.4541 22.5659 15.4154 22.2489C15.4463 22.2489 15.4773 22.2334 15.5082 22.2025C16.2814 21.5298 17.2169 21.0427 17.9592 20.3314C18.0597 20.2386 17.9592 20.053 17.82 20.0994C16.8768 20.4009 16.0726 21.1509 15.3613 21.8236C15.3227 21.4989 15.2763 21.1741 15.2376 20.8494C15.9025 20.37 16.6216 19.9293 17.2324 19.3958C17.3175 19.3185 17.2324 19.1484 17.1164 19.1948C16.4206 19.4499 15.7788 19.9293 15.1912 20.4164C15.168 20.1613 15.1448 19.9061 15.1216 19.651C16.0108 19.1329 16.9309 18.6381 17.7195 17.9577C17.8355 17.8572 17.6886 17.7025 17.5649 17.7567C16.6834 18.151 15.8948 18.7309 15.1062 19.2798C15.0907 19.0015 15.0675 18.7231 15.0598 18.4371C15.0598 18.2747 15.052 18.12 15.0443 17.9577C15.8871 17.4164 16.7762 16.9061 17.5804 16.3108C17.7041 16.218 17.6422 15.9783 17.4644 16.0402C16.6061 16.3417 15.7788 16.8907 15.052 17.486C15.0598 17.1845 15.0829 16.8752 15.1216 16.5737C15.8175 16.2335 16.5443 15.785 17.1164 15.2979C17.2556 15.1819 17.0778 15.0118 16.9386 15.066C16.5056 15.2593 16.1113 15.5376 15.7092 15.7928C15.5391 15.901 15.3613 16.017 15.1912 16.133C15.2144 15.9938 15.2376 15.8469 15.2763 15.7154C15.686 15.5299 16.0649 15.267 16.3355 14.9113C16.3819 14.8495 16.3355 14.7799 16.2737 14.7644C16.7762 14.3082 17.2788 13.8675 18.052 13.9912C19.4746 14.2232 19.8767 16.0943 19.838 17.3005C19.8226 17.4242 19.8767 17.517 19.9463 17.5788C18.5391 20.6484 18.3149 24.2591 18.2608 27.6998C18.2298 29.6714 18.1139 31.6353 17.9669 33.5992C17.7505 32.9188 17.5185 32.2384 17.3329 31.558V31.5503ZM58.0952 46.9366C58.2808 49.8902 58.4818 52.8592 58.4741 55.8128C58.4741 58.6504 58.0411 61.8282 55.822 63.8539C53.603 65.8797 50.0618 65.7173 47.2397 65.9802C44.2088 66.2662 41.1702 66.5137 38.1393 66.7224C35.1084 66.9389 32.0544 67.1941 29.008 67.2327C26.3251 67.2714 23.4565 66.9853 21.3148 65.207C17.3175 61.8978 17.2324 55.6659 17.3329 50.934C17.4644 45.0037 18.4541 39.1352 18.8406 33.2203C18.918 31.9755 18.9334 30.6843 18.9411 29.3853C19.0185 29.3853 19.0958 29.3544 19.1344 29.2539C20.1318 26.6173 21.6705 24.1973 23.8741 22.419C26.3483 20.4241 29.356 19.5427 32.4642 19.1561C35.5956 18.7773 38.8352 18.584 41.9898 18.669C45.0825 18.7541 48.1675 19.3185 50.8582 20.9112C53.4948 22.4808 55.9226 24.9859 56.1854 28.1637C56.1545 28.2333 56.1391 28.3106 56.1468 28.3957C57.0514 34.5425 57.6854 40.7202 58.0798 46.9212L58.0952 46.9366ZM57.6313 33.2126C57.438 31.674 57.237 30.1353 57.0128 28.5967C57.0282 28.5503 57.0437 28.5039 57.036 28.4498C57.0128 27.4833 56.8272 26.5864 56.5025 25.7514C56.0849 22.3648 55.5282 18.8778 53.9277 15.901C54.036 15.7618 54.1288 15.6149 54.2525 15.4526C54.6468 14.9191 55.0721 14.4242 55.5592 13.9835C55.969 13.6047 56.4329 13.2103 56.9818 13.0557C57.5308 12.9011 57.8401 13.1639 58.3349 13.3186C58.3504 13.3186 58.3581 13.3186 58.3735 13.3186C58.5978 13.7284 58.7988 14.1536 58.9689 14.5866C58.1571 14.3856 57.3452 14.2 56.5102 14.0686C56.3942 14.0531 56.3401 14.2232 56.4638 14.2464C57.3452 14.4552 58.2267 14.6716 59.0849 14.9423C59.0926 14.9423 59.1003 14.9423 59.1081 14.9423C59.2395 15.2902 59.3478 15.6459 59.4483 16.0093C58.3504 15.5685 57.1442 15.2129 56.0153 14.9732C55.9071 14.95 55.8143 15.1124 55.9303 15.1665C57.0592 15.6768 58.3426 16.1484 59.5643 16.45C59.5643 16.4577 59.5643 16.4654 59.5643 16.4732C59.6648 16.9061 59.7498 17.3391 59.8117 17.7798C58.6364 17.1845 57.4303 16.6587 56.1545 16.3108C56.0076 16.2721 55.9535 16.4809 56.0927 16.535C57.3762 17.0376 58.6442 17.5556 59.8658 18.2051C59.9045 18.5762 59.9354 18.9396 59.9509 19.3108C58.9844 18.7463 57.9947 18.2438 56.9354 17.8726C56.8195 17.834 56.7344 18.0273 56.8504 18.0814C57.9251 18.553 58.9766 19.0943 59.9586 19.736C59.9663 20.2231 59.9586 20.7025 59.9354 21.1896C58.8452 20.4628 57.6932 19.8211 56.4561 19.3726C56.286 19.3108 56.17 19.5814 56.3324 19.6664C57.5772 20.2618 58.7756 20.9035 59.9045 21.6922C59.8813 21.9937 59.8503 22.2952 59.8194 22.5968C59.1004 22.0478 58.2962 21.5839 57.4612 21.2592C57.2911 21.1896 57.1828 21.4679 57.3375 21.553C58.188 22.0401 58.9766 22.5659 59.7653 23.1457C59.7266 23.4473 59.688 23.7566 59.6416 24.0581C59.5797 24.0117 59.5256 23.9576 59.4869 23.9344C59.3168 23.8262 59.1467 23.7256 58.9766 23.6251C58.6674 23.455 58.3504 23.3236 58.0256 23.1999C57.8401 23.1303 57.7318 23.4164 57.8942 23.5091C58.2962 23.7488 58.6828 24.004 59.0617 24.2746C59.2163 24.3828 59.3787 24.5529 59.5488 24.638C59.4174 25.4189 59.2627 26.1998 59.1003 26.9653C58.7679 28.473 58.3968 29.973 58.0566 31.4884C57.9329 32.0451 57.7782 32.6327 57.639 33.2281L57.6313 33.2126Z" fill="#079247"/>
<path d="M52.9768 29.3312C51.6392 26.0452 47.5877 26.2307 44.6419 26.2617C39.2064 26.3158 33.7709 26.2926 28.3431 26.4395C26.4566 26.4936 24.3612 26.6946 22.8613 27.9704C21.8561 28.8209 21.2067 30.0657 21.2762 31.3415C21.2299 31.442 21.2144 31.558 21.2299 31.6585C22.1499 36.2744 21.6319 40.9676 21.3072 45.6222C21.1525 47.9108 21.0365 50.2072 21.168 52.5035C21.2762 54.4288 21.4927 56.4545 22.4205 58.1787C24.0442 61.2019 27.5468 62.1915 30.74 62.4699C35.0389 62.841 39.4847 62.408 43.7218 61.6503C45.6238 61.3101 47.8429 61.0395 49.5748 60.1271C51.1521 59.2921 51.7088 57.6762 52.0877 56.037C53.1083 51.6067 53.6881 47.0603 53.866 42.514C53.9587 40.1558 53.9356 37.7976 53.8041 35.4394C53.6881 33.4755 53.7345 31.1714 52.9845 29.3157L52.9768 29.3312ZM53.0464 41.9186C52.9227 46.0552 52.4433 50.184 51.616 54.2432C51.2681 55.9442 51.0361 58.2406 49.4279 59.2534C47.8274 60.2586 45.5078 60.4828 43.6831 60.8153C39.7863 61.5266 35.7657 61.8745 31.7993 61.7044C28.606 61.573 24.7865 60.8539 23.1396 57.7612C22.0804 55.7819 21.9953 53.3309 21.9489 51.135C21.9102 48.9701 22.0494 46.7974 22.2118 44.6403C22.5211 40.3877 22.869 36.1198 22.1113 31.9059C32.1008 30.5142 42.2759 30.8157 52.165 32.7951C52.6907 32.9033 52.9149 32.0915 52.3892 31.991C42.3532 29.9807 32.0544 29.6791 21.9103 31.0941C22.0108 29.7178 23.0623 28.4884 24.3226 27.9008C26.1396 27.0503 28.289 27.1972 30.2374 27.1818C34.4126 27.1508 38.5801 27.1122 42.7553 27.0812C45.7939 27.058 51.1598 26.223 52.3428 30.0116C52.9149 31.8363 52.884 33.9703 52.9768 35.8646C53.0773 37.8826 53.1005 39.9084 53.0387 41.9264L53.0464 41.9186Z" fill="#079247"/>
<path d="M49.2423 37.7668C48.2913 37.6585 47.3326 37.558 46.3815 37.473C39.0672 36.7848 31.6678 36.5761 24.338 37.1328C24.0829 36.9627 23.6577 37.0632 23.6963 37.4498C23.9669 40.442 24.1525 43.4419 24.3535 46.4419C24.454 47.9496 24.5545 49.4573 24.6782 50.965C24.7788 52.2408 24.7788 53.617 25.119 54.8541C25.8071 57.3747 28.5674 57.9933 30.7941 58.5732C33.709 59.3309 36.7399 59.702 39.7476 59.6479C42.2991 59.6015 44.812 59.0989 46.4743 56.9959C48.0207 55.0397 48.7629 52.4109 49.3892 50.0372C50.1547 47.1455 50.5877 44.1533 50.6804 41.161C50.7036 40.3492 51.0438 38.6869 50.3712 38.0606C50.0774 37.79 49.6289 37.8054 49.2578 37.759L49.2423 37.7668ZM46.6599 38.2925C46.8377 38.308 47.0155 38.3235 47.1934 38.3389C47.263 38.3389 47.3712 38.3544 47.4949 38.3544C47.4795 39.4446 47.4099 40.5425 47.3557 41.6327C47.0542 41.6482 46.7527 41.6559 46.4589 41.6713C46.513 40.558 46.714 39.3905 46.6599 38.2925ZM49.8609 40.7745C49.8454 41.4162 49.8145 42.0579 49.7681 42.6997C49.6598 44.1378 49.4743 45.5759 49.2114 46.9909C48.732 49.5424 48.0439 52.1712 46.9537 54.5371C46.4743 55.5732 45.8712 56.5783 44.9975 57.3283C43.8764 58.2793 42.4074 58.635 40.9692 58.751C38.2863 58.9752 35.526 58.7201 32.8895 58.1943C31.6214 57.9391 30.3612 57.6144 29.1318 57.2201C27.771 56.7794 26.4179 56.2691 25.954 54.7846C25.5442 53.4779 25.5751 51.9547 25.4746 50.5939C25.3664 49.148 25.2659 47.6945 25.1654 46.2486C24.9721 43.3956 24.7942 40.5425 24.5391 37.6972C30.0442 37.5503 35.5415 37.5271 41.0388 37.8518C42.4074 37.9369 43.7759 38.0297 45.1444 38.1534C45.4846 38.1843 45.8248 38.2152 46.165 38.2461C45.8017 39.4136 45.8326 40.8363 45.7939 42.0115C45.7939 42.1817 45.9486 42.344 46.1187 42.3363C46.6367 42.3208 47.1547 42.2976 47.6727 42.2822C47.8583 42.2822 47.9898 42.1353 47.9975 41.9574C48.0593 40.7745 48.0903 39.5838 48.1831 38.4008C48.8789 38.4472 49.6753 38.5477 49.8609 38.8492C50.0774 39.2126 49.8763 40.3879 49.8609 40.7822V40.7745Z" fill="#079247"/>
<path d="M20.2632 13.2641C20.356 13.3956 20.4256 13.5347 20.5493 13.6353C20.6343 13.6971 20.7503 13.6275 20.7812 13.5425C20.9127 13.1636 20.4874 12.692 20.1627 12.5451C19.9617 12.4523 19.722 12.6997 19.9075 12.8775C20.039 13.0013 20.1549 13.1172 20.2555 13.2641H20.2632Z" fill="#079247"/>
<path d="M24.6783 11.9964C24.8098 12.0814 24.9567 11.9422 24.9258 11.8031C24.8794 11.5556 24.6474 11.3701 24.4928 11.1922C24.3768 11.0531 24.1758 11.2309 24.2531 11.3778C24.3691 11.5943 24.4618 11.8572 24.6783 11.9964Z" fill="#079247"/>
<path d="M54.0516 12.8392C54.2681 12.6614 54.5697 12.4835 54.7089 12.2361C54.7707 12.1279 54.6625 11.95 54.531 12.0042C54.2527 12.1201 54.0285 12.3907 53.8042 12.5918C53.6341 12.7464 53.8815 12.9784 54.0516 12.8392Z" fill="#079247"/>
<path d="M55.4742 11.7954C55.7294 11.6794 56.0464 11.5635 56.1546 11.2851C56.1855 11.2078 56.116 11.0918 56.0309 11.0764C55.7371 11.0222 55.4665 11.2387 55.2268 11.3934C54.9717 11.5635 55.1882 11.9269 55.4665 11.8031L55.4742 11.7954Z" fill="#079247"/>
<path d="M50.3481 9.77725C50.5801 9.65354 51.0285 9.39839 51.0285 9.10458C51.0285 9.04273 50.9822 8.97314 50.9203 8.95768C50.7579 8.91902 50.6497 8.9886 50.526 9.08139C50.3791 9.18963 50.2244 9.31334 50.1007 9.44478C49.9384 9.61488 50.1394 9.8855 50.3481 9.76952V9.77725Z" fill="#079247"/>
<path d="M31.2502 13.5658C32.5569 13.1174 33.8481 12.9164 35.1934 12.6457C35.3558 12.6148 35.3094 12.3674 35.1548 12.3674C33.8017 12.3442 32.4022 12.754 31.1729 13.272C30.995 13.3493 31.0646 13.6354 31.2579 13.5658H31.2502Z" fill="#079247"/>
<path d="M38.9435 12.4988C40.026 12.6998 41.1394 12.9859 42.2373 13.0245C42.4151 13.0245 42.4383 12.7694 42.276 12.723C41.2322 12.4137 40.1033 12.3364 39.0286 12.174C38.8198 12.1431 38.727 12.4524 38.9435 12.4911V12.4988Z" fill="#079247"/>
<path d="M50.255 15.6693C50.4019 15.7466 50.572 15.5533 50.4405 15.4296C49.4818 14.5713 48.206 13.9992 47.0153 13.543C46.8993 13.4966 46.8143 13.6899 46.9303 13.744C48.0823 14.3239 49.1261 15.0662 50.255 15.6693Z" fill="#079247"/>
<path d="M25.8146 40.7974C25.9074 40.5809 25.9151 40.3489 25.9074 40.117C25.9074 39.8696 25.9151 39.6144 25.861 39.3747C25.8146 39.1814 25.5131 39.1814 25.4667 39.3747C25.4126 39.6144 25.4203 39.8696 25.4203 40.117C25.4203 40.3489 25.4203 40.5809 25.5131 40.7974C25.5595 40.9133 25.7682 40.9133 25.8146 40.7974Z" fill="#079247"/>
<path d="M25.9231 43.7277C26.0391 43.2947 25.9385 42.7844 25.954 42.3359C25.9617 42.0499 25.5442 42.0576 25.5133 42.3359C25.4669 42.7844 25.4051 43.3488 25.6293 43.7663C25.6911 43.8823 25.8844 43.8591 25.9154 43.7277H25.9231Z" fill="#079247"/>
<path d="M26.4258 46.9984C26.4876 46.751 26.4103 46.5113 26.3716 46.2639C26.3252 45.9778 26.2943 45.6763 26.2943 45.3825C26.2943 45.166 25.9386 45.0964 25.9 45.3283C25.8072 45.8541 25.6835 46.6582 26.0778 47.0912C26.1861 47.2072 26.3948 47.1531 26.4258 46.9984Z" fill="#079247"/>
<path d="M26.6266 49.4649C26.6653 49.2948 26.6189 49.117 26.588 48.9469C26.5493 48.7536 26.5339 48.5603 26.5339 48.367C26.5339 48.0577 26.0777 48.0655 26.0622 48.367C26.039 48.7227 26.0313 49.3026 26.3328 49.55C26.4333 49.6273 26.5957 49.6118 26.6344 49.4727L26.6266 49.4649Z" fill="#079247"/>
<path d="M26.789 52.055C27.0519 51.6993 26.8585 51.1736 26.8431 50.7715C26.8353 50.5241 26.4642 50.5241 26.4565 50.7715C26.441 51.1736 26.2477 51.6993 26.5106 52.055C26.5879 52.1555 26.7116 52.1555 26.789 52.055Z" fill="#079247"/>
<path d="M27.4694 54.3826C27.2297 54.0501 27.0982 53.6558 27.0441 53.2537C27.0055 52.9831 26.6189 52.9676 26.6111 53.2537C26.6034 53.7331 26.7426 54.1893 27.0055 54.5913C27.2142 54.9161 27.5544 55.3568 27.9874 55.3027C28.057 55.2949 28.1189 55.2408 28.0957 55.1635C27.9797 54.8388 27.6704 54.6609 27.4771 54.3826H27.4694Z" fill="#079247"/>
<path d="M29.5726 55.9517C29.3871 55.8589 29.217 55.7352 29.0701 55.5806C28.8845 55.3795 28.5984 55.6733 28.7762 55.8744C28.9309 56.0599 29.1242 56.2223 29.3484 56.3305C29.5417 56.4233 29.8123 56.5393 30.0288 56.4543C30.1293 56.4156 30.2066 56.2687 30.0984 56.1836C29.9438 56.0599 29.7427 56.0367 29.5726 55.9517Z" fill="#079247"/>
<path d="M31.8225 56.2073C31.5982 56.215 31.5828 56.5011 31.7684 56.5784C32.2013 56.7562 32.8121 56.8645 33.2838 56.7949C33.4152 56.7794 33.4229 56.5784 33.3224 56.5243C32.9126 56.3 32.2941 56.1918 31.8225 56.2073Z" fill="#079247"/>
<path d="M35.3324 56.6635C35.1701 56.5707 34.9845 56.6094 34.8067 56.5862C34.6288 56.563 34.4355 56.5398 34.2654 56.5011C34.0953 56.4625 33.9484 56.679 34.0876 56.8027C34.2732 56.9728 34.4433 57.081 34.6984 57.1197C34.9149 57.1583 35.2087 57.1738 35.3711 57.0037C35.4716 56.9032 35.4484 56.7331 35.3247 56.6635H35.3324Z" fill="#079247"/>
<path d="M38.8818 57.3282C38.704 57.2896 38.5107 57.3282 38.3251 57.2973C38.1164 57.2664 37.9308 57.1968 37.753 57.0808C37.4978 56.9107 37.2659 57.3205 37.5133 57.4906C37.8844 57.7457 38.5648 57.9468 38.9514 57.6066C39.0442 57.5215 38.9978 57.3514 38.8741 57.3282H38.8818Z" fill="#079247"/>
<path d="M41.8121 57.2817C41.6266 57.2817 41.441 57.3436 41.2477 57.3591C41.0544 57.3823 40.8611 57.3745 40.6678 57.3591C40.4591 57.3436 40.4359 57.6529 40.6214 57.707C41.0158 57.823 41.5879 57.8384 41.9127 57.5292C42.0054 57.4441 41.9359 57.2817 41.8121 57.2817Z" fill="#079247"/>
<path d="M43.853 56.6011C43.6675 56.6243 43.4896 56.7248 43.3273 56.8098C43.1494 56.9026 42.9561 56.9645 42.7783 57.0573C42.5927 57.15 42.701 57.4052 42.8788 57.4206C43.2809 57.4516 43.8685 57.2274 44.0154 56.8253C44.0463 56.7325 43.9613 56.6011 43.853 56.6088V56.6011Z" fill="#079247"/>
<path d="M45.5774 55.0318C45.1212 54.9776 44.8661 55.4957 44.8197 55.8668C44.7888 56.0833 45.1599 56.1838 45.245 55.9828C45.3687 55.6967 45.6006 55.4957 45.7166 55.2173C45.7553 55.1168 45.6547 55.0395 45.5774 55.0318Z" fill="#079247"/>
<path d="M46.6751 53.0838C46.3581 53.2926 46.2653 53.7797 46.1571 54.1199C46.0875 54.3364 46.3967 54.4524 46.5127 54.2668C46.6828 53.9885 47.0075 53.6019 46.9689 53.2462C46.9534 53.1148 46.8143 52.991 46.6751 53.0761V53.0838Z" fill="#079247"/>
<path d="M47.1934 50.2379C47.0001 50.7637 47.1392 51.3281 46.8995 51.8539C46.8145 52.0317 47.0774 52.1477 47.1547 51.9621C47.3712 51.4286 47.7191 50.7869 47.464 50.207C47.4099 50.0833 47.232 50.1374 47.2011 50.2457L47.1934 50.2379Z" fill="#079247"/>
<path d="M47.8429 47.8803C47.4408 48.0658 47.3713 48.6844 47.3867 49.0632C47.3944 49.3725 47.8661 49.3725 47.8661 49.0632C47.8661 48.8699 47.897 48.6921 47.9512 48.5065C47.9975 48.3442 48.0671 48.1663 48.0594 47.9962C48.0594 47.8803 47.9434 47.8261 47.8429 47.8725V47.8803Z" fill="#079247"/>
<path d="M48.6159 45.1892C48.5927 45.0191 48.3685 44.9959 48.2602 45.0964C47.8659 45.4598 47.9432 46.1943 48.0901 46.6582C48.1675 46.9057 48.5927 46.8747 48.5618 46.5964C48.5308 46.349 48.5308 46.1015 48.5618 45.8541C48.5927 45.6299 48.6468 45.4134 48.6159 45.1892Z" fill="#079247"/>
<path d="M48.7167 42.5913C48.2605 42.7537 48.2837 43.4495 48.4152 43.8284C48.5157 44.0913 48.9409 44.0758 48.9332 43.7588C48.9332 43.5964 48.9332 43.4263 48.9719 43.2717C49.0105 43.1016 49.0878 42.9469 49.026 42.7768C48.9796 42.6531 48.8481 42.5449 48.709 42.599L48.7167 42.5913Z" fill="#079247"/>
<path d="M49.2269 40.7973C49.1573 40.7586 49.0723 40.7586 48.9949 40.7973C48.7011 40.9674 48.8016 41.354 48.8171 41.6323C48.848 42.0035 49.3661 42.0035 49.397 41.6323C49.4202 41.354 49.513 40.9674 49.2191 40.7973H49.2269Z" fill="#079247"/>
<path d="M46.9923 40.8516C46.6289 40.8516 46.6289 41.4083 46.9923 41.4083C47.3557 41.4083 47.3557 40.8516 46.9923 40.8516Z" fill="#079247"/>
<path d="M35.4797 19.9522C35.7503 19.8826 36.1292 19.7666 36.3224 19.5502C36.3998 19.4574 36.3534 19.3027 36.2219 19.3027C35.9281 19.3027 35.5957 19.5038 35.3637 19.6661C35.2168 19.7666 35.3019 19.9986 35.4874 19.9522H35.4797Z" fill="#079247"/>
<path d="M37.0954 19.6126C37.2655 19.6744 37.4743 19.659 37.6366 19.5662C37.7217 19.5121 37.7217 19.3806 37.6366 19.3342C37.482 19.2415 37.2655 19.226 37.0954 19.2878C36.933 19.3497 36.933 19.5585 37.0954 19.6126Z" fill="#079247"/>
<path d="M38.9744 19.6664C39.0518 19.6741 39.1291 19.6819 39.2141 19.6819C39.3146 19.6819 39.361 19.6432 39.4538 19.6123C39.6084 19.5659 39.6084 19.3417 39.4538 19.2953C39.3765 19.2721 39.3301 19.2334 39.2528 19.2257C39.1677 19.218 39.0595 19.2257 38.9744 19.2412C38.8353 19.2566 38.727 19.2798 38.6188 19.3726C38.5724 19.4113 38.5724 19.504 38.6188 19.5427C38.727 19.6355 38.8353 19.6587 38.9744 19.6741V19.6664Z" fill="#079247"/>
</svg>
