<svg width="76" height="76" viewBox="0 0 76 76" fill="none" xmlns="http://www.w3.org/2000/svg">
<path d="M73.5812 17.0604C73.5812 16.7336 73.2889 16.5617 72.9965 16.6133C68.6111 17.3614 64.1569 17.155 59.7285 16.9572C57.7164 16.8712 55.6956 16.7766 53.6835 16.6906C53.3309 13.982 52.2045 10.938 49.943 9.26124C48.7306 8.35836 47.2859 8.19498 45.8241 8.10899C43.9668 7.99721 42.1094 7.97141 40.2521 8.0316C38.4721 8.08319 36.6922 8.21218 34.9122 8.40995C33.1924 8.60772 31.3351 8.74531 29.6755 9.25264C28.4545 9.62239 27.6548 10.3963 26.9325 11.4195C26.4423 12.1075 25.9866 12.8298 25.548 13.5521C25.1869 14.1368 24.7484 14.7473 24.5076 15.4008C22.8222 15.3234 21.1282 15.2546 19.4429 15.1772C14.3523 14.9537 9.25322 14.7301 4.1627 14.5065C4.02512 14.5065 3.91334 14.5495 3.84455 14.6269C3.67257 14.4721 3.33721 14.5409 3.33721 14.8419C3.36301 20.1388 2.7181 25.4787 2.38274 30.7584C2.21076 33.467 2.03019 36.1756 2.02159 38.8929C2.02159 39.6238 1.98719 40.4063 2.13337 41.1372C2.32255 42.0917 2.99326 43.0031 3.67257 43.7512C4.00792 48.8675 4.64424 53.9323 4.67863 59.0658C4.69583 61.1037 4.42067 63.477 5.6761 65.2312C6.67357 66.6414 8.35894 67.2261 10.0013 67.4755C12.237 67.8108 14.5587 67.7248 16.8202 67.7764C19.4343 67.8366 22.0483 67.8796 24.671 67.914C29.7615 67.9828 34.8606 68 39.9511 68C45.0416 68 50.1322 67.9828 55.2313 67.957C57.768 67.9484 60.3046 67.9398 62.8413 67.9312C64.1397 67.9312 65.4295 67.9312 66.728 67.9312C67.1923 67.9312 67.8544 68.0688 68.2844 67.8022C69.256 67.2003 69.342 65.0592 69.4882 64.0875C69.8407 61.6798 70.0299 59.2464 70.1761 56.8129C70.3653 53.8205 70.4857 50.8195 70.5459 47.8271C70.5716 46.3395 70.7006 44.7659 70.5459 43.2697C71.0188 43.0633 71.4487 42.771 71.8013 42.3324C73.1599 40.647 72.9965 37.8868 73.1427 35.8661C73.5984 29.6061 73.7446 23.329 73.5898 17.0518L73.5812 17.0604ZM52.7634 16.6477C52.0411 16.6133 51.3102 16.5875 50.5879 16.5531C50.5449 16.4241 50.4933 16.2951 50.4503 16.1661C51.1812 16.1403 51.9809 16.0371 52.6 15.676C52.6688 16.0027 52.729 16.3295 52.772 16.6477H52.7634ZM52.3937 14.8591C52.4367 15.0053 52.4711 15.1429 52.5055 15.2804C51.7488 15.375 51.0264 15.59 50.2612 15.6588C50.1924 15.4868 50.1236 15.3148 50.0548 15.1429C50.4331 15.1171 50.8029 15.0913 51.1812 15.0483C51.5768 15.0053 52.0067 15.0139 52.3765 14.8677C52.3765 14.8677 52.3851 14.8677 52.3937 14.8591ZM25.6254 14.9451C26.064 15.0053 26.5627 15.0655 26.9669 14.9537C27.1044 14.9193 27.1044 14.7043 26.9669 14.6699C26.6229 14.5839 26.2016 14.6097 25.8146 14.6527C25.9264 14.4807 26.0382 14.3002 26.1414 14.1196C26.5455 14.1196 26.9497 14.1196 27.3624 14.068C27.5688 14.0422 27.5688 13.681 27.3624 13.6552C27.0614 13.6123 26.7691 13.6037 26.4681 13.6037C26.5541 13.4747 26.6315 13.3371 26.7175 13.2081C27.586 11.9355 28.3427 10.5597 29.8991 10.0781C31.3437 9.63099 32.9689 9.5106 34.4651 9.33863C36.0129 9.15805 37.5692 9.02907 39.1342 8.96028C40.6218 8.89149 42.1094 8.87429 43.5884 8.91728C45.0331 8.95168 46.684 8.88289 48.077 9.32143C50.2268 10.0007 51.551 12.1676 52.2475 14.3776C51.8347 14.3432 51.3876 14.4463 50.9835 14.5065C50.6051 14.5581 50.2354 14.6183 49.8656 14.6871C49.2121 13.1307 48.335 11.5743 47.028 10.7316C45.9703 10.0523 44.6289 10.2673 43.4423 10.3017C41.7741 10.3447 40.1059 10.3877 38.4291 10.4307C35.8323 10.4995 33.072 10.3275 30.6644 11.4711C29.1166 12.2106 27.3968 13.7068 27.1388 15.5126C26.5111 15.4868 25.8834 15.461 25.2471 15.4266C25.3761 15.2718 25.4965 15.1085 25.6082 14.9451H25.6254ZM49.5904 16.5101C48.4984 16.4585 47.3977 16.4155 46.3057 16.3639C40.1317 16.0887 33.9577 15.8222 27.7752 15.547C28.1535 14.8849 28.4717 14.2142 29.022 13.6381C29.6755 12.9501 30.4666 12.4428 31.3437 12.0731C33.6138 11.1272 36.2622 11.325 38.6699 11.2734C39.8823 11.2476 41.0948 11.2132 42.3158 11.1874C43.554 11.1616 45.3254 10.7918 46.4605 11.3852C48.3522 12.374 48.679 14.7473 49.5904 16.5187V16.5101ZM69.6344 46.8898C69.6 49.2459 69.5226 51.602 69.4108 53.9495C69.2904 56.4603 69.1356 58.9626 68.8863 61.4649C68.7143 63.1244 68.6455 65.042 68.0092 66.607C67.9662 66.7188 67.9146 66.8649 67.8372 66.9681C67.7942 66.9767 67.734 66.9939 67.6566 67.0025C67.0461 67.1401 66.212 67.0025 65.5843 67.0025C63.0992 67.0025 60.6142 67.0111 58.1291 67.0197C53.3739 67.0369 48.6188 67.0627 43.8636 67.0713C34.3189 67.0885 24.7742 67.0455 15.2294 66.8134C12.9851 66.7618 10.4571 66.9423 8.33315 66.1082C5.47833 64.9904 5.61591 62.0926 5.59871 59.5043C5.57292 54.5428 5.40094 49.3835 4.42067 44.4907C7.2067 47.122 11.3341 48.0421 15.0489 48.2742C20.5005 48.6182 26.064 47.7067 31.4813 47.1908C42.6856 46.1245 53.8985 45.0669 65.1028 44.0006C66.5216 43.863 67.9748 43.8028 69.385 43.5793C69.471 43.5621 69.5656 43.5449 69.6516 43.5277C69.729 44.5165 69.6516 45.8493 69.643 46.8726L69.6344 46.8898ZM72.4118 32.6587C72.2742 35.0836 72.3 37.6718 71.7927 40.0451C71.5605 41.1372 71.0704 42.1604 69.9267 42.5302C68.6541 42.9429 67.1235 42.8913 65.7907 43.0203C55.3603 44.0092 44.9213 45.0067 34.4909 45.9955C29.3745 46.4857 24.2324 47.1392 19.0989 47.3799C14.7479 47.5777 9.73476 47.294 6.05445 44.6713C4.87641 43.8372 3.38881 42.4098 3.02765 41.0254C2.86428 40.3977 2.92447 39.6754 2.91587 39.0391C2.91587 36.5712 3.07065 34.1119 3.20823 31.6526C3.38881 28.3937 3.61238 25.1347 3.79295 21.8758C3.91334 19.726 4.08531 17.5333 3.97353 15.375C4.02512 15.4008 4.08531 15.418 4.15411 15.418C4.9366 15.4524 5.71909 15.4868 6.49299 15.5212C6.00286 18.2384 5.7105 21.2222 5.80508 23.9567C5.80508 24.1802 6.17484 24.249 6.20923 24.0083C6.407 22.5981 6.4414 21.1534 6.55318 19.726C6.66497 18.333 6.84555 16.9314 6.93153 15.5298C7.1809 15.5384 7.43027 15.5556 7.67963 15.5642C7.49906 17.1808 7.45606 18.8318 7.43027 20.4569C7.43027 20.7321 7.83441 20.7235 7.86021 20.4569C8.01499 18.849 8.14397 17.2066 8.13537 15.59C24.9461 16.3295 41.7483 17.069 58.559 17.8171C62.0674 17.9719 65.5843 18.1439 69.0926 17.9375C69.17 19.6487 69.1958 21.291 69.1012 23.0194C69.0926 23.2344 69.428 23.286 69.4796 23.071C69.8493 21.4544 69.8493 19.5627 69.4796 17.9117C69.7376 17.8945 69.9955 17.8773 70.2621 17.8601C71.1478 18.849 70.3653 22.3057 70.2535 23.2C70.2277 23.4321 70.5802 23.4579 70.649 23.2516C71.122 21.8672 71.1736 20.3108 71.0274 18.8748C70.9844 18.4878 70.9414 18.1095 70.7866 17.8257C71.4143 17.7655 72.0334 17.6881 72.6612 17.5935C72.7644 22.6153 72.6956 27.6456 72.4118 32.6673V32.6587Z" fill="#6427E6"/>
<path d="M40.8283 41.602C38.8763 41.7653 36.7094 41.3612 34.8177 41.9631C34.5511 41.9029 34.2501 42.0405 34.3017 42.3759C34.3791 42.9864 34.4909 43.6141 34.3963 44.2246C34.3533 44.4912 34.5081 44.8265 34.8349 44.8007C36.9416 44.6546 39.0913 44.3794 41.2066 44.3622C42.1009 44.3622 43.4853 44.4568 43.2445 43.1412C42.978 41.7396 42.0493 41.4902 40.8283 41.5934V41.602ZM42.3502 43.3561C42.2127 43.6657 39.418 43.5711 38.9795 43.6055C37.7585 43.6915 36.546 43.7775 35.325 43.8549C35.3336 43.3819 35.282 42.909 35.2218 42.4275C36.3568 42.522 37.5263 42.4963 38.6613 42.5134C39.3836 42.5306 40.106 42.522 40.8283 42.4619C41.2496 42.4275 42.7114 42.5134 42.3502 43.3561Z" fill="#6427E6"/>
<path d="M69.7633 33.3121C69.7633 34.8169 69.6945 36.3303 69.5397 37.8265C69.4365 38.8412 69.299 39.5893 68.4219 40.2084C67.8544 40.6125 67.2868 40.9737 66.7537 41.4208C66.5559 41.5842 66.8053 41.8766 67.0203 41.7648C68.1897 41.1371 69.7117 40.3804 69.9439 38.9616C70.2534 37.1128 70.2018 35.1695 70.1159 33.3035C70.1073 33.0714 69.7547 33.0714 69.7547 33.3035L69.7633 33.3121Z" fill="#6427E6"/>
<path d="M4.85926 40.6987C4.5927 40.0968 4.47231 39.4433 4.48091 38.7812C4.48091 38.5146 4.09396 38.5232 4.07677 38.7812C3.98218 40.028 4.38632 41.6274 5.48698 42.3669C5.65895 42.4873 5.88252 42.2551 5.77074 42.0831C5.46978 41.6102 5.10003 41.2147 4.86786 40.6901L4.85926 40.6987Z" fill="#6427E6"/>
<path d="M8.74592 42.7967C8.29878 42.4871 7.75705 42.3496 7.30991 41.997C6.83698 41.6273 6.52742 41.1715 6.18346 40.69C6.05448 40.5094 5.72773 40.6126 5.79652 40.8534C6.11467 41.911 7.4389 43.2868 8.61694 43.2524C8.86631 43.2524 8.9351 42.9343 8.73732 42.7967H8.74592Z" fill="#6427E6"/>
<path d="M6.57893 49.6672C6.65632 49.1082 6.55313 48.4977 6.50154 47.9388C6.48434 47.7324 6.15758 47.7238 6.16618 47.9388C6.20058 48.4977 6.16618 49.1254 6.32096 49.6672C6.35535 49.7789 6.55313 49.8047 6.57033 49.6672H6.57893Z" fill="#6427E6"/>
<path d="M6.6991 51.7566C6.7249 51.5761 6.46693 51.4901 6.41534 51.6793C6.23477 52.4188 6.14878 53.3474 6.49273 54.0611C6.56152 54.1901 6.77649 54.1299 6.76789 53.9838C6.7507 53.6312 6.65611 53.2872 6.63031 52.9347C6.60452 52.5391 6.63031 52.1436 6.6905 51.7566H6.6991Z" fill="#6427E6"/>
<path d="M68.3273 45.8152C68.0263 47.9735 67.8716 50.2006 68.0092 52.3761C68.0177 52.5739 68.3015 52.5739 68.3187 52.3761C68.4563 50.2092 68.5251 48.0337 68.6455 45.8582C68.6541 45.6776 68.3531 45.626 68.3273 45.8152Z" fill="#6427E6"/>
<path d="M67.5792 55.3939C67.5276 56.3398 67.4674 57.3372 67.6738 58.2659C67.7082 58.4293 67.9747 58.4293 68.0091 58.2659C68.1897 57.3286 68.1123 56.3312 68.0435 55.3939C68.0263 55.1015 67.5964 55.0929 67.5878 55.3939H67.5792Z" fill="#6427E6"/>
<path d="M67.2009 59.5215C67.0204 59.7794 66.857 60.0374 66.728 60.3126C66.6076 60.5619 66.47 60.8371 66.5302 61.1123C66.5732 61.2928 66.7882 61.3186 66.9172 61.2155C67.1064 61.0521 67.1752 60.7511 67.2697 60.5275C67.3815 60.2696 67.5105 60.0202 67.6481 59.7794C67.8201 59.4871 67.3901 59.2549 67.2009 59.5215Z" fill="#6427E6"/>
<path d="M39.0997 42.5559C38.6182 42.5559 38.6096 43.3126 39.0997 43.3126C39.5899 43.3126 39.5899 42.5559 39.0997 42.5559Z" fill="#6427E6"/>
<path d="M39.9425 40.3891C39.9855 40.0021 40.0715 39.6152 39.9941 39.2197C39.9683 39.0821 39.7878 39.1165 39.7448 39.2197C39.5986 39.5894 39.6158 39.9935 39.59 40.3891C39.5728 40.6127 39.9082 40.6041 39.934 40.3891H39.9425Z" fill="#6427E6"/>
<path d="M39.9772 36.8723C39.7966 37.0099 39.7622 37.1904 39.8052 37.414C39.8396 37.6204 40.1578 37.5344 40.1148 37.328C40.089 37.2162 40.1406 37.1303 40.175 37.0271C40.218 36.9239 40.0718 36.8035 39.9772 36.8723Z" fill="#6427E6"/>
<path d="M40.2605 35.7629C40.2949 35.2986 40.3809 34.7999 40.1745 34.3613C40.1315 34.2581 39.9595 34.2581 39.9079 34.3613C39.7101 34.7999 39.7875 35.2986 39.8219 35.7629C39.8391 36.0381 40.2347 36.0381 40.2519 35.7629H40.2605Z" fill="#6427E6"/>
<path d="M40.6734 31.5239C40.7078 31.2229 40.8454 30.8188 40.7422 30.5264C40.6906 30.3889 40.5014 30.3029 40.3897 30.4319C40.1317 30.7328 40.1919 31.2229 40.2521 31.5841C40.2951 31.8507 40.6476 31.7475 40.682 31.5239H40.6734Z" fill="#6427E6"/>
<path d="M40.8711 27.8346C40.8625 27.6369 40.8712 27.4477 40.9141 27.2499C40.9485 27.0693 41.0345 26.8802 41.0173 26.7082C41.0001 26.562 40.8454 26.4244 40.6992 26.5276C40.3208 26.7856 40.3036 27.4305 40.3552 27.8432C40.3982 28.1614 40.8883 28.1872 40.8711 27.8432V27.8346Z" fill="#6427E6"/>
<path d="M41.2497 25.0316C41.2068 24.894 41.181 24.7478 41.1982 24.6016C41.2154 24.4469 41.2755 24.3265 41.2239 24.1803C41.181 24.0599 41.0434 23.9481 40.9144 23.9997C40.4243 24.1803 40.5102 24.894 40.7596 25.238C40.9316 25.4701 41.3615 25.3411 41.2583 25.0316H41.2497Z" fill="#6427E6"/>
<path d="M41.1205 22.9939C41.3441 23.1572 41.6623 22.8305 41.4989 22.6155C41.4387 22.5381 41.3871 22.4521 41.3699 22.3489C41.3527 22.2372 41.3613 22.1512 41.2925 22.0566C41.2237 21.9534 41.0689 21.8846 40.9486 21.9706C40.5616 22.2458 40.8024 22.7703 41.1119 23.0025L41.1205 22.9939Z" fill="#6427E6"/>
</svg>
