<svg width="76" height="76" viewBox="0 0 76 76" fill="none" xmlns="http://www.w3.org/2000/svg">
<path d="M44.235 60.8802C44.1244 60.9631 43.9641 61.1953 43.8812 61.5213C43.7928 61.8474 43.7928 62.2619 43.8702 62.6709C44.0194 63.4943 44.4505 64.3289 44.9368 64.7599C45.0529 64.8649 45.1745 64.9589 45.3071 65.0473C45.4066 65.1081 45.4619 65.1413 45.4619 65.1413C45.5503 65.191 45.6387 65.2352 45.7327 65.2794C46.0864 65.4397 46.4953 65.5558 46.9098 65.6332C47.0535 65.6663 47.2028 65.6884 47.352 65.7105C48.0096 65.7934 48.6342 65.8432 49.2974 65.8653C49.955 65.8818 50.6403 65.8487 51.309 65.6221C51.9778 65.4066 52.5802 64.9313 52.9781 64.3675C53.3815 63.8094 53.6523 63.2014 53.9121 62.6211L57.0623 55.6299C59.1237 51.1147 61.5389 45.8257 64.2027 39.9951C64.8604 38.5305 65.5567 37.0604 66.2199 35.5019C66.8776 33.9489 67.4579 32.3241 67.9774 30.6606C68.5024 28.9915 68.9611 27.2783 69.3756 25.5319C69.5801 24.6531 69.7791 23.7854 69.9615 22.8736C70.1383 21.8898 70.0278 20.8784 69.7128 19.95C69.5525 19.4802 69.348 19.0436 69.0772 18.6125C68.8009 18.1925 68.4693 17.8167 68.1045 17.4906C67.3639 16.844 66.5184 16.3908 65.6617 16.0371C64.8051 15.6834 63.9429 15.4236 63.0863 15.1749C62.2297 14.9262 61.3454 14.7162 60.4335 14.6389C59.5272 14.567 58.5489 14.6389 57.6757 15.0865C56.8025 15.5287 56.1725 16.3355 55.8243 17.148C55.454 17.9659 55.2716 18.8004 55.0672 19.5907C54.8627 20.3866 54.6637 21.1713 54.4703 21.9451C52.8731 28.146 51.3477 33.7555 50.0656 38.5526L46.2688 52.3969L46.0145 53.3474C45.7382 54.3864 45.3016 56.0334 45.0308 57.0558C44.9645 57.3211 44.9037 57.5587 44.8484 57.7853C44.8484 57.7853 44.8374 57.8351 44.8208 57.918C44.7931 58.034 44.771 58.1446 44.7489 58.2551C44.5721 59.062 44.235 60.6481 44.2294 60.825C44.2294 61.0626 44.8816 59.7086 45.2463 58.5701C45.2463 58.5646 45.2463 58.5591 45.2463 58.5535C45.4232 58.0672 45.6166 57.4482 45.8045 56.7408C46.0477 55.8234 46.3682 54.6351 46.6059 53.7288C46.6225 53.6625 46.6446 53.5906 46.6611 53.5243C47.982 48.589 49.3526 43.6648 50.7122 38.735C52.0717 33.96 53.6523 28.367 55.2938 22.1661C55.4982 21.3924 55.7027 20.6076 55.9072 19.8118C56.1172 19.016 56.3051 18.2256 56.6257 17.5182C56.9407 16.8053 57.4215 16.2195 58.0847 15.8823C58.7479 15.5507 59.5493 15.4734 60.3617 15.5397C61.1796 15.6115 62.0031 15.8105 62.8376 16.0537C63.6777 16.2969 64.5122 16.5511 65.308 16.8827C66.1039 17.2143 66.8665 17.6232 67.491 18.1759C68.1211 18.7286 68.5632 19.4249 68.834 20.2429C69.1048 21.0442 69.1988 21.9064 69.0496 22.7077C68.8727 23.5699 68.6793 24.4597 68.4748 25.3218C68.0658 27.0517 67.6182 28.7484 67.1042 30.3953C66.5902 32.0367 66.0265 33.6339 65.3909 35.1648C64.7554 36.6846 64.0535 38.1879 63.4124 39.6469C60.8093 45.5051 58.455 50.8218 56.4378 55.3536L53.8513 61.1013C53.4036 62.0464 53.0334 63.0633 52.4973 63.8757C52.2209 64.2791 51.8893 64.6163 51.4693 64.8207C51.0548 65.0363 50.5795 65.1413 50.0877 65.1744C49.2366 65.2297 48.3081 65.1358 47.4349 65.0418C46.7164 64.9534 46.0256 64.7434 45.6056 64.456C45.4895 64.3786 45.379 64.3012 45.2961 64.2183L45.285 64.2073C44.7876 63.732 44.2736 62.7372 44.1742 61.9524C44.047 61.1566 44.5223 60.6481 44.2239 60.8747" fill="#F46D44"/>
<path d="M57.5594 22.979C57.5428 23.095 57.3218 23.1834 56.9515 23.1392C56.5923 23.095 56.0949 22.8905 55.6969 22.4871C55.299 22.0836 55.2106 21.7686 55.2051 21.6028C55.2051 21.4315 55.3046 21.3762 55.4096 21.3265C55.5201 21.2767 55.6251 21.2546 55.7467 21.3265C55.8738 21.3983 56.0064 21.5752 56.2994 21.8736C56.8852 22.476 57.576 22.7358 57.5539 22.9734" fill="#F46D44"/>
<path d="M56.0066 27.2399C55.9568 27.3449 55.7192 27.3615 55.3876 27.2288C55.0615 27.0907 54.6415 26.7867 54.3431 26.3225C54.0446 25.8582 54.017 25.5432 54.0391 25.3829C54.0723 25.2171 54.1717 25.1784 54.2878 25.1453C54.4038 25.1176 54.5089 25.1066 54.6194 25.2005C54.7354 25.2945 54.8349 25.4935 55.0615 25.8472C55.5092 26.5601 56.095 27.0078 56.001 27.2288" fill="#F46D44"/>
<path d="M54.9124 31.6725C54.8351 31.761 54.5753 31.6891 54.2492 31.4238C53.9287 31.1641 53.5474 30.6998 53.3208 30.103C53.0942 29.5006 53.1108 29.1413 53.155 28.9645C53.2102 28.7821 53.3152 28.7545 53.4368 28.7434C53.5529 28.7324 53.6634 28.7434 53.7574 28.8871C53.8624 29.0253 53.9342 29.3016 54.1221 29.799C54.4924 30.7883 55.0672 31.4957 54.918 31.6836" fill="#F46D44"/>
<path d="M53.4145 35.563C53.2929 35.7675 52.6684 35.6127 52.0218 35.2259C51.3752 34.839 51.436 34.6456 51.5576 34.4466C51.6792 34.2421 51.8173 34.104 52.4695 34.4908C53.1161 34.8777 53.5416 35.3585 53.4201 35.563" fill="#F46D44"/>
<path d="M52.8178 41.6423C52.8012 41.7584 52.5525 41.8358 52.1491 41.7916C51.7567 41.7418 51.2151 41.5484 50.7398 41.1505C50.2645 40.7526 50.1208 40.4375 50.0821 40.2607C50.049 40.0783 50.1319 40.0065 50.2314 39.9401C50.3308 39.8738 50.4358 39.8351 50.574 39.907C50.7232 39.9733 50.9056 40.1667 51.2814 40.4818C52.033 41.1173 52.8399 41.3992 52.8123 41.6368" fill="#F46D44"/>
<path d="M50.9276 46.6718C50.9111 46.7824 50.7011 46.8763 50.3529 46.8376C50.0158 46.7934 49.546 46.6 49.1812 46.2076C48.8165 45.8152 48.7502 45.5112 48.7557 45.3565C48.7723 45.1907 48.8662 45.1409 48.9767 45.1023C49.0873 45.058 49.1978 45.0359 49.3083 45.1078C49.4299 45.1741 49.546 45.3399 49.8002 45.6162C50.3142 46.1799 50.9387 46.4342 50.9221 46.6718" fill="#F46D44"/>
<path d="M49.933 51.601C49.933 51.7171 49.6733 51.8276 49.2367 51.7944C48.8111 51.7558 48.2142 51.5457 47.7279 51.076C47.2471 50.6062 47.1421 50.2304 47.1255 50.0425C47.1255 49.8435 47.2139 49.7883 47.3244 49.7441C47.435 49.6998 47.5455 49.6777 47.6726 49.7828C47.8163 49.8767 47.96 50.1033 48.3192 50.457C49.0488 51.1755 49.9275 51.3689 49.9275 51.6065" fill="#F46D44"/>
<path d="M48.4352 55.9068C48.4352 56.0229 48.2307 56.1444 47.8604 56.1555C47.5012 56.1555 46.9817 56.0229 46.5396 55.6691C46.0974 55.3099 45.9869 55.0004 45.9648 54.8402C45.9537 54.6633 46.0422 54.6025 46.1472 54.5472C46.2522 54.492 46.3572 54.4588 46.4843 54.5196C46.6169 54.5749 46.7606 54.7407 47.0757 55.0004C47.7057 55.5199 48.4186 55.6747 48.4352 55.9123" fill="#F46D44"/>
<path d="M49.9715 59.3608C49.9826 59.4769 49.8555 59.604 49.5957 59.6427C49.347 59.6759 48.9712 59.5985 48.6728 59.3387C48.3743 59.079 48.3191 58.8413 48.3357 58.7197C48.3578 58.5871 48.4572 58.5429 48.5622 58.4932C48.7999 58.3937 48.927 58.3937 49.2254 58.6811C49.546 58.9684 49.9329 59.1232 49.9715 59.3608Z" fill="#F46D44"/>
<path d="M59.3945 24.399C59.3226 24.62 58.7589 24.6256 58.2891 24.189C57.847 23.7413 58.0239 23.57 58.2062 23.4429C58.4107 23.3047 58.5599 23.2439 58.875 23.5589C59.1955 23.8629 59.4774 24.1724 59.3945 24.399Z" fill="#F46D44"/>
<path d="M58.2892 28.7432C58.1234 28.909 57.7476 28.804 57.4546 28.5111C57.1617 28.2126 57.2778 28.0634 57.4491 27.8921C57.6149 27.7263 57.7752 27.6102 58.0681 27.9031C58.361 28.2016 58.4605 28.5774 58.2947 28.7432" fill="#F46D44"/>
<path d="M57.4326 32.7553C57.3054 32.9543 56.8744 32.9101 56.4764 32.6559C56.073 32.4016 56.1504 32.2193 56.283 32.0203C56.4101 31.8213 56.5372 31.6721 56.9407 31.9319C57.3441 32.1861 57.5652 32.5564 57.4381 32.7553" fill="#F46D44"/>
<path d="M56.3054 36.812C56.2114 37.0275 55.8411 37.0828 55.4764 36.928C55.1116 36.7733 55.1614 36.5854 55.2553 36.3698C55.3493 36.1543 55.4488 35.983 55.8135 36.1377C56.1783 36.2925 56.3993 36.5964 56.3054 36.812Z" fill="#F46D44"/>
<path d="M54.8571 42.6481C54.7244 42.847 54.3431 42.8249 53.9949 42.5983C53.6523 42.3717 53.7352 42.1949 53.8623 41.9959C53.9894 41.797 54.1165 41.6533 54.4647 41.8799C54.8129 42.1065 54.9842 42.4491 54.8571 42.6481Z" fill="#F46D44"/>
<path d="M53.5697 47.7714C53.5531 47.8875 53.3984 47.9759 53.1441 47.9814C52.8954 47.9814 52.5473 47.893 52.2433 47.6609C51.9393 47.4288 51.8454 47.2298 51.8398 47.1082C51.8398 46.9811 51.9172 46.9093 52.0112 46.8374C52.2157 46.6827 52.3483 46.644 52.7573 46.9756C53.1773 47.2961 53.5973 47.5338 53.5697 47.7769" fill="#F46D44"/>
<path d="M51.9669 52.5741C51.8784 52.7951 51.4971 52.8504 51.1158 52.6956C50.7344 52.5409 50.7842 52.353 50.8726 52.1319C50.961 51.9109 51.055 51.7451 51.4418 51.8998C51.8232 52.0546 52.0608 52.3585 51.9724 52.5796" fill="#F46D44"/>
<path d="M50.1208 56.6693C50.1705 56.7743 50.1318 56.9235 49.966 57.034C49.8057 57.1446 49.5184 57.1943 49.2365 57.0838C48.9602 56.9677 48.8662 56.8019 48.8662 56.6969C48.8662 56.5864 48.9491 56.5145 49.0375 56.4372C49.231 56.2769 49.3636 56.1995 49.5515 56.2824C49.7449 56.3764 49.9936 56.4703 50.1208 56.6693Z" fill="#F46D44"/>
<path d="M48.6896 60.9968C48.6454 61.2289 48.3414 61.3671 48.0098 61.3007C47.6782 61.2344 47.6948 61.041 47.739 60.8089C47.7832 60.5768 47.844 60.3944 48.1701 60.4552C48.5017 60.5215 48.7338 60.7591 48.6841 60.9913" fill="#F46D44"/>
<path d="M24.1953 17.3473C24.3445 17.3916 24.9193 17.3529 25.1901 17.3916C25.2232 17.3916 25.2564 17.3971 25.2951 17.4026C25.3227 17.4026 25.3338 17.4026 25.3338 17.4026H25.4001C25.4885 17.4026 25.5825 17.4137 25.6819 17.4192L25.7869 17.4358C27.0304 17.5795 28.18 18.2924 28.8432 19.3535C29.4677 20.3815 29.7772 21.9068 29.219 23.3548C28.694 24.7862 27.3289 26.1513 25.5935 26.4221C23.8637 26.7039 22.1228 25.8639 21.1833 24.6701C20.2161 23.4653 20.089 21.9013 20.3708 20.7407C20.6638 19.6022 21.443 18.624 22.4544 18.0271C22.5262 17.9884 22.5926 17.9442 22.6644 17.9111C22.891 17.7784 23.2834 17.6237 23.5321 17.5574C23.5984 17.5353 23.6537 17.5187 23.7089 17.5021C23.7089 17.5021 23.72 17.5021 23.7421 17.491C23.7697 17.48 23.7974 17.4689 23.8195 17.4579C24.0074 17.375 24.3998 17.2644 24.444 17.2202C24.5048 17.1594 24.0903 16.8942 23.7476 16.8997C23.5984 16.8831 23.416 16.8997 23.2171 16.9605C22.9684 17.0434 22.6423 17.1705 22.4157 17.2921L22.3604 17.3142C21.0948 17.9719 20.0945 19.1711 19.7353 20.5638C19.5308 21.227 19.4479 21.9952 19.5529 22.8021C19.6579 23.6035 19.9619 24.4601 20.5201 25.1896C21.6088 26.6432 23.626 27.6656 25.7483 27.3285C26.8038 27.1682 27.7434 26.6542 28.4729 25.991C29.1969 25.3223 29.7385 24.5043 30.0314 23.6422C30.3409 22.7856 30.3851 21.8792 30.2525 21.0778C30.1198 20.2765 29.8103 19.5635 29.4179 18.9888C28.7934 17.9884 27.771 17.2313 26.6325 16.9163C26.3838 16.8499 26.1351 16.7947 25.8809 16.767C25.6709 16.7394 25.4553 16.7339 25.2951 16.7339C25.2509 16.7339 25.2122 16.7339 25.168 16.7394C24.9358 16.7284 24.6264 16.8499 24.4219 16.9936C24.2174 17.1429 24.1179 17.2976 24.2119 17.3308" fill="#F46D44"/>
<path d="M24.4163 21.3043C24.4937 21.3651 24.6429 21.3817 24.7037 21.4038C24.7092 21.4038 24.7203 21.4093 24.7258 21.4093H24.7369C24.7369 21.4093 24.7479 21.4093 24.7535 21.4093C24.77 21.4093 24.7921 21.4093 24.8142 21.4093C24.8198 21.4093 24.8308 21.4148 24.8364 21.4148C25.1127 21.4148 25.4001 21.5696 25.5272 21.8072C25.6322 22.0559 25.6322 22.4262 25.4609 22.7357C25.3006 23.0341 24.9358 23.2884 24.5324 23.3326C24.1345 23.3823 23.7752 23.1944 23.5376 22.9015C23.2999 22.6086 23.2115 22.2715 23.2502 21.9786C23.3165 21.7022 23.4934 21.4369 23.7255 21.2601C23.7421 21.249 23.7587 21.238 23.7752 21.2269C23.8305 21.1883 23.9189 21.1385 23.9797 21.1164C23.9963 21.1109 24.0074 21.0998 24.0184 21.0888C24.0184 21.0888 24.0184 21.0888 24.0239 21.0832L24.0405 21.0667C24.0737 21.0169 24.1621 20.9285 24.1621 20.8843C24.1732 20.8235 23.9963 20.5582 23.8637 20.5361C23.8029 20.5029 23.7366 20.4974 23.6702 20.5306C23.5873 20.5693 23.4879 20.619 23.416 20.6687L23.3994 20.6798C23.007 20.9506 22.7196 21.354 22.6036 21.8293C22.4433 22.277 22.4986 22.907 22.8523 23.4155C23.0291 23.6697 23.2723 23.9018 23.5818 24.0621C23.8913 24.2224 24.2726 24.2942 24.6374 24.25C25.3614 24.1671 25.9748 23.7084 26.2401 23.106C26.4943 22.5146 26.4004 21.8901 26.1185 21.4812C25.9085 21.1109 25.5272 20.8511 25.1182 20.7793C25.0298 20.7627 24.9358 20.7516 24.8474 20.7516C24.77 20.7516 24.6927 20.7572 24.6374 20.7682L24.5932 20.7793C24.5048 20.7793 24.4108 20.8953 24.3887 21.0224C24.3611 21.1496 24.3887 21.2656 24.4384 21.3098" fill="#F46D44"/>
<path d="M26.4171 17.2975C26.5166 17.2146 26.6326 16.7669 26.6824 16.5569L26.6989 16.474L26.7045 16.4408L26.7155 16.3856C26.7211 16.3192 26.7321 16.2419 26.7376 16.1645C26.7432 16.1369 26.7487 16.1092 26.7542 16.0816L27.0305 13.1359C27.0913 12.6606 27.1577 12.1466 27.2295 11.594C27.2958 11.0413 27.3787 10.4168 27.2461 9.70937C27.1742 9.36119 27.0361 8.97433 26.7432 8.65931C26.4668 8.33877 26.0468 8.12876 25.6544 8.05691C24.842 7.91322 24.1512 8.07901 23.4548 8.14533C22.7474 8.23376 22.0566 8.32218 21.3878 8.40508C21.0286 8.46588 20.6639 8.54878 20.3046 8.74221C19.9454 8.91906 19.5917 9.31146 19.5198 9.76464C19.4425 10.2178 19.5751 10.5715 19.6691 10.8589C19.7685 11.1352 19.868 11.4061 19.962 11.6658C20.1554 12.1853 20.3378 12.6717 20.5036 13.1248L21.3823 15.75L21.4431 15.9324C21.5094 16.1258 21.6144 16.4408 21.6808 16.6342C21.6973 16.684 21.7139 16.7282 21.736 16.7669C21.736 16.7669 21.736 16.7779 21.7471 16.789L21.7802 16.8498C21.8631 16.9935 22.0234 17.2643 22.0732 17.2864C22.1395 17.3085 22.3274 16.9493 22.3219 16.7061C22.3329 16.5956 22.3219 16.4629 22.2776 16.3303C22.2224 16.159 22.145 15.9324 22.0897 15.7555L22.0787 15.7168L21.1392 12.9093C21.001 12.4506 20.8518 11.9532 20.697 11.4171C20.5589 10.9031 20.2715 10.251 20.3544 9.91939C20.3931 9.75359 20.4981 9.62647 20.7191 9.51041C20.9347 9.39988 21.2165 9.33356 21.5205 9.28935C22.1782 9.21198 22.8635 9.13461 23.5598 9.05171C24.2672 8.97433 24.9581 8.84169 25.4776 8.93564C25.9971 9.02407 26.29 9.37225 26.4116 9.88623C26.5331 10.4002 26.4945 10.9639 26.4558 11.5166C26.4226 12.0692 26.3895 12.5888 26.3618 13.0696L26.1352 15.4902L26.0855 16.0153C26.0689 16.159 26.0579 16.3082 26.0468 16.4187C26.0468 16.4519 26.0468 16.4795 26.0468 16.5071C25.9915 16.8166 26.29 17.4025 26.4226 17.2919" fill="#F46D44"/>
<path d="M26.6713 14.1029C26.6989 14.009 26.6326 13.8929 26.5939 13.8432L26.5773 13.8266V13.8211L26.5663 13.8156C26.5497 13.81 26.5331 13.799 26.5165 13.7879C26.5165 13.7824 26.5055 13.7769 26.5 13.7713C26.2734 13.6608 26.0357 13.5669 25.7981 13.484C25.3559 13.2518 24.6927 13.0805 23.9522 13.0916C23.2116 13.1082 22.5539 13.3182 22.1229 13.5613C21.9018 13.6442 21.6863 13.7437 21.4762 13.8542L21.432 13.8764C21.3878 13.904 21.316 13.9482 21.2662 13.9758C21.2552 13.9814 21.2441 13.9924 21.2386 14.0035C21.2386 14.0035 21.2386 14.0035 21.2386 14.009V14.0311C21.211 14.0808 21.1778 14.1748 21.1944 14.2135C21.2165 14.2687 21.4376 14.4788 21.5149 14.5119C21.5591 14.5395 21.5978 14.5506 21.6255 14.534C21.6641 14.5119 21.7084 14.4898 21.7415 14.4677H21.7526C21.946 14.3627 22.1505 14.2687 22.355 14.1914C22.7861 14.114 23.3498 14.0256 23.9688 14.009C24.5933 13.9979 25.157 14.0532 25.5881 14.1195C25.7594 14.1803 25.9307 14.2411 26.0965 14.3185C26.1352 14.3351 26.1684 14.3516 26.2015 14.3682C26.2292 14.3848 26.2568 14.4014 26.2789 14.4124C26.2844 14.4124 26.2899 14.4124 26.2955 14.4124C26.3397 14.4677 26.6271 14.219 26.6658 14.1029" fill="#F46D44"/>
<path d="M20.7081 13.0973C20.8076 13.0973 20.9126 13.0089 20.9568 12.9757C20.9623 12.9757 20.9678 12.9647 20.9734 12.9647L20.9789 12.9592L20.9899 12.9481C20.9955 12.9315 21.0065 12.9149 21.012 12.8984C21.0176 12.8984 21.0231 12.8873 21.0286 12.8818C21.1392 12.6718 21.2939 12.4783 21.4873 12.3236C21.9018 12.0804 22.554 11.8594 23.2614 11.8925C23.9909 11.9312 24.6707 12.1633 25.1957 12.3236C25.4333 12.4341 25.6655 12.5612 25.9031 12.6883L25.9529 12.716C26.0026 12.7436 26.091 12.7934 26.1408 12.821C26.1518 12.8265 26.1684 12.832 26.185 12.832C26.185 12.832 26.185 12.832 26.196 12.832H26.2181C26.2734 12.8265 26.3839 12.8099 26.4171 12.7823C26.4558 12.7381 26.5276 12.4452 26.5 12.3512C26.5 12.296 26.4779 12.2518 26.4447 12.2296C26.395 12.202 26.3342 12.1688 26.29 12.1412L26.2789 12.1302C26.0192 11.9865 25.7594 11.8483 25.4886 11.7212C25.0023 11.4117 24.2562 11.0304 23.3111 10.9806C22.344 10.9364 21.515 11.3399 21.0673 11.8041C20.8573 11.9754 20.6694 12.1854 20.5257 12.4231C20.4925 12.4728 20.4594 12.5226 20.4373 12.5833C20.4152 12.6276 20.3931 12.6718 20.3765 12.7105C20.3765 12.7215 20.371 12.727 20.3654 12.7381C20.2991 12.8431 20.581 13.1139 20.7136 13.1028" fill="#F46D44"/>
<path d="M20.1167 23.0065C19.868 23.2 18.9561 24.3219 18.5472 24.869C18.4974 24.9353 18.4422 25.0072 18.3869 25.079C18.3482 25.1288 18.3261 25.1619 18.3261 25.1619C18.2929 25.2116 18.2598 25.2559 18.2266 25.3056C18.0995 25.4824 17.9613 25.6814 17.8176 25.8859C17.7679 25.9577 17.7126 26.0296 17.6574 26.1014C15.8778 28.7045 14.1756 31.3683 12.6116 34.1151C11.0586 36.7568 9.37294 39.9346 7.7039 43.5269C7.28387 44.4222 6.86385 45.3452 6.44382 46.2847C6.33882 46.5224 6.23381 46.7545 6.1288 46.9977C6.0238 47.2463 5.91879 47.4453 5.80826 47.7548C5.6093 48.3351 5.58719 48.9486 5.65904 49.5233C5.73641 50.0981 5.86905 50.6673 6.15644 51.22C6.4383 51.7561 6.81411 52.2148 7.2065 52.6348C8.00233 53.4528 8.8037 54.1933 9.61611 54.9892C10.4285 55.774 11.2354 56.5477 12.0257 57.3104C12.2302 57.5093 12.4623 57.7193 12.7442 57.8907C13.0205 58.0565 13.4019 58.2167 13.8329 58.1394C14.2585 58.073 14.6011 57.7525 14.7669 57.4651C14.9493 57.1722 15.0377 56.8848 15.1262 56.6306C15.8004 54.5968 16.4194 52.6293 17.0052 50.7392C18.1658 46.9645 19.1661 43.5269 20.0172 40.5868C20.8739 37.7682 21.7305 34.9496 22.6148 32.1421L22.7971 31.5673C23.0016 30.9372 23.3222 29.9424 23.5211 29.3235C23.5709 29.1632 23.6151 29.0195 23.6538 28.8813C23.6538 28.8813 23.6593 28.8537 23.6759 28.7984C23.6925 28.7266 23.7146 28.6603 23.7311 28.5939C23.8583 28.1021 24.1125 27.1349 24.1014 27.0244C24.0904 26.8752 23.5267 27.6378 23.2337 28.3176V28.3287C23.0845 28.6161 22.9353 28.9863 22.7916 29.4174C22.6092 29.9756 22.3771 30.6941 22.2003 31.2467C22.1837 31.2909 22.1726 31.3296 22.1561 31.3739C21.1999 34.3748 20.2825 37.3868 19.3706 40.3988C18.4532 43.3114 17.3755 46.7268 16.1873 50.485C15.5849 52.364 14.9493 54.326 14.2695 56.3432C14.1148 56.8517 13.8993 57.2385 13.6727 57.244C13.4461 57.3048 13.015 57.023 12.6558 56.6527C11.8655 55.89 11.0586 55.1108 10.2462 54.326C9.44479 53.5412 8.60474 52.7619 7.86417 52.0048C7.49941 51.6234 7.17887 51.2255 6.9578 50.8C6.73673 50.391 6.61515 49.8936 6.54883 49.4128C6.48804 48.932 6.51014 48.4567 6.64831 48.0422C6.7091 47.8543 6.84174 47.5835 6.93569 47.3569C7.0407 47.1192 7.14018 46.8816 7.24519 46.6439C7.65968 45.7044 8.06313 44.7815 8.4721 43.8862C10.0914 40.2994 11.7107 37.116 13.1863 34.4522C14.463 32.2139 15.8281 30.0198 17.2595 27.8755L18.199 26.4883C18.4643 26.1125 18.7295 25.7256 18.934 25.4382C18.9893 25.3553 19.039 25.2835 19.0888 25.2116H19.0943C19.6856 24.4103 20.4428 22.7689 20.1057 23.0176" fill="#F46D44"/>
<path d="M41.0132 55.0499C40.8529 55.1328 40.4108 55.702 40.1897 55.9562C40.1621 55.9894 40.1344 56.017 40.1068 56.0502C40.0847 56.0723 40.0736 56.0889 40.0736 56.0889L40.0239 56.1552C39.9576 56.2381 39.8912 56.332 39.8139 56.4205L39.731 56.5144C39.4878 56.7908 39.2281 57.0229 38.9351 57.1279C38.6367 57.2329 38.3051 57.2274 37.9846 57.1279C37.3324 56.9179 36.824 56.3707 36.4703 55.7186C36.1387 55.0775 35.8623 54.2761 35.5252 53.4527C35.1936 52.6292 34.8344 51.7505 34.4641 50.8275C33.7014 48.9927 32.8724 46.992 32.0047 44.8919C30.2362 40.7082 28.6335 36.9059 27.4397 34.0763L25.837 29.9368L25.732 29.6494C25.6159 29.3399 25.4336 28.8481 25.3175 28.5386C25.2899 28.4612 25.2567 28.3894 25.2291 28.323C25.2291 28.323 25.2236 28.3065 25.207 28.2844C25.1904 28.2512 25.1738 28.218 25.1572 28.1904C25.0412 27.9638 24.8035 27.5162 24.7483 27.4775C24.6709 27.4333 24.5548 27.9583 24.6156 28.3286C24.6267 28.4999 24.6654 28.6989 24.7427 28.9089C24.8422 29.1852 24.9749 29.5444 25.0799 29.8152L25.102 29.8816C25.6602 31.3627 26.2349 32.8438 26.8152 34.3194C27.8708 37.2099 29.3962 41.0509 31.1592 45.2401C32.0489 47.3292 32.9056 49.3243 33.6848 51.1481C34.0828 52.06 34.4641 52.9221 34.8178 53.7401C35.1881 54.5525 35.4865 55.3207 35.89 56.0281C36.216 56.625 36.6858 57.2163 37.3435 57.5645C37.9735 57.9237 38.8578 58.0066 39.5375 57.5755C39.8194 57.3987 40.046 57.1721 40.245 56.9455C40.4052 56.7576 40.5544 56.5642 40.6595 56.4094C40.6871 56.3652 40.7147 56.3265 40.7368 56.2934C41.0574 55.8789 41.2232 54.9338 41.0132 55.0388" fill="#F46D44"/>
<path d="M40.8969 55.6356C41.0571 55.5803 41.4938 55.0608 41.6595 54.779C41.6817 54.7458 41.7038 54.7126 41.7259 54.674C41.7425 54.6463 41.7535 54.6353 41.7535 54.6353L41.7922 54.5634C41.8364 54.4695 41.8861 54.3645 41.9359 54.2595C41.958 54.2263 41.9746 54.1876 41.9967 54.1489C42.577 52.7783 42.8201 51.264 42.6543 49.7829C42.5936 49.0644 42.4278 48.2796 42.1293 47.5004C41.8419 46.7156 41.4385 45.9363 40.9908 45.146C40.0955 43.582 39.1062 41.8964 38.0617 40.1278C35.9671 36.5908 34.0273 33.4075 32.5461 31.0531L30.5013 27.5934L30.3631 27.3558C30.2084 27.096 29.9652 26.6871 29.816 26.4328C29.7773 26.3665 29.7386 26.3112 29.6999 26.256C29.6999 26.256 29.6889 26.2449 29.6778 26.2228C29.6557 26.1952 29.6391 26.1731 29.617 26.1455C29.4733 25.9631 29.1859 25.6038 29.1251 25.5873C29.0422 25.5596 29.0035 26.0681 29.1141 26.3886C29.1472 26.5434 29.2136 26.7147 29.3186 26.8915C29.4512 27.1237 29.6281 27.4166 29.7607 27.6432L29.7883 27.6984L31.9769 31.3902C33.3254 33.822 35.1879 37.055 37.2825 40.5921C38.338 42.3551 39.3439 44.0352 40.2668 45.5716C41.1953 47.0859 41.8419 48.5283 41.9967 49.8547C42.1183 50.9766 41.9967 52.1262 41.643 53.1983C41.5711 53.4305 41.4772 53.6571 41.3887 53.8836C41.3003 54.066 41.2229 54.2539 41.1456 54.3921C41.129 54.4308 41.1124 54.4639 41.0903 54.4971C40.8803 54.8619 40.709 55.7074 40.9024 55.6356" fill="#F46D44"/>
<path d="M14.3359 56.4259C14.2365 56.459 14.1314 56.6691 14.0872 56.7685C14.0817 56.7796 14.0762 56.7962 14.0707 56.8072C14.0707 56.8183 14.0651 56.8238 14.0651 56.8238L14.0596 56.8514C14.0596 56.8846 14.0485 56.9233 14.043 56.9564C14.0375 56.9675 14.032 56.9841 14.032 56.9951L13.8275 58.4265C13.7777 58.6587 13.728 58.9073 13.6672 59.1726C13.6119 59.4434 13.5677 59.7198 13.4848 59.9408C13.4075 60.1619 13.2693 60.3277 13.1256 60.394C13.0095 60.4493 12.8714 60.4272 12.689 60.2835C12.3795 60.0127 12.1529 59.2611 11.8932 58.7415C11.6445 58.1889 11.4068 57.6915 11.1968 57.277L10.6828 56.0224L10.6497 55.934C10.611 55.8401 10.5502 55.6908 10.5115 55.5969C10.5004 55.5748 10.4894 55.5527 10.4783 55.5361C10.4783 55.5361 10.4783 55.5361 10.4673 55.525L10.4452 55.4974C10.3844 55.4366 10.2683 55.3206 10.2241 55.3206C10.1633 55.3206 9.94226 55.5637 9.92568 55.6908C9.89804 55.7572 9.89252 55.8235 9.92568 55.8898C9.95884 55.9727 10.003 56.0832 10.0307 56.1661V56.1882L10.5833 57.5257C10.727 57.9733 10.9039 58.4928 11.1139 59.0621C11.2244 59.344 11.335 59.6424 11.451 59.9464C11.5781 60.2559 11.7274 60.6427 12.0976 60.9743C12.28 61.1291 12.4956 61.2562 12.7553 61.3059C13.0151 61.3667 13.3135 61.317 13.5346 61.2009C13.9822 60.9688 14.2088 60.5488 14.3028 60.2006C14.4023 59.8413 14.4133 59.5429 14.4409 59.2776C14.463 59.0068 14.4796 58.7526 14.4962 58.5205L14.6675 57.3433L14.7007 57.0891C14.7117 57.0172 14.7228 56.9454 14.7283 56.8957V56.8514C14.7781 56.7022 14.4686 56.3872 14.3359 56.4314" fill="#F46D44"/>
<path d="M39.7308 56.9291C39.6313 56.9402 39.4932 57.106 39.4379 57.1889L39.4158 57.222L39.4047 57.2331L39.3937 57.2552C39.3826 57.2828 39.3716 57.316 39.3605 57.3491C39.355 57.3602 39.3495 57.3712 39.344 57.3823L38.9184 58.6313C38.7415 59.0237 38.5536 59.4879 38.3547 60.0019C38.2497 60.2617 38.1668 60.5269 38.0507 60.6983C37.9512 60.8641 37.7744 60.9525 37.7025 60.9414C37.6417 60.9525 37.487 60.842 37.4207 60.6762C37.3433 60.4993 37.3101 60.2506 37.2825 59.9743C37.2272 59.4271 37.1665 58.9297 37.1001 58.5042L37.0228 57.2718V57.1889C37.0117 57.0949 37.0007 56.9512 36.9951 56.8573C36.9951 56.8352 36.9896 56.813 36.9841 56.7909C36.9841 56.7909 36.9841 56.7909 36.9841 56.7799L36.9675 56.7523C36.9343 56.6859 36.857 56.5478 36.8127 56.5367C36.7575 56.5201 36.4701 56.6638 36.4093 56.7744C36.3651 56.8241 36.3375 56.8794 36.343 56.9457C36.343 57.0286 36.354 57.1336 36.354 57.2165C36.354 57.222 36.354 57.2275 36.354 57.2331L36.4369 58.5484C36.4259 58.9795 36.4259 59.4769 36.4369 60.0295C36.448 60.3004 36.4425 60.6375 36.5862 61.0188C36.7354 61.3946 37.0725 61.8146 37.6583 61.8589C38.2331 61.8699 38.6089 61.5107 38.8134 61.1791C39.0124 60.8364 39.0787 60.538 39.1616 60.2783C39.3218 59.7477 39.4545 59.2669 39.554 58.8468L39.9077 57.8189L39.985 57.5978C40.0071 57.537 40.0293 57.4762 40.0458 57.4265L40.0569 57.3878C40.1287 57.2662 39.8745 56.918 39.7419 56.9291" fill="#F46D44"/>
<path d="M21.1061 28.4115C20.9679 28.4944 20.6308 29.0416 20.476 29.3068C20.4539 29.34 20.4373 29.3732 20.4152 29.4063C20.3986 29.4284 20.3931 29.445 20.3931 29.445L20.36 29.5113C20.3213 29.5997 20.2771 29.6992 20.2273 29.7987C20.2052 29.8319 20.1886 29.865 20.1721 29.9037C19.5973 31.1804 19.0557 32.4736 18.5417 33.7724C17.4751 36.2704 16.1984 39.7024 15.1539 43.5932C14.6288 45.5331 14.2033 47.4066 13.8717 49.1309C13.7004 49.9875 13.5677 50.8276 13.4351 51.5847C13.3743 51.9495 13.2748 52.27 13.1145 52.4911C12.9598 52.7066 12.7056 52.8558 12.5066 52.8558C12.1142 52.8724 11.8158 52.259 11.5118 51.6787L10.5833 49.9544L10.4562 49.7167C10.3181 49.4625 10.097 49.0535 9.95882 48.7993C9.92566 48.733 9.88698 48.6777 9.85382 48.6224C9.85382 48.6224 9.84829 48.6114 9.83171 48.5893C9.8096 48.5616 9.79302 48.5395 9.77644 48.5119C9.64381 48.3295 9.373 47.9703 9.31221 47.9482C9.23483 47.9206 9.16299 48.4124 9.26247 48.733C9.28457 48.8822 9.34537 49.0535 9.43932 49.2304C9.56091 49.457 9.71565 49.7554 9.83724 49.982L9.85934 50.0373L10.8541 51.8776C11.0255 52.1871 11.1636 52.4856 11.3847 52.8172C11.4952 52.9774 11.6279 53.1432 11.8102 53.2869C11.9926 53.4251 12.2358 53.5246 12.4845 53.5246C12.9708 53.5411 13.3909 53.2924 13.6838 52.9387C13.9712 52.574 14.0983 52.1429 14.1867 51.745C14.3525 50.9657 14.5072 50.1588 14.7007 49.3077C15.071 47.6055 15.5131 45.7596 16.0326 43.8364C17.0661 39.9898 18.2377 36.5633 19.1551 34.0266C19.5807 32.9655 20.0118 31.9099 20.476 30.8653L20.7745 30.1856C20.8574 30.0032 20.9458 29.8098 21.0066 29.6716C21.0232 29.6329 21.0397 29.5942 21.0563 29.5611C21.2663 29.1687 21.2774 28.312 21.0895 28.4171" fill="#F46D44"/>
<path d="M39.9351 48.8102C39.8467 48.9318 39.7859 49.49 39.7361 49.7387L39.7195 49.8326L39.714 49.8713L39.7085 49.9321C39.703 50.0095 39.6919 50.0979 39.6753 50.1863C39.6643 50.214 39.6588 50.2471 39.6532 50.2803C39.5648 50.8385 39.3216 51.3304 38.9071 51.6509C38.5037 51.9825 37.9897 52.0267 37.5642 51.767C36.7352 51.2143 36.3207 49.7608 35.6464 48.3902C34.9943 46.992 34.2869 45.4666 33.5408 43.8639C32.032 40.675 30.6172 37.7901 29.5284 35.6679L28.0528 32.5453L27.9533 32.3298C27.8428 32.0977 27.666 31.7274 27.5609 31.4953C27.5333 31.4345 27.5057 31.3847 27.4725 31.335C27.4725 31.335 27.467 31.3239 27.4559 31.3073C27.4394 31.2852 27.4228 31.2576 27.4117 31.2355C27.2957 31.0697 27.0746 30.7436 27.0138 30.7271C26.9364 30.6994 26.8259 31.1471 26.8867 31.4345C26.8977 31.5726 26.9364 31.7219 27.0083 31.8821C27.1078 32.0866 27.2293 32.3574 27.3233 32.5619L27.3399 32.6116L28.915 35.9497C29.8656 38.1438 31.1975 41.0619 32.7062 44.2507C33.4744 45.8424 34.204 47.3622 34.8727 48.7494C35.2153 49.4402 35.5469 50.1034 35.8564 50.728C36.1936 51.358 36.5915 51.977 37.216 52.3417C37.73 52.6678 38.4595 52.6899 38.99 52.3859C39.5206 52.0986 39.9019 51.6233 40.1119 51.0872C40.2004 50.8606 40.2612 50.6229 40.3054 50.3908C40.3385 50.1974 40.3606 50.004 40.3662 49.8603C40.3662 49.8216 40.3662 49.7829 40.3662 49.7442C40.4159 49.3242 40.0401 48.6389 39.924 48.7992" fill="#F46D44"/>
<path d="M29.8601 26.9248L29.2743 26.7148L28.5503 25.4824L29.324 24.7031L30.0756 26.9027L29.8601 26.9248Z" fill="#F46D44"/>
<path d="M24.914 28.6383L25.2235 28.3233L24.6156 26.8477L24.1348 26.925L24.7261 28.7212L24.914 28.6383Z" fill="#F46D44"/>
<path d="M21.8631 16.1978L21.7471 16.8002L22.2334 17.7728L22.985 17.3197L22.2113 16.1978H21.8631Z" fill="#F46D44"/>
<path d="M52.4808 67.8055C53.0887 67.6452 53.9232 67.1976 54.5699 66.457C55.233 65.733 55.7139 64.7603 55.9791 63.8263C56.2555 62.8923 56.3605 62.0136 56.4213 61.378C56.4821 60.7369 56.4931 60.339 56.4655 60.3335C56.4323 60.3335 56.355 60.7259 56.2389 61.3504C56.1173 61.9749 55.957 62.8371 55.6475 63.7213C55.3436 64.6056 54.8572 65.4954 54.2272 66.1365C53.6082 66.7941 52.8787 67.1644 52.3371 67.3081C51.2483 67.6121 50.2701 67.5071 49.6069 67.4795C48.9382 67.4352 48.5569 67.4186 48.5403 67.5015C48.5292 67.5734 48.8829 67.7171 49.5572 67.8497C50.2204 67.9658 51.2483 68.1426 52.4753 67.8" fill="#F46D44"/>
<path d="M61.5058 11.4393C60.6271 11.2901 59.3117 11.2017 57.9466 11.6383C57.2669 11.8483 56.5926 12.2186 56.0289 12.7049C55.4597 13.1913 55.0065 13.7937 54.6528 14.4072C53.9509 15.6506 53.6359 16.9162 53.4258 17.8226C53.3264 18.2813 53.2545 18.6516 53.2103 18.9114C53.1661 19.1711 53.155 19.3203 53.1661 19.3203C53.1993 19.3259 53.3429 18.7566 53.6027 17.8668C53.8735 16.9826 54.2438 15.7446 54.9512 14.584C55.3049 14.0092 55.7581 13.4566 56.2942 13.02C56.8303 12.5834 57.4492 12.2628 58.0793 12.0804C59.3449 11.7046 60.5828 11.8041 61.4118 11.9423C63.0864 12.2462 64.3796 12.8542 65.2805 13.23C66.1813 13.6224 66.7008 13.8213 66.7395 13.7495C66.7727 13.6832 66.3195 13.3681 65.4463 12.8929C64.5731 12.4341 63.2743 11.7599 61.5003 11.4338" fill="#F46D44"/>
</svg>
