<svg width="76" height="76" viewBox="0 0 76 76" fill="none" xmlns="http://www.w3.org/2000/svg">
<path fill-rule="evenodd" clip-rule="evenodd" d="M19.1683 32.0421H53.785C55.6186 32.0421 57.2786 32.7876 58.483 33.9867C58.5264 34.0299 58.5643 34.0677 58.6077 34.1109L55.369 17.7011C55.369 17.7011 55.3636 17.6741 55.3582 17.6579L53.8934 10.247C53.8121 9.84192 53.6439 9.47461 53.3944 9.22614C53.1936 9.02628 52.9387 8.90745 52.624 8.90745H23.5137C23.1991 8.90745 22.9441 9.03168 22.7434 9.22614C22.4938 9.47461 22.3256 9.84192 22.2443 10.247L20.7795 17.6579C20.7795 17.6579 20.7795 17.6849 20.7741 17.7011L17.8772 32.3716C18.2623 32.161 18.7018 32.0421 19.1683 32.0421ZM53.1068 29.3414H23.5734C22.0435 29.3414 22.4775 28.1314 22.5318 28.0018C22.5426 27.9802 22.5535 27.9532 22.5589 27.9262L23.6927 22.1844C23.7687 21.8063 23.926 21.4606 24.1647 21.2229C24.36 21.0285 24.6095 20.9096 24.9133 20.9096H51.2732C51.577 20.9096 51.8265 21.0285 52.0218 21.2229C52.2605 21.4606 52.4179 21.8063 52.4938 22.1844L53.6764 28.1855C53.6819 28.2449 53.6873 28.3043 53.6873 28.3691C53.6873 28.6284 53.6276 28.8822 53.5191 29.0659C53.4323 29.2171 53.313 29.3252 53.1665 29.3414C53.1502 29.3414 53.134 29.3414 53.1177 29.3414H53.1068ZM53.237 30.0112C53.1936 30.0112 53.1502 30.0166 53.1014 30.0166H23.568C21.1104 30.0166 21.7777 28.0504 21.8862 27.7587L23.0146 22.0439C23.1123 21.5362 23.3347 21.0663 23.671 20.7314C23.9857 20.4127 24.398 20.2182 24.9025 20.2182H51.2623C51.7669 20.2182 52.1737 20.4127 52.4938 20.7314C52.8302 21.0663 53.0526 21.5362 53.1502 22.0439L54.3329 28.045V28.0666C54.3437 28.1638 54.3491 28.2611 54.3491 28.3529C54.3491 28.7256 54.2569 29.0983 54.0887 29.39C53.8989 29.7195 53.6059 29.9518 53.2316 30.0004L53.237 30.0112ZM8.41063 52.3572L14.8284 19.8509C14.9802 19.0947 15.3057 18.3925 15.8103 17.8956C16.2768 17.431 16.8898 17.1394 17.6331 17.1394H19.9604L21.3546 10.0742C21.4685 9.50162 21.718 8.96687 22.1032 8.58876C22.4667 8.22686 22.9387 8 23.5191 8H52.6294C53.2045 8 53.6819 8.22686 54.0453 8.58876C54.4305 8.97227 54.6801 9.50162 54.794 10.0742L56.1882 17.1394H57.615C58.3582 17.1394 58.9658 17.431 59.4378 17.8956C59.9369 18.3925 60.2678 19.0947 60.4197 19.8509L67.4884 55.6791C67.9278 56.727 68.1665 57.8776 68.1665 59.0767C68.1665 61.5344 67.1575 63.7652 65.5354 65.3803C63.9133 66.9953 61.6728 68 59.2045 68H11.6602C10.6945 68 9.82112 67.6111 9.19182 66.9791C8.5571 66.3471 8.1665 65.4775 8.1665 64.5214V53.632C8.1665 53.1783 8.2533 52.7515 8.41063 52.3518V52.3572ZM19.7813 18.0468L16.6837 33.7328C16.5643 34.0299 16.4992 34.3594 16.4992 34.6997V42.6237C16.4992 43.3583 16.7976 44.0227 17.2804 44.5034C17.7632 44.9842 18.4305 45.2812 19.1683 45.2812H53.785C55.6186 45.2812 57.2786 44.5358 58.483 43.3367C59.6873 42.1376 60.4359 40.4793 60.4359 38.659C60.4359 37.7677 60.2569 36.9197 59.9368 36.1473L56.3672 18.0468H57.615C58.0924 18.0468 58.4884 18.2359 58.7922 18.5384C59.1611 18.9057 59.4052 19.4404 59.5246 20.0292L66.1105 53.4105C65.926 53.1891 65.7361 52.9838 65.5354 52.7785C63.9133 51.1635 61.6728 50.1588 59.2045 50.1588H11.6602C10.9115 50.1588 10.2171 50.3965 9.64752 50.7962L15.7235 20.0292C15.8374 19.4404 16.0869 18.9057 16.4558 18.5384C16.7596 18.2359 17.1557 18.0468 17.6331 18.0468H19.7813ZM9.28405 52.6273L9.0779 53.6806V64.5268C9.0779 65.2344 9.36542 65.8772 9.83739 66.3471C10.3039 66.8117 10.9495 67.1034 11.6656 67.1034H59.2045C61.4233 67.1034 63.4359 66.2013 64.8898 64.7483C66.3491 63.2953 67.2551 61.2913 67.2551 59.0875C67.2551 56.8837 66.3491 54.8797 64.8898 53.4267C63.4305 51.9737 61.4179 51.0717 59.2045 51.0717H11.6602C10.9495 51.0717 10.3039 51.358 9.83197 51.8279C9.59869 52.0602 9.41424 52.3302 9.28405 52.6327V52.6273ZM23.3835 53.0918H12.3925C12.1972 53.0918 12.0236 53.1729 11.8989 53.2971C11.7741 53.4213 11.6927 53.5996 11.6927 53.794V64.381C11.6927 64.5755 11.7741 64.7483 11.8989 64.8779C12.0291 65.0022 12.2027 65.0832 12.3925 65.0832H58.6186C60.2732 65.0832 61.7813 64.408 62.8717 63.3223C63.9622 62.2366 64.6403 60.735 64.6403 59.0875C64.6403 57.44 63.9622 55.9384 62.8717 54.8527C61.7813 53.767 60.2786 53.0918 58.6186 53.0918H23.3835ZM58.2605 53.767H12.3925C12.3925 53.767 12.3817 53.767 12.3817 53.7724C12.3817 53.7724 12.3763 53.7778 12.3763 53.7832V64.3702C12.3763 64.3702 12.3763 64.381 12.3817 64.381C12.3817 64.381 12.3871 64.381 12.3925 64.381H58.6186C60.0833 64.381 61.4179 63.7814 62.3889 62.82C63.3546 61.8585 63.9567 60.5297 63.9567 59.0659C63.9567 57.6021 63.3546 56.2787 62.3889 55.3119C61.4233 54.3504 60.0887 53.7508 58.6186 53.7508H58.2605V53.767ZM17.5571 34.0029C17.6439 33.7976 17.7741 33.6194 17.926 33.4627C18.2461 33.1441 18.6855 32.9496 19.1683 32.9496H53.785C55.3636 32.9496 56.8012 33.5924 57.8374 34.6295C58.879 35.6665 59.5191 37.0925 59.5191 38.6644C59.5191 40.2362 58.8736 41.6622 57.8374 42.6993C56.7958 43.7364 55.3636 44.3738 53.785 44.3738H19.1683C18.6855 44.3738 18.2461 44.1793 17.926 43.8607C17.6059 43.542 17.4106 43.1044 17.4106 42.6237V34.7375L17.5571 33.9975V34.0029ZM27.7072 34.2081H19.7C19.5318 34.2081 19.3799 34.273 19.2714 34.3864C19.1629 34.4944 19.0924 34.6457 19.0924 34.8131V42.5211C19.0924 42.6831 19.1575 42.8344 19.2714 42.9424C19.3799 43.0558 19.5318 43.1206 19.6945 43.1206H53.3564C54.5878 43.1206 55.7054 42.6183 56.5191 41.8135C57.3329 41.0086 57.832 39.8905 57.832 38.6644C57.832 37.4382 57.3274 36.3255 56.5191 35.5153C55.7108 34.7051 54.5878 34.2081 53.3564 34.2081H27.7018H27.7072ZM53.1014 34.8887H19.7813V42.4401H53.3618C54.4034 42.4401 55.3528 42.0133 56.0417 41.3327C56.7307 40.6521 57.1538 39.7069 57.1538 38.6644C57.1538 37.6219 56.7253 36.682 56.0417 35.996C55.3528 35.31 54.4088 34.8887 53.3618 34.8887H53.1014Z" fill="#FFA811"/>
<path fill-rule="evenodd" clip-rule="evenodd" d="M29.3076 39.7664C27.9188 39.7124 26.4704 39.7016 25.0762 39.7286C25.0599 39.7286 25.049 39.7286 25.0328 39.7286H24.9894C23.6223 39.7556 22.1413 39.8258 20.7904 40.0095C20.6494 40.0311 19.087 40.2255 19.1467 40.5334C19.2172 40.7819 20.6602 40.5982 20.8501 40.582C22.2498 40.4848 23.6114 40.4362 25.0056 40.4092C25.0219 40.4092 25.0328 40.4092 25.049 40.4092H25.0924C26.4975 40.3822 27.908 40.3822 29.313 40.339C29.4812 40.339 31.0165 40.339 31.0436 40.0635C31.0165 39.7826 29.4866 39.7772 29.313 39.7664H29.3076Z" fill="#FFA811"/>
<path fill-rule="evenodd" clip-rule="evenodd" d="M33.7775 40.2525C33.7178 40.2309 33.5171 40.1985 33.452 40.1985C33.3815 40.1985 33.1808 40.2255 33.1265 40.2471C32.9963 40.3065 32.9746 40.4037 32.9746 40.5334C32.9746 40.663 32.9909 40.7656 33.1265 40.8197C33.1862 40.8467 33.3869 40.8737 33.452 40.8737C33.5225 40.8737 33.7233 40.8467 33.7775 40.8197C33.9077 40.7656 33.9294 40.6684 33.9294 40.5334C33.9294 40.3983 33.9131 40.3065 33.7775 40.2471V40.2525Z" fill="#FFA811"/>
<path fill-rule="evenodd" clip-rule="evenodd" d="M37.8463 37.0332C35.3183 36.9576 32.7523 36.9252 30.2242 36.9468H30.0778C27.5823 36.9684 24.9891 37.0494 22.5099 37.3141C22.3418 37.3303 19.255 37.6598 19.3038 37.9839C19.3852 38.2161 22.3309 37.9028 22.5588 37.8866C25.0759 37.7192 27.5552 37.649 30.0778 37.6274C30.0995 37.6274 30.1266 37.6274 30.1483 37.6274C30.17 37.6274 30.1971 37.6274 30.2188 37.6274C32.7577 37.6057 35.2911 37.6273 37.83 37.6057C38.0416 37.6057 41.0958 37.6328 41.1501 37.3411C41.0958 37.0656 38.047 37.044 37.8354 37.0332H37.8463Z" fill="#FFA811"/>
<path fill-rule="evenodd" clip-rule="evenodd" d="M52.9658 36.7252C51.8211 36.6982 50.633 36.7522 49.4884 36.8009C49.4775 36.8009 49.4667 36.8009 49.4504 36.8009H49.4179C48.2081 36.8603 46.9821 36.9305 45.7777 37.0223C45.6041 37.0331 44.237 37.0655 44.2153 37.3356C44.2425 37.6327 45.6204 37.5895 45.794 37.5949C46.9929 37.6057 48.2461 37.5409 49.445 37.4814C49.4613 37.4814 49.4667 37.4814 49.483 37.4814H49.5155C50.6656 37.422 51.8265 37.3626 52.9712 37.2978C53.1394 37.287 54.3057 37.287 54.3383 37.0223C54.322 36.7252 53.1285 36.7306 52.9604 36.7252H52.9658Z" fill="#FFA811"/>
<path fill-rule="evenodd" clip-rule="evenodd" d="M51.4522 39.4316C49.7921 39.3884 48.0833 39.41 46.4178 39.4478H46.3202C44.6276 39.4856 42.9187 39.5288 41.2207 39.599C41.0363 39.6098 38.9422 39.6314 38.9097 39.9015C38.9476 40.1986 41.0471 40.1716 41.2316 40.1716C42.9187 40.1932 44.6438 40.1608 46.331 40.1284C46.3419 40.1284 46.3636 40.1284 46.3744 40.1284C46.3907 40.1284 46.407 40.1284 46.4232 40.1284C48.0941 40.0906 49.7704 40.0528 51.4413 40.0041C51.6258 40.0041 53.6438 40.0149 53.6818 39.7395C53.6493 39.4424 51.6258 39.4424 51.4413 39.4316H51.4522Z" fill="#FFA811"/>
<path fill-rule="evenodd" clip-rule="evenodd" d="M32.4051 56.5974C29.5027 56.5758 26.595 56.6082 23.6926 56.646H23.5353C21.0398 56.673 18.5443 56.7162 16.0488 56.7216C15.5823 56.7216 15.1212 56.7054 14.6601 56.6838C13.8843 56.6406 13.0597 56.5434 12.2948 56.5272C12.1374 56.5164 11.9747 56.511 11.8174 56.538C11.7523 56.5488 11.698 56.5596 11.6384 56.5812C11.6004 56.5974 11.5733 56.6136 11.5461 56.6406C11.5082 56.6784 11.4865 56.7108 11.4756 56.7594C11.4593 56.8026 11.4648 56.8405 11.4756 56.8891C11.4756 56.9107 11.5136 56.9593 11.519 56.9809C11.5353 57.0187 11.6221 57.0889 11.6601 57.1159C11.7143 57.1591 12.17 57.4346 12.2351 57.3428C12.2785 57.2564 11.9421 56.9593 11.8771 56.8783C11.8608 56.8566 11.8228 56.8134 11.812 56.7864C11.812 56.8026 11.812 56.8242 11.812 56.8405C11.812 56.8675 11.8011 56.8837 11.7794 56.9053L11.7631 56.9161H11.8337C11.8337 56.9161 12.2134 56.9377 12.2514 56.9539C13.038 57.0781 13.8029 57.1753 14.6058 57.2456C15.0832 57.2888 15.5552 57.3104 16.0326 57.3158C18.5335 57.3482 21.0344 57.3428 23.5299 57.3158C23.557 57.3158 23.5895 57.3158 23.6167 57.3158C23.6384 57.3158 23.6655 57.3158 23.6926 57.3158C26.595 57.278 29.5027 57.2294 32.3997 57.1591C32.6438 57.1591 36.425 57.1267 36.4955 56.8567C36.4955 56.5704 32.5895 56.5866 32.3942 56.5866L32.4051 56.5974Z" fill="#FFA811"/>
<path fill-rule="evenodd" clip-rule="evenodd" d="M40.3366 56.5757C40.2606 56.5487 40.0382 56.5217 39.9568 56.5217H39.946C39.8646 56.5217 39.6422 56.5487 39.5662 56.5757C39.4198 56.6298 39.3872 56.7162 39.3872 56.862C39.3872 57.0079 39.4198 57.0943 39.5662 57.1483C39.6368 57.1753 39.8646 57.2023 39.946 57.2023C40.0274 57.2023 40.2498 57.1753 40.3257 57.1483C40.4776 57.0943 40.5102 57.0079 40.5102 56.862C40.5102 56.7162 40.4776 56.6298 40.3257 56.5757H40.3366Z" fill="#FFA811"/>
<path fill-rule="evenodd" clip-rule="evenodd" d="M49.0382 58.38C48.908 58.38 48.7778 58.3908 48.6476 58.3962C44.9423 58.5529 41.21 58.8932 37.5102 59.2173C37.3854 59.2281 37.266 59.2389 37.1413 59.2551C37.0924 59.2551 37.0436 59.2659 36.9948 59.2713C36.946 59.2713 36.8971 59.2821 36.8429 59.2875C32.2154 59.7088 27.5716 60.2112 22.9387 60.4866C22.7326 60.4974 19.8574 60.5082 19.7923 60.6973C19.6566 61.1888 22.8736 61.0538 22.9659 61.0538C27.5608 60.8755 32.3131 60.3732 36.9026 59.9573C36.9568 59.9573 37.0056 59.9465 37.0599 59.9411C37.1033 59.9411 37.1575 59.9303 37.2064 59.9249C37.3311 59.9141 37.4451 59.9033 37.5698 59.8925C41.2751 59.5414 44.9695 59.2065 48.6801 58.9688C48.8049 58.958 48.9405 58.9526 49.0653 58.9472C50.2317 58.8824 51.3818 58.8338 52.5481 58.8175C52.9604 58.8013 53.3836 58.85 53.785 58.8608C53.8827 58.8716 54.436 58.9904 54.4957 58.931C54.6096 58.7473 53.8989 58.5745 53.8338 58.5529C53.4216 58.4503 52.9876 58.4124 52.5644 58.3854C51.3926 58.3044 50.2046 58.3314 49.0328 58.3746L49.0382 58.38Z" fill="#FFA811"/>
<path fill-rule="evenodd" clip-rule="evenodd" d="M17.5356 60.573C17.4434 60.546 17.221 60.5082 17.1233 60.519C17.0148 60.5298 16.7924 60.6108 16.6947 60.6594C16.5428 60.7296 16.3692 60.8323 16.4181 61.0213C16.4669 61.2104 16.6622 61.2104 16.8304 61.2104C16.9551 61.2104 17.0528 61.1996 17.183 61.1996C17.2969 61.178 17.4108 61.1672 17.5248 61.1456C17.6875 61.1077 17.8611 61.0591 17.8611 60.8647C17.8611 60.6702 17.6929 60.6216 17.5356 60.573Z" fill="#FFA811"/>
<path fill-rule="evenodd" clip-rule="evenodd" d="M59.3942 61.059C57.2351 61.2804 55.1302 61.4047 52.9602 61.4641H52.8355C50.6763 61.5235 48.528 61.5127 46.3689 61.5451C46.1573 61.5451 43.2984 61.5343 43.2441 61.8152C43.2984 62.0906 46.1519 62.1123 46.3635 62.1177C48.5118 62.1771 50.7089 62.1987 52.8572 62.1393H52.9819C55.1248 62.0798 57.349 61.9286 59.4702 61.6207C59.6384 61.5991 62.595 61.1616 62.5353 60.8537C62.4431 60.6268 59.6112 61.0319 59.3942 61.0536V61.059Z" fill="#FFA811"/>
<path fill-rule="evenodd" clip-rule="evenodd" d="M59.6436 56.5489C58.3633 56.457 57.0505 56.403 55.7702 56.3598H55.7322C55.7322 56.3598 55.7051 56.3598 55.6888 56.3598C54.5008 56.3382 53.1717 56.3166 51.989 56.43C51.8425 56.4516 50.8661 56.5381 50.9583 56.8621C51.0397 57.1052 51.81 57.008 52.027 57.0026C53.2476 56.9864 54.4465 57.0026 55.6671 57.0404H55.7105C55.7105 57.0404 55.7322 57.0404 55.7485 57.0404C57.0342 57.0674 58.3416 57.1214 59.6219 57.116C59.7901 57.116 60.9076 57.1592 60.9239 56.8568C60.9076 56.5705 59.8118 56.5597 59.6436 56.5435V56.5489Z" fill="#FFA811"/>
<path fill-rule="evenodd" clip-rule="evenodd" d="M24.577 12.7641C24.6096 12.6129 24.6204 12.3806 24.6313 12.224C24.6204 12.0673 24.6096 11.835 24.577 11.6838C24.5336 11.5164 24.4686 11.4299 24.2895 11.4299C24.1105 11.4299 24.0454 11.5164 24.002 11.6838C23.964 11.835 23.9532 12.0673 23.9478 12.224V12.2348C23.9478 12.3914 23.964 12.6237 24.002 12.7749C24.0454 12.9478 24.1051 13.0342 24.2895 13.0342C24.474 13.0342 24.5282 12.9478 24.577 12.7749V12.7641Z" fill="#FFA811"/>
<path fill-rule="evenodd" clip-rule="evenodd" d="M24.4141 14.6924C24.4358 14.6168 24.4466 14.5358 24.4683 14.4493C24.4683 14.3521 24.4792 14.2765 24.4792 14.1793C24.4792 14.0118 24.4629 13.8822 24.2893 13.8228C24.1103 13.7688 24.0181 13.866 23.9313 14.0064C23.8825 14.082 23.8011 14.2765 23.7902 14.3629C23.7794 14.4493 23.8119 14.633 23.8391 14.7032C23.8933 14.8545 23.9584 14.9409 24.1266 14.9409C24.2947 14.9409 24.3653 14.8491 24.4141 14.6924Z" fill="#FFA811"/>
<path fill-rule="evenodd" clip-rule="evenodd" d="M50.6657 13.4501C50.6495 13.315 50.6006 13.1692 50.5681 13.0395C50.5138 12.9099 50.4976 12.8343 50.4542 12.6992C50.3999 12.5426 50.3565 12.3914 50.1612 12.386C49.9605 12.3751 49.9062 12.5588 49.8791 12.7317C49.8574 12.8721 49.8791 13.126 49.9225 13.261V13.2718C49.9605 13.3636 50.069 13.5635 50.1287 13.6391C50.2263 13.7741 50.3131 13.8714 50.4867 13.8228C50.6712 13.7741 50.6929 13.6229 50.6712 13.4501H50.6657Z" fill="#FFA811"/>
<path fill-rule="evenodd" clip-rule="evenodd" d="M59.3673 44.1038C59.3564 43.7797 59.3022 43.38 59.2588 43.0451V43.0343V43.0235C59.2045 42.7264 59.1286 42.3267 59.0364 42.0512C58.9604 41.8621 58.8845 41.7541 58.6837 41.8189C58.4939 41.8784 58.4722 41.9702 58.4722 42.1646C58.483 42.4617 58.5427 42.829 58.5861 43.1315V43.1477C58.6458 43.4772 58.7109 43.8769 58.8085 44.1956C58.879 44.3901 58.9333 44.5791 59.1666 44.5359C59.3836 44.4927 59.3781 44.2982 59.3781 44.0984L59.3673 44.1038Z" fill="#FFA811"/>
<path fill-rule="evenodd" clip-rule="evenodd" d="M60.0564 46.2915C60.0672 46.2483 60.0672 46.1078 60.0564 46.0592C60.0455 46.016 59.9804 45.8809 59.9533 45.8539C59.8665 45.7729 59.7526 45.7945 59.6495 45.8215C59.5464 45.8431 59.4325 45.8755 59.3945 45.989C59.3783 46.0322 59.3837 46.1726 59.3945 46.2213C59.4054 46.2699 59.4651 46.3995 59.4976 46.4319C59.5844 46.5129 59.6983 46.4859 59.8014 46.4643C59.9045 46.4373 60.013 46.4049 60.0564 46.2915Z" fill="#FFA811"/>
<path fill-rule="evenodd" clip-rule="evenodd" d="M60.7072 49.1651C60.7181 48.9383 60.6638 48.5872 60.6042 48.3711V48.3603C60.5445 48.155 60.4794 47.9552 60.4197 47.7553C60.3655 47.5987 60.3221 47.4258 60.1214 47.415C59.8989 47.415 59.8555 47.6365 59.8501 47.8147C59.8338 48.0146 59.8881 48.3333 59.9423 48.5277V48.544C60.0129 48.7762 60.0725 48.9869 60.1322 49.2245C60.181 49.4028 60.2298 49.6567 60.4414 49.6621C60.6801 49.6621 60.691 49.3488 60.7072 49.1705V49.1651Z" fill="#FFA811"/>
<path fill-rule="evenodd" clip-rule="evenodd" d="M13.6187 44.4657C13.8303 43.7635 13.9714 43.0181 14.145 42.3051C14.1667 42.2133 14.1884 42.1107 14.2101 42.0134C14.2101 42.0026 14.2101 41.9972 14.2101 41.9864C14.2101 41.9756 14.2101 41.9702 14.2101 41.9594C14.3945 41.0628 14.5952 40.1337 14.7417 39.2317C14.7797 38.9994 14.9099 38.5565 14.6441 38.4646C14.3511 38.3836 14.2535 38.8968 14.1884 39.1074C13.9388 39.9717 13.7381 40.9331 13.5482 41.8244C13.5482 41.8352 13.5482 41.8406 13.5482 41.8514C13.5482 41.8622 13.5374 41.8676 13.5374 41.8784C13.5211 41.9756 13.4994 42.0783 13.4777 42.1755C13.3366 42.8885 13.1793 43.6285 13.06 44.3415C13.06 44.3523 13.06 44.3631 13.06 44.3739C13.0166 44.6116 12.9677 44.8871 12.9569 45.1193C12.9189 45.384 12.8918 45.3786 13.0437 45.5028C13.2064 45.6325 13.3149 45.33 13.3583 45.2274C13.4668 45.0167 13.5482 44.7304 13.6133 44.4981C13.6133 44.4873 13.6242 44.4765 13.6242 44.4657H13.6187Z" fill="#FFA811"/>
<path fill-rule="evenodd" clip-rule="evenodd" d="M13.1682 47.5715C13.1844 47.5391 13.1899 47.4797 13.2224 47.4689C13.2116 47.4473 13.2387 47.296 13.2387 47.2636C13.2387 47.107 13.2007 46.9989 13.0434 46.9503C12.8861 46.8963 12.8047 46.9503 12.6962 47.0746C12.6582 47.1178 12.566 47.2636 12.5606 47.323C12.5443 47.3878 12.5714 47.5175 12.5986 47.5769C12.6691 47.7065 12.7505 47.7443 12.8915 47.7443C13.0325 47.7443 13.1085 47.7065 13.179 47.5715H13.1682Z" fill="#FFA811"/>
</svg>
