<svg width="75" height="76" viewBox="0 0 75 76" fill="none" xmlns="http://www.w3.org/2000/svg">
<path fill-rule="evenodd" clip-rule="evenodd" d="M11.6147 25.8026C11.6147 25.8026 11.582 25.876 11.5657 25.9087C10.8805 27.3688 10.3339 28.8535 9.91791 30.3626L18.4017 31.472C19.3235 30.591 22.9046 27.6788 25.9391 25.3866C27.799 23.9835 29.5203 22.8007 30.4747 22.3847L32.6935 9.78976C31.0212 10.0753 29.3734 10.5158 27.7746 11.0868C20.8978 13.5666 14.9674 18.6649 11.6065 25.7945L11.6147 25.8026ZM63.5287 38.1202L56.5785 53.0073C56.7661 53.301 57.068 53.8231 57.4269 54.492C57.8185 55.2098 58.3079 56.1397 58.83 57.1431C60.6409 55.1282 62.1827 52.8197 63.3982 50.242C63.4145 50.2094 63.4308 50.1686 63.4471 50.1359C65.3641 46.0246 66.2288 41.6931 66.1391 37.4431C65.5354 37.6471 64.997 37.8102 64.5647 37.9244C64.1568 38.0305 63.806 38.1039 63.5287 38.1202ZM55.6567 52.5668C54.6778 52.5016 52.924 52.6973 51.007 53.0073C47.9969 53.4886 44.4402 54.1901 43.0535 54.5572L38.4282 45.6413C39.0237 44.9234 40.1086 41.9623 41.0549 38.9114C41.9604 35.9911 42.768 32.8995 42.9066 31.5454L54.0579 28.3803C54.5636 29.3674 55.877 31.007 57.3535 32.6466C59.2623 34.7594 61.4893 36.9618 62.5661 37.7776L55.6567 52.575V52.5668ZM42.6048 30.5583C41.9359 29.8976 40.2228 28.5761 38.314 27.1812C35.671 25.2479 32.5956 23.1107 31.5107 22.4418L33.7703 9.62662C38.9992 8.93324 44.4892 9.67556 49.6202 12.0738C49.6529 12.0901 49.6855 12.1064 49.7263 12.1228C53.1035 13.7134 56.0238 15.8833 58.4303 18.461C57.4514 20.1822 56.3664 22.1237 55.4936 23.7877C54.686 25.3213 54.0742 26.6347 53.8947 27.3525L42.613 30.5583H42.6048ZM9.65688 31.3496L18.2222 32.4672C18.8095 34.017 22.717 44.1566 24.1608 46.2123L19.8618 55.2424C19.4621 55.0548 18.9237 54.859 18.2956 54.6714C17.0067 54.2799 15.1876 53.8067 13.3196 53.3499C12.202 51.5798 11.2802 49.7036 10.5705 47.7377C8.71061 42.5741 8.31905 36.8884 9.64872 31.3496H9.65688ZM20.6857 55.9032C20.751 56.1397 20.8244 56.8657 20.906 57.8609C20.9794 58.8235 21.061 60.1124 21.1426 61.5073C22.4396 62.4046 23.8264 63.2122 25.2947 63.9055C25.3273 63.9218 25.3681 63.9382 25.4008 63.9545C29.92 66.0672 34.7084 66.8911 39.35 66.5893C40.4757 62.3312 42.0664 55.7645 42.2051 55.1853C42.2051 55.169 42.2051 55.1527 42.2133 55.1364L37.4819 46.0246C36.0544 46.3428 33.1422 46.6772 30.4665 46.8404C28.2395 46.9709 26.1186 46.9791 25.05 46.7506L20.6939 55.9032H20.6857ZM14.4861 55.0467C15.9626 57.0452 17.7083 58.8643 19.7069 60.4468C19.6498 59.5332 19.5927 58.6767 19.5437 57.967C19.4703 57.0126 19.4132 56.3845 19.3887 56.3029C19.3561 56.205 18.8422 56.2539 17.9204 55.9766C16.9741 55.6911 15.7831 55.3729 14.4942 55.0385L14.4861 55.0467ZM20.1066 62.4617C20.1066 62.4617 20.0576 62.4291 20.0332 62.4046C16.9252 60.1858 14.3393 57.4368 12.3407 54.3451C12.3244 54.3288 12.308 54.3043 12.2999 54.2799C11.0681 52.3711 10.0566 50.3236 9.28979 48.1945C6.6794 40.9753 6.8344 32.7608 10.3503 25.2642V25.2479C13.8743 17.7513 20.0984 12.4001 27.3178 9.78976C34.5371 7.17942 42.7517 7.33441 50.2483 10.8502H50.2565C53.96 12.5959 57.1496 15.0023 59.7355 17.8574C59.7599 17.8818 59.7763 17.8982 59.8007 17.9226C62.4111 20.8266 64.4097 24.1956 65.7149 27.8175C66.7101 30.5665 67.2974 33.4624 67.4606 36.4071C67.4606 36.4316 67.4606 36.4561 67.4606 36.4806C67.7053 41.2444 66.8161 46.1307 64.6462 50.7477C63.2268 53.7823 61.3588 56.4579 59.1726 58.7501C59.1644 58.7582 59.1563 58.7746 59.14 58.7827C55.9096 62.1435 51.9696 64.6642 47.6788 66.2141C45.2071 67.1114 42.613 67.6742 39.97 67.9026C39.9373 67.9026 39.9047 67.9026 39.8639 67.9026C34.8389 68.3105 29.6345 67.4458 24.74 65.1454H24.7318C23.0759 64.3623 21.5341 63.4569 20.0903 62.4372L20.1066 62.4617ZM66.0738 36.0238C65.8862 33.3726 65.3315 30.7786 64.4342 28.2988C63.2921 25.1256 61.5872 22.1563 59.3847 19.5459C58.4629 21.1692 57.484 22.9394 56.7009 24.424C55.8199 26.1126 55.1836 27.4178 55.1999 27.687C55.2162 28.0867 56.6683 29.8486 58.365 31.733C60.543 34.1557 63.0474 36.6519 63.4879 36.7987C63.496 36.7987 63.7652 36.7334 64.2057 36.6111C64.7115 36.4724 65.3478 36.2766 66.0656 36.0319L66.0738 36.0238ZM40.7939 66.4669C41.7891 62.6575 43.1187 57.2084 43.4532 55.8053C44.3587 55.5524 48.0622 54.8509 51.2191 54.3533C53.5032 53.9862 55.4039 53.6925 55.412 53.7007C55.4691 53.766 55.7791 54.3125 56.2278 55.1445C56.6764 55.9766 57.2474 57.0452 57.8348 58.1954C54.8165 61.2381 51.1783 63.5303 47.2301 64.9578C45.1581 65.7083 42.9964 66.2141 40.7939 66.4751V66.4669ZM19.5682 32.1735C20.4002 31.4149 23.8182 28.6985 26.7631 26.4715C28.9003 24.8564 30.6705 23.5267 30.6786 23.5267C31.0049 23.6409 34.4963 26.0881 37.5064 28.2906C39.6845 29.8813 41.5607 31.3007 41.6504 31.4883C41.7565 31.7085 40.7857 35.1428 39.7416 38.5036C38.7871 41.5626 37.8001 44.4503 37.5309 44.6297C37.1393 44.8908 33.6235 45.2823 30.3768 45.4781C27.848 45.6331 25.5639 45.6657 25.2376 45.4292C24.4382 44.85 20.3839 34.3189 19.56 32.1735H19.5682Z" fill="#FF5C85"/>
<path fill-rule="evenodd" clip-rule="evenodd" d="M21.3278 33.9108C21.5715 33.1263 21.8457 32.5169 22.1656 31.7705V31.7552C22.1656 31.7552 22.1808 31.74 22.1808 31.7324C22.4855 31.0012 22.8207 30.0872 22.9044 29.3102C22.9273 29.097 23.0187 27.9849 22.6074 28.0002C22.2951 28.023 22.1808 28.8913 22.1047 29.1655C21.8838 29.9881 21.6248 30.5899 21.2897 31.3592V31.382C21.2897 31.382 21.2897 31.3973 21.2744 31.4049C20.9774 32.1056 20.6346 32.9968 20.5356 33.7508C20.5051 33.9641 20.3985 35 20.8022 35C21.1069 34.9848 21.244 34.185 21.3201 33.9184L21.3278 33.9108Z" fill="#FF5C85"/>
<path fill-rule="evenodd" clip-rule="evenodd" d="M23.4275 36.7703C23.7356 35.2785 24.1572 33.9812 24.6436 32.5461C24.6436 32.5299 24.6436 32.5218 24.6436 32.5137C24.6436 32.4975 24.6599 32.4894 24.668 32.4731C25.0734 31.3056 25.5679 29.8948 25.7301 28.6786C25.7544 28.4597 25.9166 26.976 25.4544 27.0003C25.122 27.0246 24.968 28.2246 24.8869 28.5165C24.5626 29.7732 24.1166 30.9164 23.7031 32.1488C23.7031 32.165 23.7031 32.1731 23.6869 32.1813C23.6869 32.1975 23.6869 32.2056 23.6707 32.2218C23.1923 33.6001 22.7383 35.1812 22.568 36.6325C22.5437 36.8514 22.3329 39 22.8032 39C23.1356 38.9757 23.3545 37.0703 23.4193 36.7703H23.4275Z" fill="#FF5C85"/>
<path fill-rule="evenodd" clip-rule="evenodd" d="M25.426 38.843C25.7977 36.791 26.2581 34.8198 26.7671 32.8001C26.7671 32.7758 26.7671 32.7597 26.7833 32.7354C26.7833 32.7112 26.7994 32.695 26.7994 32.6708C27.3246 30.5946 27.8981 28.5264 28.399 26.4582C28.4637 26.2159 29.0534 24.1558 28.6495 24.0023C28.2294 23.9215 27.6558 25.9816 27.575 26.224C26.9206 28.2437 26.3309 30.3764 25.8138 32.4284C25.8138 32.4527 25.7977 32.4688 25.7977 32.4931C25.7977 32.5092 25.7815 32.5335 25.7734 32.5577C25.2887 34.5532 24.8121 36.6859 24.5697 38.7218C24.5535 38.9318 24.3193 41 24.8121 41C25.1756 40.9758 25.3695 39.1257 25.418 38.843H25.426Z" fill="#FF5C85"/>
<path fill-rule="evenodd" clip-rule="evenodd" d="M27.6532 42.499C28.0131 39.8981 28.4466 37.428 29.0355 34.8598C29.0355 34.8352 29.0355 34.8189 29.0355 34.7943C29.0355 34.778 29.0518 34.7534 29.06 34.7289C29.6326 32.2752 30.2951 29.8705 30.9085 27.4413C30.9739 27.1714 32.0617 23.0983 31.661 23.0001C31.2602 22.9756 30.1724 26.8852 30.066 27.2123C29.3463 29.5924 28.6184 32.0707 28.054 34.4999C28.054 34.5244 28.054 34.5408 28.0376 34.5653C28.0376 34.5817 28.0213 34.6062 28.0213 34.6307C27.4406 37.1499 27.0234 39.8163 26.7862 42.3927C26.6717 43.7177 26.549 45.149 26.5899 46.474C26.5899 46.474 26.6063 46.4168 26.6145 46.4086C26.6145 46.4086 26.3936 46.8993 26.5654 46.9893C26.7208 47.0629 26.9498 46.7358 27.0316 46.6294C27.048 46.5885 27.0643 46.5558 27.0725 46.5068C27.1134 46.4822 27.6042 42.7444 27.645 42.499H27.6532Z" fill="#FF5C85"/>
<path fill-rule="evenodd" clip-rule="evenodd" d="M30.5741 41.4661C31.0387 38.9998 31.5455 36.525 32.01 34.0502V34.0164C32.01 34.0164 32.01 33.9911 32.0269 33.9742C32.0438 33.8644 32.0607 33.7715 32.0776 33.6617C32.4999 31.4065 32.9729 29.4301 33.75 27.2763C33.8091 27.1242 33.8682 26.9553 33.9189 26.8033C35.2534 24.9198 32.5083 26.854 33.0573 27.4959C33.4121 27.6395 35.0676 25.663 33.1925 26.4401C33.0911 26.6006 33.0067 26.761 32.9222 26.9215C32.01 28.8304 31.4357 31.4065 31.0387 33.4674C31.0133 33.5772 30.9964 33.6701 30.9711 33.7715V33.8137C30.9711 33.8137 30.9711 33.8391 30.9542 33.856C30.5066 36.3307 30.0251 38.8308 29.6788 41.3225C29.6535 41.6012 29.2227 43.9747 29.7971 44C30.2532 43.9831 30.4981 41.804 30.5657 41.4577L30.5741 41.4661Z" fill="#FF5C85"/>
<path fill-rule="evenodd" clip-rule="evenodd" d="M33.6392 42.4953C34.3063 40.502 34.7851 38.1868 35.2167 36.1149C35.2167 36.0914 35.2167 36.0679 35.2167 36.0522C35.2167 36.0286 35.2324 36.0051 35.2324 35.9815C35.6797 33.737 36.1114 31.4375 36.4881 29.1773C36.5352 28.9026 36.9433 27.1369 36.5509 27.0034C36.0957 26.9093 35.7347 28.7771 35.6797 29.0125C35.1539 31.2413 34.7301 33.533 34.2671 35.7853C34.2671 35.801 34.2514 35.8324 34.2514 35.8481C34.2514 35.8717 34.2357 35.8952 34.2357 35.9109C33.8041 38.0377 33.3881 40.141 32.8466 42.2442C32.7603 42.5581 32.2973 43.7432 32.6033 43.9629C33.0507 44.2611 33.5686 42.668 33.6392 42.4875V42.4953Z" fill="#FF5C85"/>
<path fill-rule="evenodd" clip-rule="evenodd" d="M36.5519 42.4566C37.2692 40.0627 37.9086 37.5909 38.5558 35.1737C38.5558 35.1503 38.5558 35.1191 38.5714 35.1035C38.5714 35.0801 38.587 35.0489 38.587 35.0255C39.0159 33.349 39.6865 31.0721 39.9438 29.4113C40.4428 28.5145 38.4311 29.3099 39.4058 29.6764C39.4058 29.6764 40.6066 29.3801 39.1406 29.2241C38.587 30.9786 38.1192 32.9748 37.6435 34.7682C37.6435 34.7916 37.6279 34.8228 37.6279 34.8462C37.6123 34.8696 37.6123 34.893 37.6045 34.9163C36.9807 37.3414 36.3257 39.7976 35.7565 42.2461C35.6785 42.5892 35.2497 43.8524 35.7097 43.9927C36.1776 44.1097 36.4505 42.7841 36.5519 42.4566Z" fill="#FF5C85"/>
<path fill-rule="evenodd" clip-rule="evenodd" d="M58.3395 30.8141C58.7809 30.2229 59.3879 27.4088 59.5692 26.5653C59.5692 26.5496 59.5692 26.5259 59.5692 26.5023C59.5692 26.4786 59.5849 26.4628 59.5849 26.4471C59.9633 24.6814 60.3495 22.7895 60.6097 21.0159C60.6727 20.5429 60.8462 20.0621 60.3811 20.0069C59.9081 19.9517 59.9554 20.2276 59.7899 20.8503C59.3642 22.6161 59.0174 24.4449 58.6153 26.2264C58.6153 26.2421 58.6153 26.2658 58.5996 26.2815C58.5996 26.2973 58.5996 26.321 58.5838 26.3446C58.2843 27.7398 57.9926 28.9774 57.6142 30.3648C57.63 30.3648 58.6232 30.1126 57.7955 30.0495C57.3068 30.081 57.3856 31.5078 58.3237 30.8062L58.3395 30.8141Z" fill="#FF5C85"/>
<path fill-rule="evenodd" clip-rule="evenodd" d="M59.4071 31.9212C59.7691 30.3658 60.123 28.8269 60.5016 27.2716C60.5016 27.2551 60.5016 27.2469 60.518 27.2222C60.518 27.2057 60.518 27.1975 60.5345 27.1728C60.8637 25.7574 61.2504 24.2596 61.5302 22.8442C61.6043 22.3504 61.7277 22.1282 61.2916 22.0295C60.8554 21.9225 60.8801 22.1036 60.6908 22.622C60.2465 23.9881 59.8761 25.527 59.5305 26.9259C59.5305 26.9506 59.5305 26.9589 59.5305 26.9836C59.5305 27 59.514 27.0082 59.514 27.0247C59.1519 28.5389 58.7569 30.2424 58.5512 31.773C58.5265 32.0446 58.3455 33.0321 58.8557 32.9992C59.2918 32.9498 59.3165 32.3244 59.4153 31.9212H59.4071Z" fill="#FF5C85"/>
<path fill-rule="evenodd" clip-rule="evenodd" d="M61.5513 34.5217C61.8947 33.4738 62.1237 32.3379 62.3966 31.2725C62.4143 31.2196 62.4231 31.1668 62.4319 31.114C62.4319 31.0964 62.4319 31.0876 62.4319 31.07C62.4319 31.0524 62.4495 31.0435 62.4495 31.0259C62.7401 29.6875 63.0747 28.217 63.286 26.8698C63.3476 26.3415 63.4445 26.1477 62.9954 26.0245C62.5375 25.91 62.5199 26.2094 62.3702 26.6673C61.9916 27.9793 61.6834 29.441 61.3752 30.7706C61.3752 30.797 61.3752 30.8058 61.3752 30.8234C61.3752 30.841 61.3576 30.8498 61.3576 30.8674C61.34 30.9203 61.3312 30.9731 61.3224 31.0259C61.0934 32.1002 60.8381 33.2185 60.6532 34.3015C60.6532 34.328 60.6532 34.3544 60.6356 34.3808C60.5827 34.689 60.4859 35.1645 60.5035 35.4815C60.5035 35.5783 60.4859 35.6928 60.5299 35.7808C60.5475 35.8161 60.5475 35.8425 60.5827 35.8513L60.6268 35.8689C60.6444 35.8689 60.6532 35.8689 60.662 35.8865C60.662 35.8865 60.6796 35.8865 60.6796 35.9041C60.6796 35.9217 60.6796 35.9305 60.662 35.9393C60.662 35.9393 60.6561 35.9511 60.6444 35.9746L60.662 35.9922C60.662 36.0098 60.706 35.9922 60.706 35.9922C60.7324 35.9922 60.75 35.9922 60.7764 35.9746C60.8293 35.9746 60.8557 35.9481 60.8909 35.9129C60.9878 35.8513 61.0494 35.7456 61.0934 35.64C61.2872 35.367 61.4192 34.9091 61.5249 34.5921C61.5249 34.5657 61.5513 34.5305 61.5513 34.5129V34.5217Z" fill="#FF5C85"/>
<path fill-rule="evenodd" clip-rule="evenodd" d="M63.5953 34.8852C63.5953 34.8852 63.6297 34.7736 63.6383 34.7564C63.9732 33.9407 64.2737 33.039 64.5485 32.1975V32.1804C64.5485 32.1632 64.5485 32.1546 64.5485 32.1546C64.5485 32.1288 64.5657 32.1202 64.5657 32.0945C64.8834 31.0297 65.2698 29.8275 65.5188 28.7456C65.6133 28.2304 65.6562 28.1789 65.2612 28.0501C64.8576 27.9213 64.849 28.0329 64.6515 28.4794C64.2394 29.5012 63.8873 30.7034 63.5438 31.7682C63.5438 31.7854 63.5266 31.8025 63.5266 31.8283C63.5266 31.8283 63.5266 31.8455 63.5266 31.8541C63.5266 31.8541 63.5266 31.8712 63.5266 31.8798C63.2604 32.7299 63.0028 33.6144 62.7796 34.4731C62.7624 34.516 62.7624 34.5589 62.7452 34.6019C62.5392 35.3747 62.3159 35.5722 62.7452 35.9328C63.1746 36.2849 63.5009 35.1514 63.6125 34.8852H63.5953Z" fill="#FF5C85"/>
<path fill-rule="evenodd" clip-rule="evenodd" d="M43.3887 64.9611C43.6896 64.0351 43.9597 63.0242 44.1989 62.075V62.0519C44.1989 62.0519 44.1989 62.0287 44.2144 62.021C44.4304 61.1027 44.6465 60.0764 44.7623 59.1426C44.7854 58.888 44.9243 58.07 44.5308 58.0005C44.1604 57.9774 44.0292 58.7182 43.9597 58.9883C43.7205 59.9143 43.4967 60.8635 43.2652 61.7895C43.2652 61.8049 43.2652 61.8126 43.2652 61.8204C43.2652 61.8204 43.2652 61.8358 43.2652 61.8435C43.0414 62.8004 42.8022 63.7959 42.6093 64.7605C42.563 65.0074 42.3392 65.8794 42.7096 65.9952C43.0877 66.0724 43.3115 65.2004 43.3964 64.9611H43.3887Z" fill="#FF5C85"/>
<path fill-rule="evenodd" clip-rule="evenodd" d="M45.3295 65.7148C45.7849 64.9398 46.3203 62.5748 46.552 61.608C46.552 61.592 46.552 61.576 46.552 61.5521C46.552 61.5361 46.5679 61.5201 46.5679 61.4961C46.9515 59.7783 47.351 57.9246 47.6066 56.1908C47.6546 55.8313 47.8703 55.0323 47.3829 55.0003C46.9115 54.9843 46.8955 55.5676 46.7757 56.031C46.3682 57.7648 46.0007 59.5306 45.5852 61.2724C45.5852 61.2884 45.5852 61.3044 45.5852 61.3283C45.5852 61.3443 45.5692 61.3603 45.5692 61.3843C45.2656 62.7026 44.978 64.021 44.5864 65.3153C44.6504 65.2754 45.5932 65.2274 44.7782 65.1795C44.171 65.2115 44.6504 66.5857 45.3295 65.7068V65.7148Z" fill="#FF5C85"/>
<path fill-rule="evenodd" clip-rule="evenodd" d="M47.3538 63.3537C47.5798 62.1109 47.838 60.9892 48.1527 59.7706C48.1527 59.7545 48.1527 59.7545 48.1527 59.7383C48.1527 59.7222 48.1527 59.7222 48.1689 59.706C48.4755 58.4713 48.8226 57.1478 49.0404 55.905C49.0727 55.6629 49.4036 54.1054 48.9759 54.0005C48.5966 53.9682 48.2819 55.4773 48.2092 55.7194C47.8622 56.9622 47.5071 58.2131 47.1843 59.4559C47.1843 59.472 47.1843 59.4801 47.1843 59.4962C47.1843 59.4962 47.1843 59.5124 47.1843 59.5204C46.8857 60.6906 46.5952 62.0625 46.5226 63.2569C46.5064 63.4828 46.4015 65 46.8373 65C47.2005 64.9758 47.3215 63.6442 47.3699 63.3618L47.3538 63.3537Z" fill="#FF5C85"/>
<path fill-rule="evenodd" clip-rule="evenodd" d="M51.3959 60.8222C51.6251 60.0792 51.7911 59.2729 51.9887 58.522C52.0282 58.348 52.0678 58.1741 52.1073 58.0002C52.1073 57.9844 52.1073 57.9844 52.1073 57.9686C52.1073 57.9528 52.1073 57.9449 52.1073 57.937C52.3207 56.9647 52.5657 55.8344 52.6764 54.8542C52.7001 54.538 52.795 54.0242 52.376 54.0005C51.9808 53.9847 51.9492 54.3562 51.8543 54.704C51.5935 55.6921 51.3642 56.7355 51.135 57.7315C51.135 57.7315 51.135 57.7552 51.135 57.7631C51.135 57.7631 51.135 57.7789 51.135 57.7868C51.0955 57.9607 51.0639 58.1425 51.0243 58.3085C50.8742 59.0674 50.6844 59.8736 50.5817 60.6404C50.5817 60.7036 50.5659 60.7669 50.558 60.8301C50.5264 61.0593 50.471 61.4151 50.5184 61.6364C50.5184 61.7233 50.5343 61.8103 50.5896 61.8735C50.6054 61.9051 50.6212 61.9289 50.6528 61.9447C50.6528 61.9447 50.6686 61.9605 50.6765 61.9605C50.6765 61.9763 50.6923 61.9763 50.7003 61.9842C50.7003 61.9842 50.7161 61.9842 50.724 62H50.7477C50.7477 62 50.7635 62 50.7635 61.9842C50.7635 61.9842 50.7477 61.9605 50.7477 61.9526C50.7477 61.9526 50.7319 61.9368 50.724 61.9289V61.913H50.7477C50.7635 61.913 50.7714 61.9289 50.7714 61.9289C50.7714 61.9289 50.7872 61.9447 50.7951 61.9447H50.8109C50.8109 61.9447 50.8583 61.9447 50.8742 61.9289C50.9453 61.8972 50.9769 61.8261 51.0164 61.755C51.1508 61.5732 51.2457 61.2174 51.3089 61.004C51.3326 60.9645 51.3563 60.8775 51.3722 60.8301L51.3959 60.8222Z" fill="#FF5C85"/>
<path fill-rule="evenodd" clip-rule="evenodd" d="M54.5072 58.9882C54.572 58.81 54.6369 58.6318 54.6936 58.4454C54.9285 57.7082 55.123 56.9385 55.2931 56.1769V56.1526C55.2931 56.1526 55.2931 56.1364 55.3093 56.1283C55.3255 56.0068 55.3498 55.8852 55.3741 55.7637C55.5605 54.7915 55.7873 53.6734 55.8926 52.6931C55.925 52.1584 55.9737 52.1017 55.5767 52.0207C55.1716 51.9397 55.1797 52.0936 55.0419 52.5392C54.7989 53.5114 54.6044 54.5727 54.3857 55.5612C54.3614 55.6827 54.329 55.7961 54.3047 55.9258V55.9501C54.3047 55.9501 54.3047 55.9663 54.2885 55.9663C54.1426 56.7197 53.9806 57.4651 53.8186 58.2105C53.7862 58.3806 53.7294 58.5669 53.6889 58.7371C53.5917 59.126 53.3406 59.6688 53.6484 59.9362C54.0535 60.2683 54.4262 59.207 54.5072 58.9882Z" fill="#FF5C85"/>
<path fill-rule="evenodd" clip-rule="evenodd" d="M56.4762 59.1585C56.7306 58.5267 56.9763 57.8336 57.1957 57.1755V57.158C57.1957 57.158 57.1957 57.1404 57.1957 57.1317C57.3975 56.4824 57.608 55.7629 57.7309 55.0961C57.7835 54.8065 57.9502 54.1222 57.5554 54.0081C57.1606 53.9203 56.9588 54.5696 56.8447 54.8328C56.599 55.4558 56.3621 56.149 56.1428 56.7982V56.8158V56.8333C55.941 57.4826 55.7216 58.2109 55.5812 58.8777C55.5374 59.1672 55.3531 59.8604 55.7479 59.992C56.134 60.0798 56.3621 59.4217 56.4762 59.1497V59.1585Z" fill="#FF5C85"/>
<path fill-rule="evenodd" clip-rule="evenodd" d="M19.0676 57.6757C19.1216 57.5676 19.2027 57.1351 19.2027 57C19.2027 56.8514 19.1216 56.4324 19.0676 56.3243C18.9189 56.027 18.6487 56 18.3514 56C18.0541 56 17.7838 56.027 17.6351 56.3243C17.5811 56.4324 17.5 56.8514 17.5 57C17.5 57.1486 17.5811 57.5811 17.6351 57.6892C17.7838 57.9865 18.0541 58 18.3514 58C18.6487 58 18.9189 57.973 19.0676 57.6892V57.6757Z" fill="#FF5C85"/>
<path fill-rule="evenodd" clip-rule="evenodd" d="M11.2778 35.0794C11.2222 35.0476 11.0238 35 10.9603 35C10.8968 35 10.6905 35.0476 10.6508 35.0794C10.5079 35.1746 10.5 35.3492 10.5 35.5C10.5 35.6508 10.5 35.8254 10.6508 35.9206C10.6984 35.9524 10.9048 36 10.9603 36C11.0238 36 11.2302 35.9603 11.2778 35.9286C11.4206 35.8333 11.4206 35.6587 11.4206 35.5079C11.4206 35.3571 11.4206 35.1825 11.2778 35.0873V35.0794Z" fill="#FF5C85"/>
<path fill-rule="evenodd" clip-rule="evenodd" d="M11.284 37.08C11.236 37.048 11.028 37 10.972 37C10.908 37 10.7 37.04 10.652 37.072C10.5 37.168 10.5 37.344 10.5 37.496C10.5 37.648 10.5 37.824 10.652 37.92C10.708 37.952 10.908 38 10.972 38C11.036 38 11.244 37.952 11.284 37.92C11.428 37.824 11.436 37.656 11.436 37.496C11.436 37.336 11.436 37.168 11.284 37.072V37.08Z" fill="#FF5C85"/>
<path fill-rule="evenodd" clip-rule="evenodd" d="M12.2778 43.0794C12.2222 43.0476 12.0159 43 11.9603 43C11.8968 43 11.6905 43.0476 11.6429 43.0794C11.5 43.1746 11.5 43.3492 11.5 43.5C11.5 43.6508 11.5 43.8254 11.6429 43.9286C11.6984 43.9524 11.9048 44 11.9603 44C12.0238 44 12.2302 43.9524 12.2778 43.9286C12.4206 43.8254 12.4206 43.6587 12.4206 43.5C12.4206 43.3413 12.4206 43.1746 12.2778 43.0794Z" fill="#FF5C85"/>
<path fill-rule="evenodd" clip-rule="evenodd" d="M13.0274 45.0153C12.9788 44.991 12.8086 44.9991 12.76 45.0153C12.7114 45.0316 12.5736 45.1288 12.5412 45.1693C12.4601 45.299 12.5169 45.4854 12.5574 45.6151C12.606 45.7528 12.6627 45.9311 12.8086 45.9878C12.8572 46.0041 13.0274 46.0041 13.0761 45.9878C13.1247 45.9635 13.2625 45.8744 13.2949 45.8339C13.3759 45.6961 13.3192 45.5178 13.2787 45.3881C13.23 45.2504 13.1733 45.0721 13.0274 45.0234V45.0153Z" fill="#FF5C85"/>
<path fill-rule="evenodd" clip-rule="evenodd" d="M14.1408 48C14.0816 48 13.8742 48.0593 13.8075 48.0815C13.7482 48.1111 13.5853 48.2444 13.5482 48.2963C13.4519 48.437 13.5186 48.5852 13.5853 48.7185C13.6519 48.8519 13.726 48.9926 13.9038 49C13.9631 49 14.1705 48.9481 14.2297 48.9185C14.289 48.8889 14.4594 48.7556 14.4964 48.7037C14.5927 48.563 14.526 48.4222 14.4594 48.2889C14.3927 48.1556 14.3186 48.0148 14.1408 48Z" fill="#FF5C85"/>
<path fill-rule="evenodd" clip-rule="evenodd" d="M29.6642 62.9965C28.7752 62.6446 28.0436 62.302 27.2101 61.839C27.2101 61.839 27.1916 61.839 27.1916 61.8204C27.1916 61.8204 27.1731 61.8204 27.1731 61.8019C26.3304 61.3574 25.5895 60.8944 24.7746 60.4128C24.506 60.2554 23.8392 59.7831 23.5614 60.1165C23.2929 60.4869 23.9782 61.0148 24.2097 61.2092C24.8764 61.7741 25.8395 62.3946 26.6082 62.8298H26.6267C26.6267 62.8298 26.6452 62.8484 26.6545 62.8484C26.6545 62.8484 26.6606 62.8484 26.673 62.8484C27.5157 63.2929 28.4696 63.7096 29.4142 63.9226C29.692 63.9782 30.6551 64.1541 30.6921 63.6726C30.7199 63.2744 30.0068 63.1077 29.692 62.978L29.6642 62.9965Z" fill="#FF5C85"/>
<path fill-rule="evenodd" clip-rule="evenodd" d="M35.8492 63.1587C35.6746 63.0952 35.0873 63 34.8968 63C34.6905 63 34.1032 63.0952 33.9444 63.1587C33.5635 63.3333 33.5 63.6191 33.5 64C33.5 64.381 33.5476 64.6825 33.9444 64.8413C34.119 64.9206 34.7064 65 34.8968 65C35.1032 65 35.6905 64.9206 35.8492 64.8413C36.2301 64.6825 36.2936 64.3968 36.2936 64C36.2936 63.6032 36.246 63.3333 35.8492 63.1587Z" fill="#FF5C85"/>
<path fill-rule="evenodd" clip-rule="evenodd" d="M47.4378 50.2418C47.4378 50.127 47.323 49.7251 47.2799 49.6102C47.2368 49.4954 46.9641 49.1509 46.8636 49.0935C46.5909 48.9069 46.3038 49.0361 46.0455 49.1653C45.7727 49.2944 45.5287 49.438 45.5 49.7681C45.5 49.883 45.6005 50.2992 45.6579 50.3997C45.701 50.5145 45.9737 50.8447 46.0742 50.9021C46.3469 51.0887 46.634 50.9739 46.8923 50.8447C47.1507 50.7155 47.4091 50.5576 47.4378 50.2275V50.2418Z" fill="#FF5C85"/>
<path fill-rule="evenodd" clip-rule="evenodd" d="M50.4016 49.2244C50.3174 49.0654 50.0369 48.7288 49.906 48.5979C49.906 48.5979 49.906 48.5979 49.906 48.5792C49.7845 48.4577 49.4385 48.1678 49.2889 48.0837C49.0271 47.9528 48.8775 47.9715 48.6718 48.1678C48.4755 48.3735 48.4474 48.5325 48.5877 48.7849C48.6718 48.9439 48.9523 49.2805 49.0832 49.4021V49.4208C49.2141 49.5517 49.5507 49.8322 49.7097 49.9163C49.9621 50.0472 50.1211 50.0285 50.3174 49.8322C50.5138 49.6265 50.5418 49.4675 50.4016 49.2151V49.2244Z" fill="#FF5C85"/>
<path fill-rule="evenodd" clip-rule="evenodd" d="M56.4762 44.0714C56.4127 44.0397 56.1667 44 56.0794 44C56 44 55.746 44.0397 55.6825 44.0714C55.5079 44.1667 55.5 44.3175 55.5 44.5C55.5 44.6825 55.5159 44.8254 55.6825 44.9206C55.746 44.9524 56 45 56.0794 45C56.1587 45 56.4048 44.9524 56.4762 44.9206C56.6508 44.8254 56.6587 44.6746 56.6587 44.5C56.6587 44.3254 56.6429 44.1667 56.4762 44.0714Z" fill="#FF5C85"/>
<path fill-rule="evenodd" clip-rule="evenodd" d="M58.4157 40.0149C58.3447 39.9913 58.0844 39.9992 58.0056 40.0149C57.9267 40.0307 57.6901 40.1175 57.627 40.1648C57.4771 40.291 57.485 40.4408 57.5244 40.6144C57.5639 40.7879 57.6033 40.9299 57.7926 40.9851C57.8636 41.0087 58.116 41.0008 58.2027 40.9851C58.2816 40.9614 58.5182 40.8746 58.5813 40.8273C58.7312 40.709 58.7233 40.5592 58.6839 40.3856C58.6444 40.2121 58.5971 40.0623 58.4157 40.0071V40.0149Z" fill="#FF5C85"/>
<path fill-rule="evenodd" clip-rule="evenodd" d="M61.246 51.0556C61.246 51.0556 61.2222 51.0556 61.2063 51.0556C61.1905 51.0397 61.2302 51.0317 61.2063 51.0159C61.2063 51.0159 61.1905 51 61.1825 51C61.0556 51.0159 60.9286 51.0238 60.8095 51.0556C60.5794 51.127 60.5 51.2381 60.5 51.4762C60.5 51.6905 60.5635 51.8016 60.7698 51.8968C60.8413 51.9286 61.0952 52 61.1746 52C61.1746 52 61.254 51.9841 61.2857 51.9841C61.4365 51.9603 61.5556 51.9206 61.6825 51.8175C61.7064 51.8175 61.7619 51.7381 61.7778 51.7143C61.8889 51.5238 61.8175 51.3809 61.6746 51.2381C61.5159 51.0794 61.4603 51.0873 61.246 51.0556Z" fill="#FF5C85"/>
<path fill-rule="evenodd" clip-rule="evenodd" d="M63.0714 47.1587C62.9603 47.0952 62.5635 47 62.4365 47C62.3095 47 61.8968 47.0952 61.8016 47.1587C61.5159 47.3492 61.5 47.6984 61.5 48C61.5 48.3016 61.5 48.6508 61.8016 48.8413C61.9127 48.9048 62.3095 49 62.4365 49C62.5635 49 62.9762 48.9048 63.0714 48.8413C63.3571 48.6508 63.373 48.3016 63.373 48C63.373 47.6984 63.373 47.3492 63.0714 47.1587Z" fill="#FF5C85"/>
<path fill-rule="evenodd" clip-rule="evenodd" d="M62.989 44C62.927 44 62.7564 44.062 62.7099 44.093C62.6557 44.124 62.5316 44.2636 62.5161 44.3178C62.4619 44.4651 62.5549 44.6124 62.6402 44.7364C62.7177 44.8527 62.8185 45 62.9735 45C63.0355 45 63.2061 44.938 63.2526 44.907C63.3068 44.876 63.4309 44.7364 63.4464 44.6822C63.5006 44.5349 63.4076 44.3876 63.3223 44.2636C63.2448 44.1473 63.144 44 62.989 44Z" fill="#FF5C85"/>
<path fill-rule="evenodd" clip-rule="evenodd" d="M65.4524 40.1587C65.3254 40.0952 64.8175 40 64.6587 40C64.5 40 64.008 40.0952 63.8651 40.1587C63.5159 40.3333 63.5 40.6508 63.5 41C63.5 41.3492 63.5318 41.6667 63.8651 41.8413C63.9921 41.9048 64.5 42 64.6587 42C64.8175 42 65.3254 41.9048 65.4524 41.8413C65.8016 41.6667 65.8175 41.3492 65.8175 41C65.8175 40.6508 65.7857 40.3333 65.4524 40.1587Z" fill="#FF5C85"/>
<path fill-rule="evenodd" clip-rule="evenodd" d="M37.6746 11.0794C37.5873 11.0397 37.2937 11 37.1984 11C37.0952 11 36.8016 11.0397 36.7222 11.0794C36.5317 11.1667 36.5 11.3095 36.5 11.5C36.5 11.6905 36.5238 11.8333 36.7222 11.9206C36.8095 11.9603 37.1032 12 37.1984 12C37.3016 12 37.5952 11.9603 37.6746 11.9206C37.8651 11.8333 37.8968 11.6905 37.8968 11.5C37.8968 11.3095 37.873 11.1667 37.6746 11.0794Z" fill="#FF5C85"/>
<path fill-rule="evenodd" clip-rule="evenodd" d="M52.768 14.6694C51.3662 13.8464 49.6299 13.132 48.1016 12.5532C48.0835 12.5532 48.0745 12.5532 48.0564 12.5352C48.0293 12.5352 48.0202 12.5171 48.0021 12.508C46.4648 11.9654 44.6923 11.3867 43.0916 11.0973C42.8113 11.0611 41.509 10.7898 41.5 11.3505C41.5181 11.7846 42.5309 11.9383 42.8927 12.0378C44.5205 12.499 46.0397 13.0054 47.6133 13.5842C47.6404 13.5842 47.6494 13.6023 47.6675 13.6023C47.6856 13.6023 47.6947 13.6204 47.7127 13.6204C49.2953 14.2082 50.7784 14.805 52.3158 15.5104C52.6504 15.6641 53.5276 16.2158 53.817 15.9083C54.1697 15.4742 53.0031 14.8231 52.768 14.6694Z" fill="#FF5C85"/>
<path fill-rule="evenodd" clip-rule="evenodd" d="M20.0782 22.6871C20.1462 22.5782 20.2143 22.1429 20.2143 22.0068C20.2143 21.8571 20.1462 21.4354 20.0782 21.3265C19.9286 21.0272 19.6701 21 19.3571 21C19.0442 21 18.7993 21.0272 18.636 21.3265C18.5816 21.4354 18.5 21.8571 18.5 22.0068C18.5 22.1429 18.5816 22.5782 18.636 22.6871C18.7993 22.9864 19.0578 23 19.3571 23C19.6564 23 19.9286 22.9728 20.0782 22.6871Z" fill="#FF5C85"/>
<path fill-rule="evenodd" clip-rule="evenodd" d="M22.3829 19.6332C22.3829 19.5691 22.2954 19.3708 22.2604 19.3125C22.2254 19.2484 22.0913 19.0851 22.033 19.0501C21.9105 18.9627 21.8056 19.0035 21.6831 19.0676C21.5665 19.1434 21.4849 19.2134 21.5024 19.365C21.514 19.4291 21.5898 19.6216 21.6306 19.6857C21.6715 19.7499 21.7997 19.9131 21.8581 19.9481C21.9863 20.0356 22.0855 20.0006 22.2079 19.9306C22.3304 19.8548 22.4062 19.7848 22.3887 19.6332H22.3829Z" fill="#FF5C85"/>
<path fill-rule="evenodd" clip-rule="evenodd" d="M24.5439 17.5056C24.5439 17.449 24.4791 17.271 24.4468 17.2224C24.4144 17.1658 24.2687 17.0363 24.2121 17.0201C24.0583 16.9554 23.9046 17.0606 23.7751 17.1415C23.6537 17.2224 23.5 17.3276 23.5 17.4976C23.5 17.5542 23.5647 17.7322 23.5971 17.7808C23.6295 17.8374 23.7751 17.9669 23.8318 17.9831C23.9855 18.0397 24.1393 17.9426 24.2687 17.8617C24.3901 17.7808 24.5439 17.6756 24.5439 17.5056Z" fill="#FF5C85"/>
<path fill-rule="evenodd" clip-rule="evenodd" d="M27.4831 16.839C27.517 16.7797 27.5678 16.5678 27.5678 16.5C27.5678 16.4322 27.517 16.2119 27.4831 16.161C27.3814 16.0085 27.1949 16 27.0339 16C26.8729 16 26.6864 16 26.5848 16.161C26.5509 16.2119 26.5 16.4322 26.5 16.5C26.5 16.5763 26.5509 16.7881 26.5848 16.8475C26.6864 17 26.8729 17 27.0339 17C27.1949 17 27.3814 17 27.4831 16.8475V16.839Z" fill="#FF5C85"/>
</svg>
